<svg width="33" height="34" viewBox="0 0 33 34" fill="none" xmlns="http://www.w3.org/2000/svg">
<circle cx="16.5" cy="17" r="16.5" fill="#D9D9D9"/>
<path d="M23.4375 9.45407H21.4995V8.04607C21.4995 7.78407 21.2695 7.53407 20.9995 7.54607C20.8677 7.54863 20.742 7.60213 20.6488 7.69535C20.5556 7.78857 20.5021 7.91426 20.4995 8.04607V9.45407H13.4995V8.04607C13.4995 7.78407 13.2695 7.53407 12.9995 7.54607C12.8677 7.54863 12.742 7.60213 12.6488 7.69535C12.5556 7.78857 12.5021 7.91426 12.4995 8.04607V9.45407H10.5615C9.89873 9.45486 9.2633 9.71851 8.79463 10.1872C8.32596 10.6558 8.06232 11.2913 8.06152 11.9541V22.9541C8.06152 24.3331 9.18352 25.4541 10.5615 25.4541H23.4365C24.8155 25.4541 25.9365 24.3331 25.9365 22.9541V11.9541C25.9365 11.2912 25.6733 10.6555 25.2046 10.1867C24.736 9.71784 24.1004 9.45433 23.4375 9.45407ZM10.5615 10.4541H12.4995V11.0461C12.4995 11.3081 12.7295 11.5581 12.9995 11.5461C13.2705 11.5341 13.4995 11.3261 13.4995 11.0461V10.4541H20.4995V11.0461C20.4995 11.3081 20.7295 11.5581 20.9995 11.5461C21.2705 11.5341 21.4995 11.3261 21.4995 11.0461V10.4541H23.4365C24.2635 10.4541 24.9365 11.1271 24.9365 11.9541V13.5381H9.06152V11.9541C9.06152 11.1271 9.73452 10.4541 10.5615 10.4541ZM23.4375 24.4541H10.5615C9.73452 24.4541 9.06152 23.7811 9.06152 22.9541V14.5381H24.9365V22.9541C24.9365 23.3517 24.7786 23.7331 24.4975 24.0144C24.2164 24.2957 23.8352 24.4538 23.4375 24.4541Z" fill="black"/>
</svg>
