<svg width="36" height="36" viewBox="0 0 36 36" fill="none" xmlns="http://www.w3.org/2000/svg">
<path d="M17.9434 30C15.0624 30 12.5344 29.116 10.3594 27.348C8.18438 25.58 6.81138 23.314 6.24038 20.55C6.17838 20.329 6.20038 20.1245 6.30638 19.9365C6.41238 19.7485 6.57888 19.6395 6.80588 19.6095C7.01888 19.5795 7.20638 19.626 7.36838 19.749C7.52938 19.872 7.64388 20.047 7.71188 20.274C8.25388 22.658 9.47688 24.625 11.3809 26.175C13.2849 27.725 15.4724 28.5 17.9434 28.5C20.8684 28.5 23.3494 27.4815 25.3864 25.4445C27.4234 23.4075 28.4424 20.926 28.4434 18C28.4444 15.074 27.4254 12.5925 25.3864 10.5555C23.3474 8.5185 20.8664 7.5 17.9434 7.5C16.3904 7.5 14.9314 7.828 13.5664 8.484C12.2014 9.139 10.9964 10.0415 9.95138 11.1915H12.9229C13.1359 11.1915 13.3144 11.2635 13.4584 11.4075C13.6024 11.5515 13.6739 11.73 13.6729 11.943C13.6719 12.156 13.6004 12.334 13.4584 12.477C13.3164 12.62 13.1379 12.6915 12.9229 12.6915H8.65538C8.31238 12.6915 8.02488 12.5755 7.79288 12.3435C7.56088 12.1115 7.44488 11.824 7.44488 11.481V7.212C7.44488 6.999 7.51688 6.821 7.66088 6.678C7.80488 6.535 7.98288 6.463 8.19488 6.462C8.40688 6.461 8.58488 6.533 8.72888 6.678C8.87288 6.823 8.94488 7.001 8.94488 7.212V10.044C10.1049 8.771 11.4639 7.779 13.0219 7.068C14.5799 6.357 16.2204 6.001 17.9434 6C19.6084 6 21.1679 6.313 22.6219 6.939C24.0759 7.565 25.3464 8.422 26.4334 9.51C27.5204 10.598 28.3774 11.868 29.0044 13.32C29.6314 14.772 29.9444 16.3315 29.9434 17.9985C29.9424 19.6655 29.6294 21.2255 29.0044 22.6785C28.3794 24.1315 27.5224 25.4025 26.4334 26.4915C25.3444 27.5805 24.0739 28.437 22.6219 29.061C21.1699 29.685 19.6114 29.998 17.9434 30ZM18.7789 17.688L23.2789 22.188C23.4189 22.328 23.4939 22.5 23.5039 22.704C23.5139 22.909 23.4389 23.091 23.2789 23.25C23.1189 23.41 22.9424 23.49 22.7494 23.49C22.5544 23.49 22.3774 23.41 22.2184 23.25L17.6434 18.675C17.5124 18.545 17.4189 18.408 17.3629 18.264C17.3069 18.12 17.2789 17.9715 17.2789 17.8185V11.25C17.2789 11.037 17.3509 10.859 17.4949 10.716C17.6389 10.572 17.8174 10.5 18.0304 10.5C18.2434 10.5 18.4214 10.572 18.5644 10.716C18.7074 10.86 18.7789 11.038 18.7789 11.25V17.688Z" fill="black"/>
</svg>
