<svg width="36" height="36" viewBox="0 0 36 36" fill="none" xmlns="http://www.w3.org/2000/svg">
<path d="M17.9429 30C15.0619 30 12.5339 29.116 10.3589 27.348C8.18389 25.58 6.81089 23.314 6.23989 20.55C6.17789 20.329 6.19989 20.1245 6.30589 19.9365C6.41189 19.7485 6.57839 19.6395 6.80539 19.6095C7.01839 19.5795 7.20589 19.626 7.36789 19.749C7.52889 19.872 7.64339 20.047 7.71139 20.274C8.25339 22.658 9.47639 24.625 11.3804 26.175C13.2844 27.725 15.4719 28.5 17.9429 28.5C20.8679 28.5 23.3489 27.4815 25.3859 25.4445C27.4229 23.4075 28.4419 20.926 28.4429 18C28.4439 15.074 27.4249 12.5925 25.3859 10.5555C23.3469 8.5185 20.8659 7.5 17.9429 7.5C16.3899 7.5 14.9309 7.828 13.5659 8.484C12.2009 9.139 10.9959 10.0415 9.95089 11.1915H12.9224C13.1354 11.1915 13.3139 11.2635 13.4579 11.4075C13.6019 11.5515 13.6734 11.73 13.6724 11.943C13.6714 12.156 13.5999 12.334 13.4579 12.477C13.3159 12.62 13.1374 12.6915 12.9224 12.6915H8.65489C8.31189 12.6915 8.02439 12.5755 7.79239 12.3435C7.56039 12.1115 7.44439 11.824 7.44439 11.481V7.212C7.44439 6.999 7.51639 6.821 7.66039 6.678C7.80439 6.535 7.98239 6.463 8.19439 6.462C8.40639 6.461 8.58439 6.533 8.72839 6.678C8.87239 6.823 8.94439 7.001 8.94439 7.212V10.044C10.1044 8.771 11.4634 7.779 13.0214 7.068C14.5794 6.357 16.2199 6.001 17.9429 6C19.6079 6 21.1674 6.313 22.6214 6.939C24.0754 7.565 25.3459 8.422 26.4329 9.51C27.5199 10.598 28.3769 11.868 29.0039 13.32C29.6309 14.772 29.9439 16.3315 29.9429 17.9985C29.9419 19.6655 29.6289 21.2255 29.0039 22.6785C28.3789 24.1315 27.5219 25.4025 26.4329 26.4915C25.3439 27.5805 24.0734 28.437 22.6214 29.061C21.1694 29.685 19.6109 29.998 17.9429 30ZM18.7784 17.688L23.2784 22.188C23.4184 22.328 23.4934 22.5 23.5034 22.704C23.5134 22.909 23.4384 23.091 23.2784 23.25C23.1184 23.41 22.9419 23.49 22.7489 23.49C22.5539 23.49 22.3769 23.41 22.2179 23.25L17.6429 18.675C17.5119 18.545 17.4184 18.408 17.3624 18.264C17.3064 18.12 17.2784 17.9715 17.2784 17.8185V11.25C17.2784 11.037 17.3504 10.859 17.4944 10.716C17.6384 10.572 17.8169 10.5 18.0299 10.5C18.2429 10.5 18.4209 10.572 18.5639 10.716C18.7069 10.86 18.7784 11.038 18.7784 11.25V17.688Z" fill="white"/>
</svg>
