<svg width="36" height="36" viewBox="0 0 36 36" fill="none" xmlns="http://www.w3.org/2000/svg">
<g id="material-symbols-light:home-outline-rounded">
<path id="Vector" d="M9 28.5H14.538V20.8845C14.538 20.5415 14.6545 20.254 14.8875 20.022C15.1195 19.789 15.407 19.6725 15.75 19.6725H20.25C20.593 19.6725 20.881 19.789 21.114 20.022C21.346 20.254 21.462 20.5415 21.462 20.8845V28.5H27V15.462C27 15.308 26.9665 15.168 26.8995 15.042C26.8325 14.916 26.741 14.806 26.625 14.712L18.549 8.625C18.395 8.491 18.212 8.424 18 8.424C17.788 8.424 17.6055 8.491 17.4525 8.625L9.375 14.712C9.26 14.808 9.1685 14.918 9.1005 15.042C9.0325 15.166 8.999 15.306 9 15.462V28.5ZM7.5 28.5V15.462C7.5 15.078 7.586 14.7145 7.758 14.3715C7.93 14.0285 8.167 13.746 8.469 13.524L16.5465 7.407C16.9695 7.084 17.4525 6.9225 17.9955 6.9225C18.5385 6.9225 19.0245 7.084 19.4535 7.407L27.531 13.5225C27.834 13.7445 28.071 14.0275 28.242 14.3715C28.414 14.7145 28.5 15.078 28.5 15.462V28.5C28.5 28.902 28.3505 29.2525 28.0515 29.5515C27.7525 29.8505 27.402 30 27 30H21.174C20.83 30 20.542 29.884 20.31 29.652C20.078 29.419 19.962 29.131 19.962 28.788V21.174H16.038V28.788C16.038 29.132 15.922 29.42 15.69 29.652C15.458 29.884 15.1705 30 14.8275 30H9C8.598 30 8.2475 29.8505 7.9485 29.5515C7.6495 29.2525 7.5 28.902 7.5 28.5Z" fill="white"/>
</g>
</svg>
