<svg width="36" height="36" viewBox="0 0 36 36" fill="none" xmlns="http://www.w3.org/2000/svg">
<path d="M9 28.5001H14.538V20.8846C14.538 20.5416 14.6545 20.2541 14.8875 20.0221C15.1195 19.7891 15.407 19.6726 15.75 19.6726H20.25C20.593 19.6726 20.881 19.7891 21.114 20.0221C21.346 20.2541 21.462 20.5416 21.462 20.8846V28.5001H27V15.4621C27 15.3081 26.9665 15.1681 26.8995 15.0421C26.8325 14.9161 26.741 14.8061 26.625 14.7121L18.549 8.62511C18.395 8.49111 18.212 8.42411 18 8.42411C17.788 8.42411 17.6055 8.49111 17.4525 8.62511L9.375 14.7121C9.26 14.8081 9.1685 14.9181 9.1005 15.0421C9.0325 15.1661 8.999 15.3061 9 15.4621V28.5001ZM7.5 28.5001V15.4621C7.5 15.0781 7.586 14.7146 7.758 14.3716C7.93 14.0286 8.167 13.7461 8.469 13.5241L16.5465 7.40711C16.9695 7.08411 17.4525 6.92261 17.9955 6.92261C18.5385 6.92261 19.0245 7.08411 19.4535 7.40711L27.531 13.5226C27.834 13.7446 28.071 14.0276 28.242 14.3716C28.414 14.7146 28.5 15.0781 28.5 15.4621V28.5001C28.5 28.9021 28.3505 29.2526 28.0515 29.5516C27.7525 29.8506 27.402 30.0001 27 30.0001H21.174C20.83 30.0001 20.542 29.8841 20.31 29.6521C20.078 29.4191 19.962 29.1311 19.962 28.7881V21.1741H16.038V28.7881C16.038 29.1321 15.922 29.4201 15.69 29.6521C15.458 29.8841 15.1705 30.0001 14.8275 30.0001H9C8.598 30.0001 8.2475 29.8506 7.9485 29.5516C7.6495 29.2526 7.5 28.9021 7.5 28.5001Z" fill="black"/>
</svg>
