<svg width="50" height="57" viewBox="0 0 50 57" fill="none" xmlns="http://www.w3.org/2000/svg">
<g id="Group">
<path id="Vector" d="M25 56.534C38.8071 56.534 50 45.3802 50 31.6214C50 17.8625 38.8071 6.70874 25 6.70874C11.1929 6.70874 0 17.8625 0 31.6214C0 45.3802 11.1929 56.534 25 56.534Z" fill="white" fill-opacity="0.5"/>
<path id="Vector_2" d="M20.4062 14.0803C20.4062 14.0803 36.7054 7.42952 33.4152 2.64274C30.125 -2.14405 22.0134 4.52453 27.0759 9.93857C32.1384 15.3526 43.3616 12.8124 45.6607 10.2678" stroke="black" stroke-linecap="round" stroke-linejoin="round"/>
<path id="Vector_3" d="M11.4778 22.9777C11.4778 22.9777 25.0001 19.1651 39.7947 22.9777" stroke="black" stroke-linecap="round" stroke-linejoin="round"/>
<path id="Vector_4" d="M10.0762 27.4263C13.0271 28.9344 15.978 28.9344 18.9289 27.4263" stroke="black" stroke-linecap="round" stroke-linejoin="round"/>
<path id="Vector_5" d="M31.8972 27.4263C34.5311 28.9344 37.1651 28.9344 39.799 27.4263" stroke="black" stroke-linecap="round" stroke-linejoin="round"/>
<path id="Vector_6" d="M24.0451 27.4263C24.0451 27.4263 18.8799 34.9267 23.9781 37.2134" stroke="black" stroke-linecap="round" stroke-linejoin="round"/>
<path id="Vector_7" d="M20.4062 44.3892C21.6116 45.2033 29.3616 46.0797 31.8929 40.2964" stroke="black" stroke-linecap="round" stroke-linejoin="round"/>
</g>
</svg>
