<svg width="20" height="21" viewBox="0 0 20 21" fill="none" xmlns="http://www.w3.org/2000/svg">
<path d="M9.58366 3C11.6833 3 13.6969 3.83407 15.1816 5.31874C16.6663 6.8034 17.5003 8.81704 17.5003 10.9167C17.5003 13.0163 16.6663 15.0299 15.1816 16.5146C13.6969 17.9993 11.6833 18.8333 9.58366 18.8333C7.48403 18.8333 5.47039 17.9993 3.98573 16.5146C2.50107 15.0299 1.66699 13.0163 1.66699 10.9167C1.66699 8.81704 2.50107 6.8034 3.98573 5.31874C5.47039 3.83407 7.48403 3 9.58366 3ZM9.58366 3.83333C7.70504 3.83333 5.90337 4.57961 4.57499 5.90799C3.2466 7.23638 2.50033 9.03805 2.50033 10.9167C2.50033 12.7953 3.2466 14.597 4.57499 15.9253C5.90337 17.2537 7.70504 18 9.58366 18C10.5139 18 11.4349 17.8168 12.2943 17.4608C13.1537 17.1048 13.9346 16.5831 14.5923 15.9253C15.2501 15.2676 15.7718 14.4867 16.1278 13.6273C16.4838 12.768 16.667 11.8469 16.667 10.9167C16.667 9.03805 15.9207 7.23638 14.5923 5.90799C13.2639 4.57961 11.4623 3.83333 9.58366 3.83333ZM9.58366 14.6667C9.35354 14.6667 9.16699 14.4801 9.16699 14.25V13.4167C9.16699 13.1865 9.35354 13 9.58366 13C9.81378 13 10.0003 13.1865 10.0003 13.4167V14.25C10.0003 14.4801 9.81378 14.6667 9.58366 14.6667ZM9.58366 11.3333C9.35354 11.3333 9.16699 11.1468 9.16699 10.9167V7.58333C9.16699 7.35321 9.35354 7.16667 9.58366 7.16667C9.81378 7.16667 10.0003 7.35321 10.0003 7.58333V10.9167C10.0003 11.1468 9.81378 11.3333 9.58366 11.3333Z" fill="#818181" stroke="#818181" stroke-width="0.25"/>
</svg>
