<svg width="61" height="61" viewBox="0 0 61 61" fill="none" xmlns="http://www.w3.org/2000/svg">
<g id="Frame 139">
<circle id="Ellipse 15" cx="30.5" cy="30.5" r="30.5" fill="white"/>
<path id="Vector" d="M26.2534 37.1332L41.4889 22.2645C41.6574 22.1001 41.8559 22.0122 42.0843 22.001C42.3128 21.9897 42.5223 22.0775 42.7127 22.2645C42.9031 22.4515 42.9988 22.6525 43 22.8676C43.0011 23.0828 42.9059 23.2832 42.7144 23.4691L27.2331 38.5895C26.9527 38.8632 26.6261 39 26.2534 39C25.8807 39 25.5541 38.8632 25.2737 38.5895L18.2635 31.7473C18.095 31.5828 18.0073 31.3874 18.0004 31.161C17.9934 30.9347 18.0846 30.7286 18.2739 30.5427C18.4631 30.3569 18.6691 30.264 18.8918 30.264C19.1145 30.264 19.3205 30.3569 19.5097 30.5427L26.2534 37.1332Z" fill="black"/>
</g>
</svg>
