<svg width="105" height="51" viewBox="0 0 105 51" fill="none" xmlns="http://www.w3.org/2000/svg">
<g id="Layer 1">
<g id="Group">
<path id="Vector" d="M80.112 21.6022C86.2213 21.6022 91.1739 16.9903 91.1739 11.3011C91.1739 5.61196 86.2213 1 80.112 1C74.0026 1 69.05 5.61196 69.05 11.3011C69.05 16.9903 74.0026 21.6022 80.112 21.6022Z" stroke="black"/>
<g id="Group_2">
<g id="Group_3">
<path id="Vector_2" d="M63.4481 49.3597C61.7967 49.3597 60.3903 48.2345 60.0347 46.618L52.9551 15.1363C52.5284 13.2424 53.7136 11.3566 55.6021 10.9366L73.4987 6.88746C73.7515 6.83199 74.0123 6.80029 74.273 6.80029C75.8928 6.80029 77.3308 7.95719 77.6864 9.54197L84.766 41.0238C85.1927 42.9176 84.0075 44.8035 82.1191 45.2314L64.2225 49.2805C63.9696 49.336 63.7089 49.3676 63.4481 49.3676V49.3597Z" fill="black"/>
<path id="Vector_3" d="M74.2652 7.1962C75.6874 7.1962 76.9674 8.17877 77.2993 9.62885L84.3789 41.1106C84.7582 42.7905 83.7073 44.4624 82.0322 44.8428L64.1356 48.8919C63.9065 48.9474 63.6773 48.9712 63.4482 48.9712C62.0259 48.9712 60.7459 47.9886 60.4141 46.5385L53.3344 15.0567C52.9552 13.3769 54.006 11.7049 55.6811 11.3246L73.5777 7.27544C73.8069 7.21997 74.036 7.1962 74.2652 7.1962ZM74.2652 6.40381C73.9807 6.40381 73.6884 6.4355 73.4039 6.4989L55.5073 10.548C54.488 10.7778 53.6268 11.388 53.0658 12.2754C52.5127 13.155 52.331 14.2089 52.5601 15.2231L59.6397 46.7049C60.0427 48.5037 61.6072 49.7556 63.4403 49.7556C63.7247 49.7556 64.0171 49.7239 64.3015 49.6605L82.1981 45.6114C84.2999 45.136 85.6194 43.0361 85.1454 40.9363L78.0657 9.45452C77.6628 7.65579 76.0983 6.40381 74.2652 6.40381Z" fill="white"/>
</g>
<g id="Group_4">
<path id="Vector_4" d="M95.7961 50.6116C95.6065 50.6116 95.4089 50.5957 95.2114 50.564L77.1173 47.5371C75.213 47.2202 73.9172 45.4056 74.2333 43.488L79.5351 11.6576C79.8195 9.95391 81.2734 8.71777 82.988 8.71777C83.1776 8.71777 83.3751 8.73362 83.5727 8.76532L101.667 11.7923C102.591 11.9507 103.397 12.4499 103.942 13.2186C104.488 13.9872 104.701 14.9143 104.543 15.8414L99.2411 47.6718C98.9567 49.3755 97.5028 50.6116 95.7882 50.6116H95.7961Z" fill="black"/>
<path id="Vector_5" d="M82.996 9.11417C83.1699 9.11417 83.3358 9.13002 83.5096 9.15379L101.604 12.1807C103.303 12.466 104.44 14.0746 104.164 15.7703L98.862 47.6007C98.6091 49.13 97.2896 50.2077 95.7962 50.2077C95.6224 50.2077 95.4565 50.1918 95.2826 50.1681L77.1885 47.1411C75.4976 46.8559 74.3519 45.2473 74.6285 43.5516L79.9303 11.7211C80.1831 10.1918 81.5027 9.11417 82.996 9.11417ZM82.996 8.32178C81.0839 8.32178 79.4641 9.69262 79.148 11.5864L73.8462 43.4169C73.4907 45.5484 74.9287 47.5611 77.0542 47.9177L95.1483 50.9446C95.3617 50.9842 95.5829 51.0001 95.7962 51.0001C97.7084 51.0001 99.3282 49.6292 99.6442 47.7354L104.946 15.905C105.302 13.7734 103.864 11.7608 101.738 11.4042L83.6439 8.37725C83.4306 8.33763 83.2094 8.32178 82.996 8.32178Z" fill="white"/>
</g>
<path id="Vector_6" d="M75.9164 32.2991C75.9164 34.2325 75.4423 35.9361 74.4941 37.4021C73.546 38.868 72.3133 40.0407 70.7963 40.9361C69.4767 41.7206 67.9992 42.3149 66.3557 42.719C64.7122 43.1231 62.7922 43.3292 60.6114 43.3292C59.5921 43.3292 58.4701 43.3133 57.2454 43.2895C56.0207 43.2578 55.3412 43.2499 55.199 43.2499C55.199 43.139 55.2069 41.9742 55.2306 39.7475C55.2543 37.5209 55.2622 34.9298 55.2622 31.9583C55.2622 30.7222 55.2622 29.1849 55.2464 27.3387C55.2385 25.4924 55.2227 23.4243 55.199 21.1342C55.3728 21.1342 56.1076 21.1342 57.3877 21.1184C58.6677 21.1105 59.5684 21.1025 60.0899 21.1025C62.4919 21.1025 64.5937 21.3086 66.4031 21.7127C68.2125 22.1168 69.8007 22.7666 71.1834 23.6461C72.7874 24.6683 73.9726 25.9044 74.7549 27.3466C75.5371 28.7888 75.9243 30.4449 75.9243 32.3149L75.9164 32.2991ZM70.3143 32.1247C70.3143 31.0233 70.0694 30.017 69.5874 29.1057C69.1054 28.1945 68.3469 27.4258 67.3118 26.7919C66.3873 26.2293 65.3838 25.841 64.2856 25.6271C63.1952 25.4132 62.1601 25.3022 61.1803 25.3022H60.5877C60.5798 26.4274 60.5719 27.4892 60.5719 28.5035V33.7808C60.5719 35.0566 60.5719 36.8078 60.5877 39.0265H61.1329C62.1206 39.0265 63.1715 38.8997 64.2697 38.654C65.368 38.4084 66.2846 38.0756 66.9957 37.6556C68.1019 37.0059 68.9316 36.2214 69.4847 35.3022C70.0298 34.383 70.3064 33.3212 70.3064 32.1089L70.3143 32.1247Z" fill="white"/>
<g id="Group_5">
<path id="Vector_7" d="M16.3005 42.2513L16.4823 41.8551C16.7825 41.1974 17.9203 38.5746 19.9115 33.9866C21.9026 29.3987 23.8068 25.0088 25.6163 20.8012L25.719 20.5635H31.8267L31.9295 20.8012C33.8179 25.2227 35.7537 29.7394 37.7449 34.3511C39.736 38.9628 40.8027 41.4351 40.9449 41.7758L41.1108 42.172L34.9557 44.2481L34.8372 43.8598C34.7265 43.4953 34.4342 42.6712 33.9996 41.4827C33.5729 40.3178 33.0672 39.0025 32.4984 37.5603H24.6444C24.0518 39.0183 23.5382 40.3495 23.1115 41.5143C22.6611 42.7346 22.3846 43.5191 22.2898 43.8519L22.1713 44.2481L16.3163 42.2513H16.3005ZM30.9023 33.3527C30.5309 32.3622 30.1437 31.3004 29.7171 30.1594C29.3299 29.1134 28.9427 28.0833 28.5635 27.069C28.2237 27.9565 27.8365 28.9866 27.4099 30.1514C26.9358 31.443 26.5407 32.5128 26.2089 33.3527H30.8944H30.9023Z" fill="black"/>
<path id="Vector_8" d="M31.5658 20.96C33.4543 25.3895 35.3901 29.9061 37.3812 34.5099C39.3724 39.1137 40.4312 41.5939 40.5734 41.9346L35.2005 43.7413C35.0898 43.3768 34.8054 42.5765 34.355 41.3483C33.9046 40.1121 33.3674 38.7254 32.751 37.1723H24.3677C23.7277 38.7492 23.1825 40.1517 22.7242 41.3879C22.2738 42.624 21.9973 43.4085 21.8946 43.7492L16.8377 42.0218C17.1379 41.3641 18.2757 38.7413 20.2748 34.1533C22.2738 29.5654 24.1702 25.1755 25.9796 20.9679H31.5658M25.6398 33.7492H31.471V33.7334C31.0443 32.6082 30.5861 31.372 30.0883 30.025C29.5905 28.6779 29.0927 27.3467 28.5949 26.0471H28.5317C28.1129 27.1169 27.6152 28.4402 27.0463 30.017C26.4774 31.5939 26.0033 32.83 25.6477 33.7334V33.7492M32.0873 20.1676H25.466L25.2605 20.643C23.4511 24.8506 21.5469 29.2405 19.5558 33.8284C17.5725 38.3847 16.4189 41.0313 16.1266 41.689L15.771 42.4814L16.5927 42.7587L21.6496 44.4861L22.424 44.7476L22.661 43.9552C22.7558 43.6303 23.0324 42.8538 23.4748 41.6414C23.8778 40.5479 24.3598 39.3039 24.905 37.9489H32.2217C32.751 39.288 33.2251 40.5162 33.6202 41.6097C34.1654 43.1153 34.3787 43.7254 34.4577 43.9711L34.7027 44.7397L35.4691 44.4861L40.842 42.6795L41.648 42.4101L41.3161 41.6256C41.1739 41.2849 40.1862 38.9949 38.1161 34.1929C36.1407 29.605 34.1812 25.0487 32.3007 20.643L32.0952 20.1597L32.0873 20.1676ZM26.7934 32.9568C27.0779 32.204 27.4097 31.3166 27.789 30.2864C28.0655 29.5337 28.3263 28.8284 28.5712 28.1866C28.832 28.8839 29.0927 29.5891 29.3614 30.3023C29.709 31.2452 30.033 32.1327 30.349 32.9647H26.8092L26.7934 32.9568Z" fill="white"/>
</g>
<g id="Group_6">
<path id="Vector_9" d="M38.5823 39.8823C38.5191 38.1945 38.4085 35.6985 38.2584 32.4021C38.2189 31.5225 38.1557 30.2626 38.0766 28.6224C37.9976 26.9821 37.8633 24.6525 37.6895 21.6335L37.6658 21.2373L38.0608 21.2214C38.3769 21.2056 39.0327 21.166 40.0362 21.0947C41.0397 21.0233 41.9799 20.9679 42.8491 20.9282C43.9 20.8807 44.8797 20.8569 45.7568 20.8569C46.2467 20.8569 46.7128 20.8569 47.1474 20.8807C48.38 20.9282 49.5652 21.1105 50.6714 21.4275C52.2833 21.8791 53.5317 22.624 54.3693 23.6303C55.2068 24.6446 55.6651 25.8252 55.7283 27.1406C55.7994 28.6303 55.436 29.9536 54.6537 31.055C53.99 31.9901 53.2947 32.7428 52.5836 33.2975C53.7135 34.5891 54.9303 35.9203 56.1945 37.2515C57.5614 38.6858 58.6518 39.9615 59.4261 41.0392L59.7106 41.4354L54.0453 43.9631L53.8557 43.7096C53.429 43.147 52.5757 42.1168 51.3193 40.6588C50.0393 39.1691 48.0956 36.8633 45.5434 33.7967L45.4249 33.6541L45.575 32.8934L45.8121 32.83C46.136 32.7428 46.5785 32.5447 47.1237 32.2357C47.6689 31.9346 48.1114 31.5859 48.459 31.2214C48.8146 30.8332 49.0754 30.429 49.2413 30.0091C49.4072 29.605 49.4783 29.074 49.4467 28.4322C49.4151 27.8379 49.2492 27.3229 48.9173 26.8712C48.5934 26.4195 48.1667 26.1026 47.6215 25.9045C47.1553 25.7302 46.6733 25.6351 46.1914 25.6113C45.9227 25.5954 45.662 25.5954 45.4012 25.5954C45.1642 25.5954 44.9271 25.5954 44.6901 25.6113L44.0975 25.643C44.1449 26.8237 44.1923 28.036 44.2476 29.2642C44.3029 30.6351 44.3582 31.8633 44.4135 32.9489C44.5005 34.7397 44.5953 36.7048 44.7059 38.8284C44.8165 40.952 44.8955 42.4893 44.9508 43.4401L44.9745 43.8363L38.7246 44.1295L38.5744 39.8902L38.5823 39.8823Z" fill="black"/>
<path id="Vector_10" d="M45.7568 21.2455C46.2466 21.2455 46.7049 21.2455 47.1395 21.2693C48.3484 21.3089 49.4862 21.4912 50.5687 21.8002C52.1174 22.236 53.2868 22.9254 54.069 23.8763C54.8591 24.8271 55.2779 25.9206 55.3332 27.1488C55.3964 28.5593 55.0646 29.7796 54.3297 30.8176C53.5949 31.8557 52.8364 32.6481 52.0463 33.1869V33.282C53.2552 34.6687 54.5352 36.0791 55.9021 37.5054C57.2612 38.9317 58.3278 40.1837 59.1022 41.2534L54.1638 43.4563C53.7292 42.8779 52.8838 41.8557 51.6117 40.3818C50.3475 38.908 48.4195 36.6259 45.8358 33.5276L45.899 33.1948C46.2545 33.0997 46.7286 32.8937 47.3054 32.5688C47.8822 32.2439 48.3642 31.8794 48.7356 31.4753C49.1227 31.0474 49.4072 30.6037 49.5968 30.1441C49.7865 29.6845 49.8655 29.0981 49.826 28.3929C49.7944 27.7194 49.5968 27.133 49.2255 26.6179C48.8541 26.1029 48.3642 25.7384 47.7479 25.5165C47.2422 25.3343 46.7286 25.2233 46.1992 25.1996C45.9227 25.1837 45.654 25.1837 45.3854 25.1837C45.1404 25.1837 44.9034 25.1837 44.6664 25.1996C44.374 25.2154 44.1449 25.2233 43.9948 25.2313C43.8367 25.2313 43.734 25.2471 43.6787 25.2471C43.7261 26.5546 43.7814 27.8937 43.8446 29.2645C43.8999 30.6354 43.9552 31.8636 44.0106 32.9571C44.0975 34.7479 44.1923 36.713 44.3029 38.8366C44.4135 40.9682 44.4925 42.5054 44.5478 43.4484L39.1038 43.7019C39.0722 42.8303 39.0248 41.5546 38.9695 39.8668C38.9063 38.179 38.7956 35.6829 38.6455 32.3786C38.606 31.4991 38.5428 30.2392 38.4638 28.5989C38.3848 26.9587 38.2505 24.629 38.0766 21.6021C38.3927 21.5862 39.0564 21.5466 40.0599 21.4753C41.0633 21.404 41.9957 21.3485 42.8649 21.3089C43.9157 21.2614 44.8718 21.2376 45.7489 21.2376M45.7568 20.4531C44.8797 20.4531 43.892 20.4769 42.8412 20.5244C41.9799 20.5641 41.0317 20.6195 40.0204 20.6908C39.0248 20.7622 38.369 20.8018 38.0529 20.8176L37.2549 20.8572L37.3023 21.6576C37.4761 24.6766 37.6025 27.0221 37.6895 28.6465C37.7685 30.2867 37.8317 31.5466 37.8712 32.4262C38.0213 35.6829 38.1319 38.1948 38.1951 39.9064C38.2584 41.5942 38.3058 42.8699 38.3295 43.7416L38.3532 44.5419L39.1512 44.5023L44.5953 44.2487L45.3933 44.2091L45.3459 43.4088C45.2906 42.4658 45.2116 40.9286 45.1009 38.8049C44.9903 36.6813 44.8955 34.7162 44.8086 32.9254C44.7612 31.8398 44.7059 30.6116 44.6427 29.2408C44.5953 28.1473 44.5557 27.0696 44.5083 26.0078H44.7138C44.935 25.984 45.1642 25.984 45.4012 25.984C45.654 25.984 45.9148 25.984 46.1755 25.9999C46.618 26.0236 47.0605 26.1108 47.4872 26.2693C47.9533 26.4436 48.3168 26.713 48.6012 27.0934C48.8778 27.4817 49.0279 27.9175 49.0516 28.4404C49.0753 29.0268 49.02 29.5023 48.8778 29.8509C48.7277 30.2233 48.4827 30.5878 48.1667 30.9444C47.8585 31.2772 47.4397 31.5942 46.9341 31.8794C46.2861 32.2439 45.9148 32.3786 45.7173 32.4341L45.2353 32.5609L45.1405 33.0443L45.0772 33.3771L45.0061 33.7495L45.2511 34.0427C47.8032 37.1092 49.7548 39.423 51.0349 40.9127C52.2833 42.3707 53.1287 43.385 53.5475 43.9476L53.9268 44.4468L54.5036 44.1932L59.4419 41.9904L60.3348 41.5942L59.758 40.8018C58.9678 39.7083 57.8696 38.4246 56.4868 36.9745C55.3332 35.7622 54.2112 34.5419 53.1603 33.3454C53.7924 32.7986 54.4009 32.1092 54.9856 31.2851C55.8152 30.1045 56.2024 28.7019 56.1313 27.1251C56.068 25.7225 55.5782 24.4626 54.6853 23.385C53.8004 22.3152 52.4887 21.5308 50.7899 21.0553C49.66 20.7305 48.4432 20.5403 47.1711 20.4927C46.7286 20.4769 46.2624 20.469 45.7647 20.469L45.7568 20.4531Z" fill="white"/>
</g>
<g id="Group_7">
<path id="Vector_11" d="M17.1933 43.9555C14.4358 43.9555 11.9389 43.6464 9.78185 43.0284C7.60107 42.4103 5.72054 41.4594 4.19558 40.1916C2.99457 39.217 2.05431 38.0521 1.39059 36.7289C0.726877 35.4056 0.39502 33.8683 0.39502 32.1647C0.39502 30.564 0.726877 29.0981 1.38269 27.8065C2.0385 26.5228 2.96297 25.3818 4.14817 24.4151C5.64943 23.1472 7.54576 22.1647 9.78975 21.507C12.01 20.8572 14.4121 20.5244 16.9168 20.5244H18.0625C18.0625 20.5244 18.2284 22.0062 18.3232 22.8541C18.418 23.6861 18.5366 24.5735 18.6946 25.4848L18.7736 25.9444H17.5489C16.6402 25.9444 15.5261 26.0474 14.2303 26.2455C12.9503 26.4436 11.8283 26.7447 10.8801 27.1488C9.61592 27.6956 8.61244 28.4087 7.89342 29.2804C7.1823 30.1361 6.84254 31.087 6.84254 32.1964C6.84254 33.3057 7.1744 34.2724 7.84601 35.1282C8.52553 35.984 9.529 36.7051 10.8248 37.2598C11.8046 37.7193 12.9582 38.0521 14.2619 38.2502C15.5815 38.4483 16.7193 38.5514 17.6358 38.5514H19.0976L19.0106 39.0189C18.9 39.5973 18.7973 40.2709 18.6867 41.0474C18.5761 41.8239 18.4734 42.6718 18.3785 43.591L18.339 43.9476H17.2091L17.1933 43.9555Z" fill="black"/>
<path id="Vector_12" d="M17.707 20.9286C17.7623 21.4041 17.8334 22.0617 17.9282 22.9017C18.023 23.7416 18.1415 24.6291 18.2996 25.5562H17.541C16.6087 25.5562 15.4788 25.6592 14.1672 25.8652C12.8476 26.0713 11.7019 26.3803 10.7222 26.8003C9.39473 27.3708 8.34385 28.1236 7.58532 29.0427C6.81888 29.9619 6.43962 31.0158 6.43962 32.2123C6.43962 33.4088 6.80308 34.4706 7.53001 35.3898C8.25693 36.309 9.29991 37.0538 10.6589 37.6402C11.6703 38.1156 12.8476 38.4564 14.1909 38.6545C15.5341 38.8605 16.6798 38.9635 17.628 38.9635H18.6156C18.505 39.5499 18.3944 40.2313 18.2838 41.0079C18.1732 41.7923 18.0704 42.6402 17.9677 43.5673H17.1934C14.4595 43.5673 12.0259 43.2662 9.88462 42.656C7.75125 42.0459 5.93393 41.1267 4.44057 39.8985C3.27907 38.9476 2.37831 37.8383 1.7383 36.5705C1.09829 35.2947 0.782236 33.8367 0.782236 32.1806C0.782236 30.6354 1.09829 29.2488 1.7304 28.0047C2.36251 26.7686 3.24746 25.6751 4.39316 24.74C5.86282 23.496 7.69594 22.553 9.89252 21.9033C12.0891 21.2614 14.4279 20.9365 16.9089 20.9365H17.6991M18.4102 20.1362H16.9168C14.3726 20.1362 11.9311 20.469 9.67918 21.1346C7.38778 21.8082 5.43614 22.8145 3.88747 24.122C2.67856 25.1125 1.7146 26.301 1.03508 27.6323C0.34766 28.9793 0 30.5007 0 32.1648C0 33.9318 0.34766 35.5324 1.04298 36.9112C1.7304 38.282 2.70227 39.4865 3.95069 40.5007C5.51516 41.7923 7.44309 42.7749 9.67918 43.4088C11.8758 44.0348 14.4042 44.3438 17.2013 44.3438H18.6867L18.7658 43.6386C18.8606 42.7274 18.9633 41.8716 19.0739 41.103C19.1845 40.3343 19.2951 39.6529 19.3979 39.0903L19.5717 38.1552H17.628C16.7272 38.1552 15.6131 38.0522 14.3094 37.8541C13.0452 37.664 11.9311 37.3391 10.9908 36.9033C9.73449 36.3644 8.78633 35.683 8.14631 34.8827C7.53001 34.1061 7.22975 33.2266 7.22975 32.1965C7.22975 31.1663 7.54581 30.3185 8.19372 29.534C8.87324 28.7099 9.82931 28.0364 11.0382 27.5134C11.9469 27.1251 13.0452 26.824 14.2857 26.6339C15.5578 26.4358 16.6561 26.3407 17.541 26.3407H19.2319L19.0818 25.4215C18.9317 24.5182 18.8053 23.6386 18.7183 22.8145C18.6235 21.9667 18.5524 21.309 18.4971 20.8335L18.4181 20.1362H18.4102Z" fill="white"/>
</g>
<path id="Vector_13" d="M95.1876 30.5082C95.1876 37.3386 90.3046 43.0755 83.6595 43.0755C78.5078 43.0755 75.1418 39.6682 75.1418 34.2403C75.1418 27.7665 79.9222 21.5938 86.7016 21.5938C91.956 21.5938 95.1876 25.112 95.1876 30.5161V30.5082ZM79.2111 34.9218C79.2111 39.0185 80.5938 41.7681 83.8887 41.7681C88.5663 41.7681 91.1105 35.3101 91.1105 29.8426C91.1105 25.5399 89.9095 22.8933 86.4961 22.8933C82.1504 22.8933 79.2111 29.0106 79.2111 34.9218Z" fill="white"/>
</g>
</g>
</g>
</svg>
