<svg width="254" height="391" viewBox="0 0 254 391" fill="none" xmlns="http://www.w3.org/2000/svg">
<rect width="254" height="391" rx="20" fill="url(#paint0_linear_37_790)"/>
<g filter="url(#filter0_d_37_790)">
<circle cx="127.5" cy="196.5" r="47.5" fill="#D5DDFF"/>
<circle cx="127.5" cy="196.5" r="47" stroke="white"/>
</g>
<g clip-path="url(#clip0_37_790)">
<path d="M220.682 356.296C223.708 356.296 226.161 354.035 226.161 351.246C226.161 348.457 223.708 346.197 220.682 346.197C217.656 346.197 215.202 348.457 215.202 351.246C215.202 354.035 217.656 356.296 220.682 356.296Z" stroke="white"/>
<path d="M212.428 369.902C211.61 369.902 210.913 369.351 210.737 368.558L207.23 353.126C207.019 352.198 207.606 351.273 208.541 351.067L217.406 349.082C217.531 349.055 217.66 349.04 217.789 349.04C218.592 349.04 219.304 349.607 219.48 350.384L222.987 365.816C223.198 366.744 222.611 367.669 221.676 367.878L212.811 369.863C212.686 369.89 212.557 369.906 212.428 369.906V369.902Z" fill="white"/>
<path d="M217.785 349.234C218.49 349.234 219.124 349.716 219.288 350.426L222.795 365.859C222.983 366.682 222.462 367.502 221.633 367.688L212.768 369.673C212.655 369.7 212.541 369.712 212.428 369.712C211.723 369.712 211.089 369.23 210.925 368.519L207.418 353.087C207.23 352.264 207.751 351.444 208.58 351.258L217.445 349.273C217.558 349.246 217.672 349.234 217.785 349.234ZM217.785 348.845C217.645 348.845 217.5 348.861 217.359 348.892L208.494 350.877C207.989 350.99 207.563 351.289 207.285 351.724C207.011 352.155 206.921 352.671 207.034 353.169L210.541 368.601C210.741 369.483 211.516 370.096 212.424 370.096C212.565 370.096 212.709 370.081 212.85 370.05L221.715 368.065C222.756 367.832 223.41 366.802 223.175 365.773L219.668 350.341C219.468 349.459 218.693 348.845 217.785 348.845Z" fill="url(#paint1_linear_37_790)"/>
<path d="M228.45 370.516C228.356 370.516 228.259 370.508 228.161 370.493L219.198 369.009C218.255 368.853 217.613 367.964 217.77 367.024L220.396 351.421C220.537 350.586 221.257 349.98 222.106 349.98C222.2 349.98 222.298 349.988 222.396 350.003L231.358 351.487C231.816 351.565 232.215 351.809 232.485 352.186C232.756 352.563 232.861 353.017 232.783 353.472L230.157 369.075C230.016 369.91 229.296 370.516 228.446 370.516H228.45Z" fill="white"/>
<path d="M222.11 350.174C222.196 350.174 222.278 350.182 222.365 350.193L231.327 351.677C232.169 351.817 232.732 352.606 232.595 353.437L229.969 369.04C229.844 369.79 229.19 370.318 228.45 370.318C228.364 370.318 228.282 370.31 228.196 370.299L219.234 368.815C218.396 368.675 217.828 367.886 217.965 367.055L220.592 351.452C220.717 350.702 221.37 350.174 222.11 350.174ZM222.11 349.786C221.163 349.786 220.361 350.458 220.204 351.386L217.578 366.989C217.402 368.034 218.114 369.021 219.167 369.195L228.13 370.679C228.235 370.699 228.345 370.706 228.45 370.706C229.398 370.706 230.2 370.034 230.356 369.106L232.983 353.503C233.159 352.458 232.446 351.471 231.394 351.297L222.431 349.813C222.325 349.793 222.216 349.786 222.11 349.786Z" fill="url(#paint2_linear_37_790)"/>
<path d="M218.603 361.539C218.603 362.487 218.369 363.322 217.899 364.041C217.429 364.759 216.819 365.334 216.067 365.773C215.414 366.158 214.682 366.449 213.868 366.647C213.054 366.845 212.103 366.946 211.022 366.946C210.518 366.946 209.962 366.938 209.355 366.927C208.749 366.911 208.412 366.907 208.342 366.907C208.342 366.853 208.345 366.282 208.357 365.19C208.369 364.099 208.373 362.829 208.373 361.372C208.373 360.766 208.373 360.013 208.365 359.108C208.361 358.203 208.353 357.189 208.342 356.066C208.428 356.066 208.792 356.066 209.426 356.059C210.06 356.055 210.506 356.051 210.764 356.051C211.954 356.051 212.995 356.152 213.891 356.35C214.788 356.548 215.574 356.866 216.259 357.298C217.054 357.799 217.641 358.405 218.028 359.112C218.416 359.819 218.607 360.63 218.607 361.547L218.603 361.539ZM215.829 361.454C215.829 360.914 215.707 360.421 215.469 359.974C215.23 359.527 214.854 359.15 214.341 358.84C213.883 358.564 213.386 358.374 212.842 358.269C212.302 358.164 211.79 358.109 211.304 358.109H211.011C211.007 358.661 211.003 359.182 211.003 359.679V362.266C211.003 362.891 211.003 363.749 211.011 364.837H211.281C211.77 364.837 212.291 364.775 212.835 364.654C213.379 364.534 213.833 364.371 214.185 364.165C214.733 363.847 215.144 363.462 215.418 363.011C215.688 362.561 215.825 362.04 215.825 361.446L215.829 361.454Z" fill="url(#paint3_linear_37_790)"/>
<path d="M189.074 366.418L189.164 366.224C189.313 365.901 189.876 364.616 190.863 362.367C191.849 360.118 192.792 357.966 193.688 355.903L193.739 355.787H196.765L196.816 355.903C197.751 358.071 198.71 360.285 199.696 362.545C200.682 364.806 201.211 366.018 201.281 366.185L201.363 366.379L198.314 367.397L198.256 367.206C198.201 367.028 198.056 366.624 197.841 366.041C197.63 365.47 197.379 364.825 197.097 364.118H193.207C192.913 364.833 192.659 365.486 192.448 366.057C192.225 366.655 192.088 367.039 192.041 367.203L191.982 367.397L189.082 366.418H189.074ZM196.307 362.056C196.123 361.57 195.931 361.05 195.72 360.49C195.528 359.978 195.336 359.473 195.148 358.976C194.98 359.411 194.788 359.916 194.577 360.487C194.342 361.12 194.146 361.644 193.982 362.056H196.303H196.307Z" fill="white"/>
<path d="M196.635 355.981C197.571 358.152 198.53 360.366 199.516 362.623C200.502 364.88 201.027 366.096 201.097 366.263L198.436 367.148C198.381 366.97 198.24 366.577 198.017 365.975C197.794 365.369 197.528 364.689 197.222 363.928H193.07C192.753 364.701 192.483 365.389 192.256 365.995C192.033 366.601 191.896 366.985 191.845 367.152L189.34 366.305C189.489 365.983 190.052 364.697 191.043 362.448C192.033 360.199 192.972 358.047 193.868 355.985H196.635M193.7 362.25H196.588V362.242C196.377 361.691 196.15 361.085 195.904 360.425C195.657 359.764 195.41 359.112 195.164 358.475H195.132C194.925 358.999 194.678 359.648 194.397 360.421C194.115 361.194 193.88 361.8 193.704 362.242V362.25M196.894 355.593H193.614L193.512 355.826C192.616 357.888 191.673 360.04 190.686 362.289C189.704 364.522 189.133 365.82 188.988 366.142L188.812 366.531L189.219 366.667L191.724 367.513L192.107 367.642L192.225 367.253C192.272 367.094 192.409 366.713 192.628 366.119C192.827 365.583 193.066 364.973 193.336 364.309H196.96C197.222 364.965 197.457 365.567 197.653 366.103C197.923 366.841 198.029 367.14 198.068 367.261L198.189 367.638L198.569 367.513L201.23 366.628L201.629 366.496L201.465 366.111C201.395 365.944 200.905 364.822 199.88 362.468C198.901 360.219 197.931 357.985 196.999 355.826L196.898 355.589L196.894 355.593ZM194.271 361.862C194.412 361.493 194.577 361.058 194.765 360.553C194.902 360.184 195.031 359.838 195.152 359.523C195.281 359.865 195.41 360.211 195.543 360.561C195.716 361.023 195.876 361.458 196.033 361.866H194.279L194.271 361.862Z" fill="url(#paint4_linear_37_790)"/>
<path d="M200.111 365.257C200.08 364.429 200.025 363.206 199.95 361.59C199.931 361.159 199.9 360.541 199.86 359.737C199.821 358.933 199.755 357.791 199.669 356.311L199.657 356.117L199.853 356.109C200.009 356.101 200.334 356.082 200.831 356.047C201.328 356.012 201.794 355.985 202.224 355.965C202.745 355.942 203.23 355.93 203.665 355.93C203.907 355.93 204.138 355.93 204.353 355.942C204.964 355.965 205.551 356.055 206.099 356.21C206.897 356.431 207.516 356.797 207.931 357.29C208.345 357.787 208.572 358.366 208.604 359.011C208.639 359.741 208.459 360.39 208.071 360.929C207.743 361.388 207.398 361.757 207.046 362.029C207.606 362.662 208.208 363.314 208.835 363.967C209.512 364.67 210.052 365.295 210.435 365.824L210.576 366.018L207.77 367.257L207.676 367.133C207.465 366.857 207.042 366.352 206.42 365.637C205.786 364.907 204.823 363.777 203.559 362.273L203.5 362.204L203.575 361.831L203.692 361.8C203.852 361.757 204.072 361.66 204.342 361.508C204.612 361.361 204.831 361.19 205.003 361.011C205.179 360.821 205.308 360.623 205.391 360.417C205.473 360.219 205.508 359.958 205.492 359.644C205.477 359.352 205.394 359.1 205.23 358.879C205.07 358.657 204.858 358.502 204.588 358.405C204.357 358.319 204.119 358.273 203.88 358.261C203.747 358.253 203.618 358.253 203.488 358.253C203.371 358.253 203.254 358.253 203.136 358.261L202.843 358.277C202.866 358.855 202.89 359.45 202.917 360.052C202.944 360.724 202.972 361.326 202.999 361.858C203.042 362.736 203.089 363.699 203.144 364.74C203.199 365.781 203.238 366.535 203.265 367.001L203.277 367.195L200.181 367.339L200.107 365.26L200.111 365.257Z" fill="white"/>
<path d="M203.665 356.121C203.907 356.121 204.134 356.121 204.349 356.133C204.948 356.152 205.512 356.241 206.048 356.393C206.815 356.606 207.394 356.944 207.782 357.41C208.173 357.877 208.381 358.413 208.408 359.015C208.439 359.706 208.275 360.304 207.911 360.813C207.547 361.322 207.171 361.71 206.78 361.974V362.021C207.379 362.701 208.013 363.392 208.69 364.091C209.363 364.791 209.891 365.404 210.275 365.929L207.829 367.008C207.614 366.725 207.195 366.224 206.565 365.501C205.938 364.779 204.984 363.66 203.704 362.141L203.735 361.978C203.911 361.932 204.146 361.831 204.432 361.671C204.717 361.512 204.956 361.334 205.14 361.135C205.332 360.926 205.473 360.708 205.567 360.483C205.661 360.258 205.7 359.97 205.68 359.624C205.665 359.294 205.567 359.007 205.383 358.754C205.199 358.502 204.956 358.323 204.651 358.214C204.4 358.125 204.146 358.071 203.884 358.059C203.747 358.051 203.614 358.051 203.481 358.051C203.359 358.051 203.242 358.051 203.124 358.059C202.98 358.067 202.866 358.071 202.792 358.075C202.714 358.075 202.663 358.082 202.635 358.082C202.659 358.723 202.686 359.38 202.717 360.052C202.745 360.724 202.772 361.326 202.8 361.862C202.843 362.74 202.89 363.703 202.944 364.744C202.999 365.789 203.038 366.542 203.066 367.005L200.369 367.129C200.354 366.702 200.33 366.076 200.303 365.249C200.271 364.422 200.217 363.198 200.142 361.578C200.123 361.147 200.091 360.53 200.052 359.725C200.013 358.921 199.947 357.779 199.86 356.296C200.017 356.288 200.346 356.268 200.843 356.233C201.34 356.199 201.802 356.171 202.232 356.152C202.753 356.129 203.226 356.117 203.661 356.117M203.665 355.732C203.23 355.732 202.741 355.744 202.22 355.767C201.794 355.787 201.324 355.814 200.823 355.849C200.33 355.884 200.005 355.903 199.849 355.911L199.453 355.931L199.477 356.323C199.563 357.803 199.626 358.952 199.669 359.749C199.708 360.553 199.739 361.17 199.759 361.602C199.833 363.198 199.888 364.429 199.919 365.268C199.95 366.096 199.974 366.721 199.986 367.148L199.997 367.541L200.393 367.521L203.089 367.397L203.485 367.377L203.461 366.985C203.434 366.523 203.395 365.769 203.34 364.728C203.285 363.687 203.238 362.724 203.195 361.846C203.171 361.314 203.144 360.712 203.113 360.04C203.089 359.504 203.07 358.976 203.046 358.455H203.148C203.258 358.444 203.371 358.444 203.488 358.444C203.614 358.444 203.743 358.444 203.872 358.451C204.091 358.463 204.31 358.506 204.522 358.583C204.753 358.669 204.933 358.801 205.074 358.987C205.211 359.178 205.285 359.391 205.297 359.648C205.308 359.935 205.281 360.168 205.211 360.339C205.136 360.522 205.015 360.7 204.858 360.875C204.706 361.038 204.498 361.194 204.248 361.334C203.927 361.512 203.743 361.578 203.645 361.605L203.406 361.668L203.359 361.905L203.328 362.068L203.293 362.25L203.414 362.394C204.678 363.897 205.645 365.031 206.279 365.762C206.897 366.476 207.316 366.974 207.524 367.249L207.711 367.494L207.997 367.37L210.443 366.29L210.885 366.096L210.6 365.707C210.208 365.171 209.664 364.542 208.979 363.831C208.408 363.237 207.852 362.639 207.332 362.052C207.645 361.784 207.946 361.446 208.236 361.042C208.647 360.463 208.839 359.776 208.803 359.003C208.772 358.315 208.529 357.698 208.087 357.17C207.649 356.645 206.999 356.261 206.158 356.028C205.598 355.868 204.995 355.775 204.365 355.752C204.146 355.744 203.915 355.74 203.668 355.74L203.665 355.732Z" fill="url(#paint5_linear_37_790)"/>
<path d="M189.516 367.253C188.15 367.253 186.914 367.102 185.845 366.799C184.765 366.496 183.834 366.03 183.078 365.408C182.483 364.93 182.018 364.359 181.689 363.711C181.36 363.062 181.196 362.308 181.196 361.473C181.196 360.689 181.36 359.97 181.685 359.337C182.01 358.708 182.468 358.148 183.055 357.675C183.798 357.053 184.738 356.571 185.849 356.249C186.949 355.93 188.139 355.767 189.379 355.767H189.947C189.947 355.767 190.029 356.494 190.076 356.909C190.123 357.317 190.182 357.752 190.26 358.199L190.299 358.424H189.692C189.242 358.424 188.691 358.475 188.049 358.572C187.415 358.669 186.859 358.816 186.389 359.015C185.763 359.283 185.266 359.632 184.91 360.059C184.558 360.479 184.389 360.945 184.389 361.489C184.389 362.033 184.554 362.507 184.886 362.926C185.223 363.346 185.72 363.699 186.362 363.971C186.847 364.196 187.419 364.359 188.064 364.456C188.718 364.554 189.282 364.604 189.736 364.604H190.46L190.417 364.833C190.362 365.117 190.311 365.447 190.256 365.828C190.201 366.208 190.15 366.624 190.103 367.074L190.084 367.249H189.524L189.516 367.253Z" fill="white"/>
<path d="M189.771 355.965C189.798 356.199 189.833 356.521 189.88 356.933C189.927 357.344 189.986 357.779 190.064 358.234H189.689C189.227 358.234 188.667 358.284 188.017 358.385C187.364 358.486 186.796 358.638 186.311 358.844C185.653 359.123 185.133 359.492 184.757 359.943C184.378 360.394 184.19 360.91 184.19 361.497C184.19 362.083 184.37 362.604 184.73 363.054C185.09 363.505 185.606 363.87 186.28 364.157C186.781 364.39 187.364 364.557 188.029 364.655C188.694 364.756 189.262 364.806 189.732 364.806H190.221C190.166 365.094 190.111 365.428 190.056 365.808C190.002 366.193 189.951 366.608 189.9 367.063H189.516C188.162 367.063 186.957 366.915 185.896 366.616C184.839 366.317 183.939 365.866 183.2 365.264C182.624 364.798 182.178 364.255 181.861 363.633C181.544 363.008 181.387 362.293 181.387 361.481C181.387 360.724 181.544 360.044 181.857 359.434C182.17 358.828 182.609 358.292 183.176 357.834C183.904 357.224 184.812 356.762 185.9 356.443C186.988 356.129 188.147 355.969 189.375 355.969H189.767M190.119 355.577H189.379C188.119 355.577 186.91 355.74 185.794 356.066C184.659 356.397 183.693 356.89 182.926 357.531C182.327 358.016 181.849 358.599 181.513 359.252C181.172 359.912 181 360.658 181 361.473C181 362.34 181.172 363.124 181.517 363.8C181.857 364.472 182.339 365.062 182.957 365.56C183.732 366.193 184.687 366.674 185.794 366.985C186.882 367.292 188.135 367.444 189.52 367.444H190.256L190.295 367.098C190.342 366.651 190.393 366.232 190.448 365.855C190.503 365.478 190.557 365.144 190.608 364.868L190.694 364.41H189.732C189.285 364.41 188.734 364.359 188.088 364.262C187.462 364.169 186.91 364.01 186.444 363.796C185.822 363.532 185.352 363.198 185.035 362.806C184.73 362.425 184.581 361.994 184.581 361.489C184.581 360.984 184.738 360.568 185.059 360.184C185.395 359.78 185.869 359.45 186.468 359.193C186.918 359.003 187.462 358.855 188.076 358.762C188.706 358.665 189.25 358.618 189.689 358.618H190.526L190.452 358.168C190.377 357.725 190.315 357.294 190.272 356.89C190.225 356.474 190.19 356.152 190.162 355.919L190.123 355.577H190.119Z" fill="url(#paint6_linear_37_790)"/>
<path d="M228.149 360.661C228.149 364.01 225.73 366.822 222.439 366.822C219.887 366.822 218.22 365.152 218.22 362.491C218.22 359.317 220.588 356.292 223.946 356.292C226.548 356.292 228.149 358.016 228.149 360.665V360.661ZM220.235 362.825C220.235 364.833 220.92 366.181 222.552 366.181C224.869 366.181 226.13 363.015 226.13 360.335C226.13 358.226 225.535 356.929 223.844 356.929C221.691 356.929 220.235 359.927 220.235 362.825Z" fill="url(#paint7_linear_37_790)"/>
</g>
<rect x="10.5" y="10.5" width="233" height="370" rx="19.5" stroke="white"/>
<defs>
<filter id="filter0_d_37_790" x="76" y="149" width="103" height="103" filterUnits="userSpaceOnUse" color-interpolation-filters="sRGB">
<feFlood flood-opacity="0" result="BackgroundImageFix"/>
<feColorMatrix in="SourceAlpha" type="matrix" values="0 0 0 0 0 0 0 0 0 0 0 0 0 0 0 0 0 0 127 0" result="hardAlpha"/>
<feOffset dy="4"/>
<feGaussianBlur stdDeviation="2"/>
<feComposite in2="hardAlpha" operator="out"/>
<feColorMatrix type="matrix" values="0 0 0 0 0 0 0 0 0 0 0 0 0 0 0 0 0 0 0.05 0"/>
<feBlend mode="normal" in2="BackgroundImageFix" result="effect1_dropShadow_37_790"/>
<feBlend mode="normal" in="SourceGraphic" in2="effect1_dropShadow_37_790" result="shape"/>
</filter>
<linearGradient id="paint0_linear_37_790" x1="0" y1="195.5" x2="254" y2="195.5" gradientUnits="userSpaceOnUse">
<stop stop-color="#FCFFE1"/>
<stop offset="0.33" stop-color="#FFE7E7"/>
<stop offset="0.66" stop-color="#EFE5FF"/>
<stop offset="1" stop-color="#D5DDFF"/>
</linearGradient>
<linearGradient id="paint1_linear_37_790" x1="206.986" y1="359.471" x2="223.222" y2="359.471" gradientUnits="userSpaceOnUse">
<stop stop-color="#FCFFE1"/>
<stop offset="0.33" stop-color="#FFE7E7"/>
<stop offset="0.66" stop-color="#EFE5FF"/>
<stop offset="1" stop-color="#D5DDFF"/>
</linearGradient>
<linearGradient id="paint2_linear_37_790" x1="217.551" y1="360.246" x2="233.009" y2="360.246" gradientUnits="userSpaceOnUse">
<stop stop-color="#FCFFE1"/>
<stop offset="0.33" stop-color="#FFE7E7"/>
<stop offset="0.66" stop-color="#EFE5FF"/>
<stop offset="1" stop-color="#D5DDFF"/>
</linearGradient>
<linearGradient id="paint3_linear_37_790" x1="208.342" y1="361.498" x2="218.607" y2="361.498" gradientUnits="userSpaceOnUse">
<stop stop-color="#FCFFE1"/>
<stop offset="0.33" stop-color="#FFE7E7"/>
<stop offset="0.66" stop-color="#EFE5FF"/>
<stop offset="1" stop-color="#D5DDFF"/>
</linearGradient>
<linearGradient id="paint4_linear_37_790" x1="188.812" y1="361.615" x2="201.629" y2="361.615" gradientUnits="userSpaceOnUse">
<stop stop-color="#FCFFE1"/>
<stop offset="0.33" stop-color="#FFE7E7"/>
<stop offset="0.66" stop-color="#EFE5FF"/>
<stop offset="1" stop-color="#D5DDFF"/>
</linearGradient>
<linearGradient id="paint5_linear_37_790" x1="199.453" y1="361.637" x2="210.885" y2="361.637" gradientUnits="userSpaceOnUse">
<stop stop-color="#FCFFE1"/>
<stop offset="0.33" stop-color="#FFE7E7"/>
<stop offset="0.66" stop-color="#EFE5FF"/>
<stop offset="1" stop-color="#D5DDFF"/>
</linearGradient>
<linearGradient id="paint6_linear_37_790" x1="181" y1="361.51" x2="190.694" y2="361.51" gradientUnits="userSpaceOnUse">
<stop stop-color="#FCFFE1"/>
<stop offset="0.33" stop-color="#FFE7E7"/>
<stop offset="0.66" stop-color="#EFE5FF"/>
<stop offset="1" stop-color="#D5DDFF"/>
</linearGradient>
<linearGradient id="paint7_linear_37_790" x1="218.22" y1="361.557" x2="228.149" y2="361.557" gradientUnits="userSpaceOnUse">
<stop stop-color="#FCFFE1"/>
<stop offset="0.33" stop-color="#FFE7E7"/>
<stop offset="0.66" stop-color="#EFE5FF"/>
<stop offset="1" stop-color="#D5DDFF"/>
</linearGradient>
<clipPath id="clip0_37_790">
<rect width="53" height="25" fill="white" transform="translate(181 346)"/>
</clipPath>
</defs>
</svg>
