<svg width="61" height="61" viewBox="0 0 61 61" fill="none" xmlns="http://www.w3.org/2000/svg">
<circle cx="30.5" cy="30.5" r="30.5" fill="white"/>
<path d="M30.375 34.4712V23.6588L27.4625 26.5712L26.5775 25.6737L31 21.25L35.4237 25.6737L34.5388 26.5725L31.625 23.6588V34.4712H30.375ZM24.27 38.75C23.6942 38.75 23.2137 38.5575 22.8287 38.1725C22.4437 37.7875 22.2508 37.3067 22.25 36.73V33.7013H23.5V36.73C23.5 36.9225 23.58 37.0992 23.74 37.26C23.9 37.4208 24.0762 37.5008 24.2687 37.5H37.7313C37.9229 37.5 38.0992 37.42 38.26 37.26C38.4208 37.1 38.5008 36.9233 38.5 36.73V33.7013H39.75V36.73C39.75 37.3058 39.5575 37.7863 39.1725 38.1713C38.7875 38.5563 38.3067 38.7492 37.73 38.75H24.27Z" fill="black"/>
</svg>
