<svg width="107" height="28" viewBox="0 0 107 28" fill="none" xmlns="http://www.w3.org/2000/svg">
<path d="M13.3906 3.375C15.3594 3.375 16.7448 3.83854 17.5469 4.76562V5.03125C17.5469 5.33333 16.901 5.79688 15.6094 6.42188C14.3385 6.23438 13.3229 6.14062 12.5625 6.14062H11.4531C7.76562 7.85938 5.92188 10.0729 5.92188 12.7812V15.2812C6.30729 19.3333 7.875 21.3594 10.625 21.3594C11.5833 21.5469 12.6875 21.6406 13.9375 21.6406C15.7604 20.901 16.9635 20.5312 17.5469 20.5312H18.6406V21.6406C18.6406 22.9323 16.5208 23.6719 12.2812 23.8594H10.0625C3.97917 23.8594 0.9375 20.5365 0.9375 13.8906V13.0625C0.9375 7.98958 4.90625 4.76042 12.8438 3.375H13.3906ZM35.2344 0.609375C36.3698 0.609375 38.0312 4.29688 40.2188 11.6719C40.9583 12.7135 41.5104 15.1146 41.875 18.875C41.875 20.4062 41.3229 21.6042 40.2188 22.4688C39.2917 22.6042 38.8281 22.8802 38.8281 23.2969H37.7188C37.3958 23.2969 37.026 22.4688 36.6094 20.8125L36.8906 20.25C36.7031 19.9271 36.6094 19.5625 36.6094 19.1562H36.8906C36.7031 18.8333 36.5208 18 36.3438 16.6562H34.6875C33.4792 16.6562 31.6302 16.75 29.1406 16.9375V16.6562C27.9844 16.6562 26.8802 18.6875 25.8281 22.75C25.4531 23.1146 24.1615 23.6667 21.9531 24.4062L21.125 23.2969C20.9375 23.2969 20.8438 23.2083 20.8438 23.0312C25.9583 8.27083 30.1094 0.890625 33.2969 0.890625C34.026 0.703125 34.6719 0.609375 35.2344 0.609375ZM32.75 6.70312C30.5312 11.1927 29.4219 13.6823 29.4219 14.1719V14.4375H35.7812V14.1719C34.6458 9.19271 33.724 6.70312 33.0156 6.70312H32.75ZM53.4688 0.609375C58.5104 0.609375 62.2031 2.45312 64.5469 6.14062C64.724 6.46354 64.8125 6.83333 64.8125 7.25C64.8125 9.51042 61.125 11.6302 53.75 13.6094V13.8906C55.7604 16.8281 58.526 19.9635 62.0469 23.2969V24.6875C61.0469 24.6875 60.125 24.8698 59.2812 25.2344C58.1562 25.026 56.6823 24.0104 54.8594 22.1875C53.8698 20.8958 52.2083 19.0521 49.875 16.6562V16.375H49.3125L49.0469 18.3125V20.8125C49.0469 21.0625 49.2292 22.5365 49.5938 25.2344V26.0625H49.3125L46 26.3438C44.7083 24.2917 44.0625 22.5417 44.0625 21.0938H44.3438L44.0625 20.5312V18.0469C44.0625 15.1823 45.2604 10.9375 47.6562 5.3125C48.9271 4.57292 50.0365 4.20312 50.9844 4.20312H51.25C51.5208 4.20312 51.8021 4.47917 52.0938 5.03125C52.0938 5.57292 51.5365 7.60417 50.4219 11.125C50.6927 11.3125 51.7083 11.4948 53.4688 11.6719C56.5104 10.5365 58.5417 9.24479 59.5625 7.79688V6.96875C57.2917 4.20833 54.8906 2.82812 52.3594 2.82812C51.3906 3.00521 50.4688 3.09375 49.5938 3.09375L49.3125 1.71875C49.8646 1.22917 51.25 0.859375 53.4688 0.609375ZM74.4688 3.09375C74.5625 3.09375 74.9323 3.1875 75.5781 3.375C75.5781 3.69792 75.3958 4.25 75.0312 5.03125C79.0729 5.03125 82.1146 7.24479 84.1562 11.6719C84.5208 11.7344 84.7031 11.9219 84.7031 12.2344V14.1719C84.7031 17.0469 82.401 20.8281 77.7969 25.5156C77.099 26.1094 75.25 26.5677 72.25 26.8906V27.4531H70.875L69.4844 27.7344C69.4844 27.3594 69.3021 27.1719 68.9375 27.1719H68.6562L68.1094 27.4531C68.1094 27.1302 67.8333 26.6667 67.2812 26.0625V25.2344C67.2812 24.2656 67.1875 23.4375 67 22.75C67.8958 11.125 68.8177 5.3125 69.7656 5.3125C69.7656 3.83333 71.0573 3.09375 73.6406 3.09375H74.4688ZM72.25 20.25C72.25 20.4375 72.3438 20.5312 72.5312 20.5312L72.25 21.9219L72.5312 24.6875H72.8125C76.9792 20.1979 79.2865 16.599 79.7344 13.8906C78.0677 9.82812 76.3125 7.79688 74.4688 7.79688C73.8542 7.79688 73.1146 11.9479 72.25 20.25ZM100.75 3.65625C104.802 5.92708 106.828 9.33854 106.828 13.8906C106.828 18.5885 103.786 22 97.7031 24.125C95.7969 24.125 94.3177 24.2188 93.2656 24.4062C89.026 23.5312 86.9062 21.4115 86.9062 18.0469H87.1875L86.9062 17.4844V16.1094C86.9062 15.9219 87 15.8281 87.1875 15.8281L86.9062 15.2812V14.7188C86.9062 14.5312 87 14.4375 87.1875 14.4375L86.9062 13.8906V13.6094H87.4531C87.276 13.2552 87.1875 12.9792 87.1875 12.7812C89.0833 6.69792 92.4948 3.65625 97.4219 3.65625H100.75ZM91.3281 16.375C91.3281 19.3125 92.4375 21.25 94.6562 22.1875H94.9375C99.3646 20.3438 101.578 17.5781 101.578 13.8906H101.844C101.844 10.1094 100.646 7.89583 98.25 7.25C97.6458 6.69792 97.1875 6.42188 96.875 6.42188C93.1771 9.15104 91.3281 12.4688 91.3281 16.375Z" fill="black"/>
</svg>
