<svg width="61" height="61" viewBox="0 0 61 61" fill="none" xmlns="http://www.w3.org/2000/svg">
<circle cx="30.5" cy="30.5" r="30.5" fill="white"/>
<g clip-path="url(#clip0_89_8634)">
<path d="M31 47.5C40.665 47.5 48.5 39.665 48.5 30C48.5 20.335 40.665 12.5 31 12.5C21.335 12.5 13.5 20.335 13.5 30C13.5 39.665 21.335 47.5 31 47.5Z" fill="#FFC84D"/>
<path d="M20.0029 30.022C19.3349 29.862 18.6999 30.427 18.7859 31.109C19.5539 37.174 24.7269 41.864 30.9999 41.864C37.2729 41.864 42.4459 37.173 43.2139 31.109C43.2999 30.427 42.6649 29.862 41.9969 30.022C38.7679 30.796 35.0119 31.241 30.9999 31.241C26.9879 31.241 23.2319 30.796 20.0029 30.022Z" fill="#FF6D00"/>
<path d="M30.9381 34.203C35.0401 34.203 38.8351 32.654 41.9401 30.029C38.7221 30.796 34.9911 31.24 31.0001 31.24C26.9411 31.24 23.1451 30.784 19.8911 29.994C23.0041 32.641 26.8171 34.203 30.9381 34.203Z" fill="white"/>
<path d="M29.03 24.807C29.03 25.873 26.394 27.267 23.929 28.06C23.589 28.169 23.289 27.842 23.508 27.599L25.182 25.75C25.687 25.192 25.687 24.422 25.182 23.863L23.508 22.014C23.289 21.772 23.589 21.444 23.929 21.553C26.394 22.346 29.03 23.74 29.03 24.806V24.807Z" fill="black"/>
<path d="M32.97 24.807C32.97 25.873 35.606 27.267 38.071 28.06C38.411 28.169 38.711 27.842 38.492 27.599L36.818 25.75C36.313 25.192 36.313 24.422 36.818 23.863L38.492 22.014C38.711 21.772 38.411 21.444 38.071 21.553C35.606 22.346 32.97 23.74 32.97 24.806V24.807Z" fill="black"/>
</g>
<defs>
<clipPath id="clip0_89_8634">
<rect width="40" height="40" fill="white" transform="translate(11 10)"/>
</clipPath>
</defs>
</svg>
