<svg width="50" height="57" viewBox="0 0 50 57" fill="none" xmlns="http://www.w3.org/2000/svg">
<g id="Group">
<path id="Vector" d="M25 56.534C11.1929 56.534 0 45.3802 0 31.6214C0 17.8625 11.1929 6.70874 25 6.70874C38.8071 6.70874 50 17.8625 50 31.6214C50 45.3802 38.8071 56.534 25 56.534Z" fill="white" fill-opacity="0.5"/>
<path id="Vector_2" d="M29.5938 14.0803C29.5938 14.0803 13.2946 7.42952 16.5848 2.64274C19.875 -2.14405 27.9866 4.52453 22.9241 9.93857C17.8616 15.3526 6.63839 12.8124 4.33928 10.2678" stroke="black" stroke-linecap="round" stroke-linejoin="round"/>
<path id="Vector_3" d="M38.5222 22.9777C38.5222 22.9777 24.9999 19.1651 10.2053 22.9777" stroke="black" stroke-linecap="round" stroke-linejoin="round"/>
<path id="Vector_4" d="M39.9238 27.4263C36.9729 28.9344 34.022 28.9344 31.0711 27.4263" stroke="black" stroke-linecap="round" stroke-linejoin="round"/>
<path id="Vector_5" d="M18.1028 27.4263C15.4689 28.9344 12.8349 28.9344 10.201 27.4263" stroke="black" stroke-linecap="round" stroke-linejoin="round"/>
<path id="Vector_6" d="M25.9549 27.4263C25.9549 27.4263 31.1201 34.9267 26.0219 37.2134" stroke="black" stroke-linecap="round" stroke-linejoin="round"/>
<path id="Vector_7" d="M29.5938 44.3892C28.3884 45.2033 20.6384 46.0797 18.1071 40.2964" stroke="black" stroke-linecap="round" stroke-linejoin="round"/>
</g>
</svg>
