<svg width="262" height="407" viewBox="0 0 262 407" fill="none" xmlns="http://www.w3.org/2000/svg">
<g filter="url(#filter0_ddii_39_523)">
<rect x="4" y="8" width="254" height="391" rx="20" fill="url(#paint0_linear_39_523)"/>
<g filter="url(#filter1_d_39_523)">
<circle cx="131.5" cy="204.5" r="47.5" fill="#F9FFD6"/>
<circle cx="131.5" cy="204.5" r="47" stroke="white"/>
</g>
<g clip-path="url(#clip0_39_523)">
<path d="M224.681 364.296C227.708 364.296 230.161 362.035 230.161 359.246C230.161 356.457 227.708 354.197 224.681 354.197C221.655 354.197 219.202 356.457 219.202 359.246C219.202 362.035 221.655 364.296 224.681 364.296Z" stroke="white"/>
<path d="M216.427 377.902C215.609 377.902 214.913 377.351 214.736 376.558L211.23 361.126C211.018 360.198 211.605 359.273 212.541 359.067L221.406 357.083C221.531 357.055 221.66 357.04 221.789 357.04C222.591 357.04 223.304 357.607 223.48 358.384L226.987 373.816C227.198 374.744 226.611 375.669 225.675 375.879L216.811 377.863C216.686 377.891 216.556 377.906 216.427 377.906V377.902Z" fill="white"/>
<path d="M221.785 357.234C222.49 357.234 223.124 357.716 223.288 358.426L226.795 373.859C226.983 374.682 226.462 375.502 225.633 375.688L216.768 377.673C216.655 377.7 216.541 377.712 216.428 377.712C215.723 377.712 215.089 377.23 214.925 376.519L211.418 361.087C211.23 360.264 211.751 359.444 212.58 359.258L221.445 357.273C221.558 357.246 221.672 357.234 221.785 357.234ZM221.785 356.845C221.645 356.845 221.5 356.861 221.359 356.892L212.494 358.877C211.989 358.99 211.563 359.289 211.285 359.724C211.011 360.155 210.921 360.671 211.034 361.169L214.541 376.601C214.741 377.483 215.516 378.096 216.424 378.096C216.565 378.096 216.709 378.081 216.85 378.05L225.715 376.065C226.756 375.832 227.41 374.802 227.175 373.773L223.668 358.341C223.468 357.459 222.693 356.845 221.785 356.845Z" fill="url(#paint1_linear_39_523)"/>
<path d="M232.451 378.516C232.357 378.516 232.259 378.508 232.162 378.493L223.199 377.009C222.256 376.853 221.614 375.964 221.771 375.024L224.397 359.421C224.538 358.586 225.258 357.98 226.107 357.98C226.201 357.98 226.299 357.988 226.397 358.003L235.359 359.487C235.817 359.565 236.216 359.809 236.486 360.186C236.756 360.563 236.862 361.017 236.784 361.472L234.158 377.075C234.017 377.91 233.297 378.516 232.447 378.516H232.451Z" fill="white"/>
<path d="M226.111 358.174C226.197 358.174 226.279 358.182 226.365 358.193L235.328 359.677C236.169 359.817 236.733 360.606 236.596 361.437L233.969 377.04C233.844 377.79 233.191 378.318 232.451 378.318C232.365 378.318 232.283 378.31 232.197 378.299L223.234 376.815C222.396 376.675 221.829 375.886 221.966 375.055L224.592 359.452C224.717 358.702 225.371 358.174 226.111 358.174ZM226.111 357.786C225.164 357.786 224.361 358.458 224.205 359.386L221.579 374.989C221.402 376.034 222.115 377.021 223.167 377.195L232.13 378.679C232.236 378.699 232.345 378.706 232.451 378.706C233.398 378.706 234.2 378.034 234.357 377.106L236.983 361.503C237.159 360.458 236.447 359.471 235.394 359.297L226.432 357.813C226.326 357.793 226.216 357.786 226.111 357.786Z" fill="url(#paint2_linear_39_523)"/>
<path d="M222.604 369.539C222.604 370.487 222.369 371.322 221.899 372.041C221.43 372.759 220.819 373.334 220.068 373.773C219.414 374.158 218.682 374.449 217.868 374.647C217.054 374.845 216.103 374.946 215.023 374.946C214.518 374.946 213.962 374.938 213.355 374.927C212.749 374.911 212.412 374.907 212.342 374.907C212.342 374.853 212.346 374.282 212.357 373.19C212.369 372.099 212.373 370.829 212.373 369.372C212.373 368.766 212.373 368.013 212.365 367.108C212.361 366.203 212.354 365.189 212.342 364.066C212.428 364.066 212.792 364.066 213.426 364.059C214.06 364.055 214.506 364.051 214.764 364.051C215.954 364.051 216.995 364.152 217.892 364.35C218.788 364.548 219.574 364.866 220.259 365.298C221.054 365.799 221.641 366.405 222.028 367.112C222.416 367.819 222.608 368.63 222.608 369.547L222.604 369.539ZM219.829 369.454C219.829 368.914 219.707 368.421 219.469 367.974C219.23 367.527 218.854 367.15 218.342 366.84C217.884 366.564 217.387 366.374 216.843 366.269C216.303 366.164 215.79 366.109 215.305 366.109H215.011C215.007 366.661 215.003 367.182 215.003 367.679V370.266C215.003 370.891 215.003 371.749 215.011 372.837H215.281C215.77 372.837 216.291 372.775 216.835 372.654C217.379 372.534 217.833 372.371 218.185 372.165C218.733 371.847 219.144 371.462 219.418 371.011C219.688 370.561 219.825 370.04 219.825 369.446L219.829 369.454Z" fill="url(#paint3_linear_39_523)"/>
<path d="M193.074 374.418L193.164 374.224C193.313 373.901 193.877 372.616 194.863 370.367C195.849 368.118 196.792 365.966 197.689 363.903L197.739 363.787H200.765L200.816 363.903C201.751 366.071 202.71 368.285 203.696 370.545C204.682 372.806 205.211 374.018 205.281 374.185L205.363 374.379L202.315 375.397L202.256 375.206C202.201 375.028 202.056 374.624 201.841 374.041C201.63 373.47 201.379 372.825 201.097 372.118H197.207C196.914 372.833 196.659 373.486 196.448 374.057C196.225 374.655 196.088 375.039 196.041 375.203L195.982 375.397L193.082 374.418H193.074ZM200.307 370.056C200.123 369.57 199.931 369.05 199.72 368.49C199.528 367.978 199.336 367.473 199.148 366.976C198.98 367.411 198.788 367.916 198.577 368.487C198.342 369.12 198.146 369.644 197.982 370.056H200.303H200.307Z" fill="white"/>
<path d="M200.635 363.981C201.571 366.152 202.529 368.366 203.516 370.623C204.502 372.88 205.026 374.096 205.097 374.263L202.435 375.148C202.381 374.97 202.24 374.577 202.017 373.975C201.794 373.369 201.527 372.689 201.222 371.928H197.07C196.753 372.701 196.483 373.389 196.256 373.995C196.033 374.601 195.896 374.985 195.845 375.152L193.34 374.305C193.489 373.983 194.052 372.697 195.042 370.448C196.033 368.199 196.972 366.047 197.868 363.985H200.635M197.7 370.25H200.588V370.242C200.377 369.691 200.15 369.085 199.903 368.425C199.657 367.764 199.41 367.112 199.164 366.475H199.132C198.925 366.999 198.678 367.648 198.396 368.421C198.115 369.194 197.88 369.8 197.704 370.242V370.25M200.893 363.593H197.614L197.512 363.826C196.616 365.888 195.672 368.04 194.686 370.289C193.704 372.522 193.132 373.82 192.988 374.142L192.812 374.531L193.219 374.667L195.723 375.513L196.107 375.642L196.224 375.253C196.271 375.094 196.408 374.713 196.627 374.119C196.827 373.583 197.066 372.973 197.336 372.309H200.96C201.222 372.965 201.457 373.567 201.653 374.103C201.923 374.841 202.028 375.14 202.068 375.261L202.189 375.638L202.569 375.513L205.23 374.628L205.629 374.496L205.465 374.111C205.394 373.944 204.905 372.822 203.88 370.468C202.901 368.219 201.931 365.985 200.999 363.826L200.897 363.589L200.893 363.593ZM198.271 369.862C198.412 369.493 198.576 369.058 198.764 368.553C198.901 368.184 199.03 367.838 199.152 367.523C199.281 367.865 199.41 368.211 199.543 368.561C199.715 369.023 199.876 369.458 200.032 369.866H198.279L198.271 369.862Z" fill="url(#paint4_linear_39_523)"/>
<path d="M204.11 373.257C204.079 372.429 204.024 371.206 203.95 369.59C203.93 369.159 203.899 368.541 203.86 367.737C203.821 366.933 203.754 365.791 203.668 364.311L203.656 364.117L203.852 364.109C204.009 364.101 204.334 364.082 204.831 364.047C205.328 364.012 205.793 363.985 206.224 363.965C206.744 363.942 207.23 363.93 207.664 363.93C207.907 363.93 208.138 363.93 208.353 363.942C208.964 363.965 209.551 364.055 210.099 364.21C210.897 364.431 211.515 364.797 211.93 365.29C212.345 365.787 212.572 366.366 212.603 367.011C212.639 367.741 212.459 368.39 212.071 368.929C211.742 369.388 211.398 369.757 211.046 370.029C211.605 370.662 212.208 371.314 212.834 371.967C213.511 372.67 214.051 373.295 214.435 373.824L214.576 374.018L211.77 375.257L211.676 375.133C211.464 374.857 211.042 374.352 210.419 373.637C209.785 372.907 208.823 371.777 207.559 370.273L207.5 370.204L207.574 369.831L207.692 369.8C207.852 369.757 208.071 369.66 208.341 369.508C208.611 369.361 208.83 369.19 209.003 369.011C209.179 368.821 209.308 368.623 209.39 368.417C209.472 368.219 209.508 367.958 209.492 367.644C209.476 367.352 209.394 367.1 209.23 366.879C209.069 366.657 208.858 366.502 208.588 366.405C208.357 366.319 208.118 366.273 207.879 366.261C207.746 366.253 207.617 366.253 207.488 366.253C207.371 366.253 207.253 366.253 207.136 366.261L206.842 366.276C206.866 366.855 206.889 367.45 206.917 368.052C206.944 368.724 206.971 369.326 206.999 369.858C207.042 370.736 207.089 371.699 207.144 372.74C207.198 373.781 207.238 374.534 207.265 375.001L207.277 375.195L204.181 375.339L204.107 373.26L204.11 373.257Z" fill="white"/>
<path d="M207.665 364.121C207.907 364.121 208.134 364.121 208.349 364.132C208.948 364.152 209.512 364.241 210.048 364.393C210.815 364.606 211.394 364.944 211.782 365.41C212.173 365.877 212.381 366.413 212.408 367.015C212.439 367.706 212.275 368.304 211.911 368.813C211.547 369.322 211.171 369.71 210.78 369.974V370.021C211.379 370.701 212.013 371.392 212.69 372.091C213.363 372.791 213.891 373.404 214.275 373.929L211.829 375.008C211.614 374.725 211.195 374.224 210.565 373.501C209.938 372.779 208.984 371.66 207.704 370.141L207.735 369.978C207.911 369.932 208.146 369.831 208.432 369.671C208.717 369.512 208.956 369.334 209.14 369.135C209.332 368.926 209.473 368.708 209.567 368.483C209.661 368.258 209.7 367.97 209.68 367.624C209.665 367.294 209.567 367.007 209.383 366.754C209.199 366.502 208.956 366.323 208.651 366.214C208.4 366.125 208.146 366.071 207.884 366.059C207.747 366.051 207.614 366.051 207.481 366.051C207.359 366.051 207.242 366.051 207.124 366.059C206.98 366.067 206.866 366.071 206.792 366.075C206.714 366.075 206.663 366.082 206.635 366.082C206.659 366.723 206.686 367.38 206.717 368.052C206.745 368.724 206.772 369.326 206.8 369.862C206.843 370.74 206.89 371.703 206.944 372.744C206.999 373.789 207.038 374.542 207.066 375.005L204.369 375.129C204.354 374.702 204.33 374.076 204.303 373.249C204.271 372.422 204.217 371.198 204.142 369.578C204.123 369.147 204.091 368.529 204.052 367.725C204.013 366.921 203.947 365.779 203.86 364.296C204.017 364.288 204.346 364.268 204.843 364.233C205.34 364.199 205.802 364.171 206.232 364.152C206.753 364.129 207.226 364.117 207.661 364.117M207.665 363.732C207.23 363.732 206.741 363.744 206.22 363.767C205.794 363.787 205.324 363.814 204.823 363.849C204.33 363.884 204.005 363.903 203.849 363.911L203.453 363.93L203.477 364.323C203.563 365.803 203.626 366.952 203.669 367.749C203.708 368.553 203.739 369.17 203.759 369.602C203.833 371.198 203.888 372.429 203.919 373.268C203.95 374.096 203.974 374.721 203.986 375.148L203.997 375.541L204.393 375.521L207.089 375.397L207.485 375.377L207.461 374.985C207.434 374.523 207.395 373.769 207.34 372.728C207.285 371.687 207.238 370.724 207.195 369.846C207.171 369.314 207.144 368.712 207.113 368.04C207.089 367.504 207.07 366.976 207.046 366.455H207.148C207.258 366.444 207.371 366.444 207.488 366.444C207.614 366.444 207.743 366.444 207.872 366.451C208.091 366.463 208.31 366.506 208.522 366.583C208.753 366.669 208.933 366.801 209.074 366.987C209.211 367.178 209.285 367.391 209.297 367.648C209.308 367.935 209.281 368.168 209.211 368.339C209.136 368.522 209.015 368.7 208.858 368.875C208.706 369.038 208.498 369.194 208.248 369.334C207.927 369.512 207.743 369.578 207.645 369.605L207.406 369.668L207.359 369.905L207.328 370.068L207.293 370.25L207.414 370.394C208.678 371.897 209.645 373.031 210.279 373.762C210.897 374.476 211.316 374.973 211.524 375.249L211.711 375.494L211.997 375.37L214.443 374.29L214.885 374.096L214.6 373.707C214.208 373.171 213.664 372.542 212.979 371.831C212.408 371.237 211.852 370.639 211.332 370.052C211.645 369.784 211.946 369.446 212.236 369.042C212.647 368.463 212.839 367.776 212.803 367.003C212.772 366.315 212.529 365.698 212.087 365.17C211.649 364.645 210.999 364.261 210.158 364.028C209.598 363.868 208.995 363.775 208.365 363.752C208.146 363.744 207.915 363.74 207.668 363.74L207.665 363.732Z" fill="url(#paint5_linear_39_523)"/>
<path d="M193.516 375.253C192.15 375.253 190.913 375.102 189.845 374.799C188.765 374.496 187.833 374.03 187.078 373.408C186.483 372.93 186.017 372.359 185.688 371.711C185.36 371.062 185.195 370.309 185.195 369.473C185.195 368.689 185.36 367.97 185.685 367.337C186.009 366.708 186.467 366.148 187.054 365.675C187.798 365.053 188.737 364.571 189.849 364.249C190.949 363.931 192.138 363.767 193.379 363.767H193.946C193.946 363.767 194.029 364.494 194.076 364.909C194.123 365.317 194.181 365.752 194.26 366.199L194.299 366.424H193.692C193.242 366.424 192.69 366.475 192.048 366.572C191.414 366.669 190.859 366.817 190.389 367.015C189.763 367.283 189.266 367.632 188.909 368.06C188.557 368.479 188.389 368.945 188.389 369.489C188.389 370.033 188.553 370.507 188.886 370.926C189.223 371.346 189.72 371.699 190.361 371.971C190.847 372.196 191.418 372.359 192.064 372.457C192.718 372.554 193.281 372.604 193.735 372.604H194.459L194.416 372.833C194.361 373.117 194.31 373.447 194.256 373.828C194.201 374.208 194.15 374.624 194.103 375.075L194.083 375.249H193.524L193.516 375.253Z" fill="white"/>
<path d="M193.771 363.965C193.798 364.198 193.833 364.521 193.88 364.933C193.927 365.344 193.986 365.779 194.064 366.234H193.689C193.227 366.234 192.667 366.284 192.017 366.385C191.364 366.486 190.796 366.638 190.311 366.844C189.653 367.123 189.133 367.492 188.757 367.943C188.378 368.393 188.19 368.91 188.19 369.497C188.19 370.083 188.37 370.604 188.73 371.054C189.09 371.505 189.606 371.87 190.28 372.157C190.781 372.39 191.364 372.557 192.029 372.655C192.694 372.756 193.262 372.806 193.732 372.806H194.221C194.166 373.093 194.111 373.427 194.056 373.808C194.002 374.193 193.951 374.608 193.9 375.063H193.516C192.162 375.063 190.957 374.915 189.896 374.616C188.839 374.317 187.939 373.866 187.2 373.264C186.624 372.798 186.178 372.254 185.861 371.633C185.544 371.008 185.387 370.293 185.387 369.481C185.387 368.724 185.544 368.044 185.857 367.434C186.17 366.828 186.609 366.292 187.176 365.834C187.904 365.224 188.812 364.762 189.9 364.443C190.988 364.129 192.147 363.969 193.375 363.969H193.767M194.119 363.577H193.379C192.119 363.577 190.91 363.74 189.794 364.066C188.659 364.397 187.693 364.89 186.926 365.531C186.327 366.016 185.849 366.599 185.513 367.251C185.172 367.912 185 368.658 185 369.473C185 370.339 185.172 371.124 185.517 371.8C185.857 372.472 186.339 373.062 186.957 373.56C187.732 374.193 188.687 374.674 189.794 374.985C190.882 375.292 192.135 375.443 193.52 375.443H194.256L194.295 375.098C194.342 374.651 194.393 374.232 194.448 373.855C194.503 373.478 194.557 373.144 194.608 372.868L194.694 372.41H193.732C193.285 372.41 192.734 372.359 192.088 372.262C191.462 372.169 190.91 372.01 190.444 371.796C189.822 371.532 189.352 371.198 189.035 370.806C188.73 370.425 188.581 369.994 188.581 369.489C188.581 368.984 188.738 368.568 189.059 368.184C189.395 367.78 189.869 367.45 190.468 367.193C190.918 367.003 191.462 366.855 192.076 366.762C192.706 366.665 193.25 366.618 193.689 366.618H194.526L194.452 366.168C194.377 365.725 194.315 365.294 194.272 364.89C194.225 364.474 194.19 364.152 194.162 363.919L194.123 363.577H194.119Z" fill="url(#paint6_linear_39_523)"/>
<path d="M232.149 368.661C232.149 372.01 229.73 374.822 226.439 374.822C223.887 374.822 222.22 373.152 222.22 370.491C222.22 367.317 224.588 364.292 227.946 364.292C230.548 364.292 232.149 366.016 232.149 368.665V368.661ZM224.235 370.825C224.235 372.833 224.92 374.181 226.552 374.181C228.869 374.181 230.13 371.015 230.13 368.335C230.13 366.226 229.535 364.929 227.844 364.929C225.691 364.929 224.235 367.927 224.235 370.825Z" fill="url(#paint7_linear_39_523)"/>
</g>
<rect x="14.5" y="18.5" width="233" height="370" rx="19.5" stroke="white"/>
</g>
<defs>
<filter id="filter0_ddii_39_523" x="0" y="0" width="262" height="407" filterUnits="userSpaceOnUse" color-interpolation-filters="sRGB">
<feFlood flood-opacity="0" result="BackgroundImageFix"/>
<feColorMatrix in="SourceAlpha" type="matrix" values="0 0 0 0 0 0 0 0 0 0 0 0 0 0 0 0 0 0 127 0" result="hardAlpha"/>
<feOffset dy="4"/>
<feGaussianBlur stdDeviation="2"/>
<feComposite in2="hardAlpha" operator="out"/>
<feColorMatrix type="matrix" values="0 0 0 0 0 0 0 0 0 0 0 0 0 0 0 0 0 0 0.05 0"/>
<feBlend mode="normal" in2="BackgroundImageFix" result="effect1_dropShadow_39_523"/>
<feColorMatrix in="SourceAlpha" type="matrix" values="0 0 0 0 0 0 0 0 0 0 0 0 0 0 0 0 0 0 127 0" result="hardAlpha"/>
<feOffset dy="-4"/>
<feGaussianBlur stdDeviation="2"/>
<feComposite in2="hardAlpha" operator="out"/>
<feColorMatrix type="matrix" values="0 0 0 0 0 0 0 0 0 0 0 0 0 0 0 0 0 0 0.1 0"/>
<feBlend mode="normal" in2="effect1_dropShadow_39_523" result="effect2_dropShadow_39_523"/>
<feBlend mode="normal" in="SourceGraphic" in2="effect2_dropShadow_39_523" result="shape"/>
<feColorMatrix in="SourceAlpha" type="matrix" values="0 0 0 0 0 0 0 0 0 0 0 0 0 0 0 0 0 0 127 0" result="hardAlpha"/>
<feOffset dx="1" dy="1"/>
<feGaussianBlur stdDeviation="2"/>
<feComposite in2="hardAlpha" operator="arithmetic" k2="-1" k3="1"/>
<feColorMatrix type="matrix" values="0 0 0 0 1 0 0 0 0 1 0 0 0 0 1 0 0 0 0.7 0"/>
<feBlend mode="normal" in2="shape" result="effect3_innerShadow_39_523"/>
<feColorMatrix in="SourceAlpha" type="matrix" values="0 0 0 0 0 0 0 0 0 0 0 0 0 0 0 0 0 0 127 0" result="hardAlpha"/>
<feOffset dx="-1" dy="-1"/>
<feGaussianBlur stdDeviation="2"/>
<feComposite in2="hardAlpha" operator="arithmetic" k2="-1" k3="1"/>
<feColorMatrix type="matrix" values="0 0 0 0 0 0 0 0 0 0 0 0 0 0 0 0 0 0 0.2 0"/>
<feBlend mode="normal" in2="effect3_innerShadow_39_523" result="effect4_innerShadow_39_523"/>
</filter>
<filter id="filter1_d_39_523" x="80" y="157" width="103" height="103" filterUnits="userSpaceOnUse" color-interpolation-filters="sRGB">
<feFlood flood-opacity="0" result="BackgroundImageFix"/>
<feColorMatrix in="SourceAlpha" type="matrix" values="0 0 0 0 0 0 0 0 0 0 0 0 0 0 0 0 0 0 127 0" result="hardAlpha"/>
<feOffset dy="4"/>
<feGaussianBlur stdDeviation="2"/>
<feComposite in2="hardAlpha" operator="out"/>
<feColorMatrix type="matrix" values="0 0 0 0 0 0 0 0 0 0 0 0 0 0 0 0 0 0 0.05 0"/>
<feBlend mode="normal" in2="BackgroundImageFix" result="effect1_dropShadow_39_523"/>
<feBlend mode="normal" in="SourceGraphic" in2="effect1_dropShadow_39_523" result="shape"/>
</filter>
<linearGradient id="paint0_linear_39_523" x1="4" y1="203.5" x2="258" y2="203.5" gradientUnits="userSpaceOnUse">
<stop stop-color="#FCFFE1"/>
<stop offset="0.33" stop-color="#FFE7E7"/>
<stop offset="0.66" stop-color="#EFE5FF"/>
<stop offset="1" stop-color="#D5DDFF"/>
</linearGradient>
<linearGradient id="paint1_linear_39_523" x1="210.986" y1="367.471" x2="227.223" y2="367.471" gradientUnits="userSpaceOnUse">
<stop stop-color="#FCFFE1"/>
<stop offset="0.33" stop-color="#FFE7E7"/>
<stop offset="0.66" stop-color="#EFE5FF"/>
<stop offset="1" stop-color="#D5DDFF"/>
</linearGradient>
<linearGradient id="paint2_linear_39_523" x1="221.552" y1="368.246" x2="237.01" y2="368.246" gradientUnits="userSpaceOnUse">
<stop stop-color="#FCFFE1"/>
<stop offset="0.33" stop-color="#FFE7E7"/>
<stop offset="0.66" stop-color="#EFE5FF"/>
<stop offset="1" stop-color="#D5DDFF"/>
</linearGradient>
<linearGradient id="paint3_linear_39_523" x1="212.342" y1="369.498" x2="222.608" y2="369.498" gradientUnits="userSpaceOnUse">
<stop stop-color="#FCFFE1"/>
<stop offset="0.33" stop-color="#FFE7E7"/>
<stop offset="0.66" stop-color="#EFE5FF"/>
<stop offset="1" stop-color="#D5DDFF"/>
</linearGradient>
<linearGradient id="paint4_linear_39_523" x1="192.812" y1="369.615" x2="205.629" y2="369.615" gradientUnits="userSpaceOnUse">
<stop stop-color="#FCFFE1"/>
<stop offset="0.33" stop-color="#FFE7E7"/>
<stop offset="0.66" stop-color="#EFE5FF"/>
<stop offset="1" stop-color="#D5DDFF"/>
</linearGradient>
<linearGradient id="paint5_linear_39_523" x1="203.453" y1="369.636" x2="214.885" y2="369.636" gradientUnits="userSpaceOnUse">
<stop stop-color="#FCFFE1"/>
<stop offset="0.33" stop-color="#FFE7E7"/>
<stop offset="0.66" stop-color="#EFE5FF"/>
<stop offset="1" stop-color="#D5DDFF"/>
</linearGradient>
<linearGradient id="paint6_linear_39_523" x1="185" y1="369.51" x2="194.694" y2="369.51" gradientUnits="userSpaceOnUse">
<stop stop-color="#FCFFE1"/>
<stop offset="0.33" stop-color="#FFE7E7"/>
<stop offset="0.66" stop-color="#EFE5FF"/>
<stop offset="1" stop-color="#D5DDFF"/>
</linearGradient>
<linearGradient id="paint7_linear_39_523" x1="222.22" y1="369.557" x2="232.149" y2="369.557" gradientUnits="userSpaceOnUse">
<stop stop-color="#FCFFE1"/>
<stop offset="0.33" stop-color="#FFE7E7"/>
<stop offset="0.66" stop-color="#EFE5FF"/>
<stop offset="1" stop-color="#D5DDFF"/>
</linearGradient>
<clipPath id="clip0_39_523">
<rect width="53" height="25" fill="white" transform="translate(185 354)"/>
</clipPath>
</defs>
</svg>
