<svg width="37" height="36" viewBox="0 0 37 36" fill="none" xmlns="http://www.w3.org/2000/svg">
<g id="ph:star-thin">
<path id="Vector" d="M33.5976 13.8502C33.4937 13.5224 33.2938 13.2334 33.0238 13.0205C32.7537 12.8077 32.426 12.6808 32.083 12.6563L23.4388 11.9532L20.1088 3.89115C19.9777 3.5723 19.7547 3.29961 19.4683 3.10771C19.1818 2.91581 18.8448 2.81335 18.5001 2.81335C18.1553 2.81335 17.8183 2.91581 17.5319 3.10771C17.2454 3.29961 17.0225 3.5723 16.8913 3.89115L13.5613 11.9532L4.9171 12.6563C4.57358 12.6855 4.24632 12.8154 3.97635 13.0298C3.70639 13.2443 3.50573 13.5336 3.39956 13.8616C3.29338 14.1896 3.2864 14.5416 3.3795 14.8736C3.47259 15.2055 3.66162 15.5026 3.92288 15.7276L10.5112 21.4102L8.49741 29.9026C8.41307 30.2383 8.43099 30.5916 8.54885 30.917C8.66672 31.2425 8.87916 31.5253 9.15891 31.7292C9.43866 31.9331 9.77295 32.0487 10.1189 32.0613C10.4648 32.0738 10.8066 31.9827 11.1004 31.7996L18.5001 27.249L25.8998 31.7996C26.1904 31.9832 26.5299 32.0746 26.8734 32.0618C27.217 32.049 27.5487 31.9326 27.8249 31.7279C28.1089 31.5269 28.3256 31.2448 28.4465 30.9186C28.5675 30.5924 28.587 30.2373 28.5027 29.8997L26.489 21.4032L33.0773 15.7205C33.3413 15.4967 33.5321 15.1988 33.6248 14.8653C33.7176 14.5319 33.7081 14.1782 33.5976 13.8502ZM32.3418 14.8712L25.4962 20.7774C25.4182 20.8447 25.3602 20.932 25.3284 21.03C25.2967 21.1279 25.2925 21.2327 25.3162 21.3329L27.4073 30.1627C27.4379 30.2834 27.4312 30.4105 27.388 30.5273C27.3448 30.6441 27.2672 30.745 27.1654 30.8166C27.0685 30.8889 26.9519 30.93 26.8311 30.9346C26.7103 30.9391 26.591 30.9068 26.489 30.8419L18.7954 26.1099C18.7066 26.0551 18.6044 26.0261 18.5001 26.0261C18.3958 26.0261 18.2935 26.0551 18.2048 26.1099L10.5112 30.8419C10.4091 30.9068 10.2898 30.9391 10.169 30.9346C10.0482 30.93 9.93164 30.8889 9.83475 30.8166C9.73294 30.745 9.6553 30.6441 9.61211 30.5273C9.56891 30.4105 9.56221 30.2834 9.59288 30.1627L11.684 21.3329C11.7077 21.2327 11.7034 21.1279 11.6717 21.03C11.64 20.932 11.5819 20.8447 11.504 20.7774L4.65835 14.8712C4.56378 14.7914 4.49547 14.685 4.46235 14.5658C4.42923 14.4467 4.43284 14.3203 4.47272 14.2032C4.50939 14.0872 4.5801 13.985 4.67565 13.9097C4.7712 13.8345 4.88718 13.7898 5.0085 13.7813L14.0001 13.0487C14.1035 13.0404 14.2026 13.0038 14.2865 12.9427C14.3704 12.8817 14.4358 12.7986 14.4754 12.7027L17.9376 4.32146C17.9829 4.20785 18.0613 4.11045 18.1626 4.04183C18.2638 3.97321 18.3834 3.93654 18.5057 3.93654C18.628 3.93654 18.7475 3.97321 18.8488 4.04183C18.9501 4.11045 19.0285 4.20785 19.0738 4.32146L22.536 12.7027C22.5747 12.797 22.6384 12.879 22.7201 12.94C22.8019 13.0009 22.8986 13.0385 23.0001 13.0487L31.986 13.7729C32.1073 13.7813 32.2233 13.8261 32.3189 13.9013C32.4144 13.9765 32.4851 14.0788 32.5218 14.1947C32.5642 14.3124 32.5697 14.4402 32.5375 14.5611C32.5053 14.6819 32.4371 14.7901 32.3418 14.8712Z" fill="black"/>
</g>
</svg>
