<svg width="37" height="36" viewBox="0 0 37 36" fill="none" xmlns="http://www.w3.org/2000/svg">
<g id="Frame 85">
<path id="Union" fill-rule="evenodd" clip-rule="evenodd" d="M17.7174 3.28442C17.9522 3.12715 18.2209 3.02995 18.5 3V3.00993C18.5615 3.00334 18.6234 3 18.6856 3C19.0304 3 19.3674 3.10245 19.6538 3.29435C19.9403 3.48625 20.1632 3.75894 20.2944 4.0778L23.6244 12.1398L32.2686 12.843C32.6116 12.8674 32.9393 12.9943 33.2093 13.2072C33.4793 13.4201 33.6792 13.7091 33.7831 14.0369C33.8937 14.3649 33.9032 14.7185 33.8104 15.052C33.7176 15.3854 33.5269 15.6834 33.2628 15.9072L26.6745 21.5898L28.6883 30.0864C28.7726 30.4239 28.753 30.7791 28.6321 31.1053C28.5111 31.4315 28.2944 31.7135 28.0105 31.9145C27.7343 32.1193 27.4026 32.2357 27.059 32.2485C26.7154 32.2613 26.376 32.1699 26.0853 31.9862L18.6856 27.4356L11.2859 31.9862C10.9922 32.1693 10.6504 32.2604 10.3044 32.2479C9.95851 32.2354 9.62421 32.1197 9.34446 31.9159C9.06471 31.712 8.85227 31.4292 8.73441 31.1037C8.66481 30.9115 8.63006 30.7096 8.63064 30.5074C8.63023 30.3638 8.64761 30.22 8.68296 30.0793L10.6948 21.5952L4.10843 15.9142C3.84718 15.6893 3.65815 15.3922 3.56505 15.0602C3.5211 14.9035 3.49944 14.7423 3.50001 14.5813C3.49962 14.3979 3.52803 14.2146 3.58511 14.0383C3.69129 13.7103 3.89194 13.421 4.16191 13.2066C4.43187 12.9921 4.75913 12.8622 5.10265 12.833L13.7469 12.1299L17.0769 4.06787C17.208 3.74901 17.431 3.47632 17.7174 3.28442ZM18.5 26.2443C18.5594 26.2235 18.6221 26.2128 18.6856 26.2128C18.7899 26.2128 18.8922 26.2418 18.9809 26.2965L26.6745 31.0286C26.7765 31.0934 26.8959 31.1257 27.0167 31.1212C27.1375 31.1167 27.254 31.0756 27.3509 31.0033C27.4527 30.9316 27.5304 30.8307 27.5736 30.7139C27.6168 30.5972 27.6235 30.47 27.5928 30.3494L25.5017 21.5195C25.478 21.4193 25.4823 21.3145 25.514 21.2166C25.5457 21.1187 25.6037 21.0313 25.6817 20.964L32.5273 15.0578C32.6226 14.9768 32.6909 14.8686 32.7231 14.7477C32.7552 14.6269 32.7497 14.4991 32.7073 14.3814C32.6707 14.2654 32.6 14.1632 32.5044 14.088C32.4089 14.0127 32.2929 13.968 32.1716 13.9595L23.1856 13.2353C23.0842 13.2251 22.9874 13.1875 22.9057 13.1266C22.8239 13.0657 22.7603 12.9837 22.7216 12.8894L19.2594 4.50811C19.214 4.3945 19.1356 4.29709 19.0344 4.22848C18.9331 4.15986 18.8136 4.12318 18.6912 4.12318C18.6259 4.12318 18.5614 4.13364 18.5 4.15384V26.2443Z" fill="black"/>
</g>
</svg>
