<svg width="138" height="66" viewBox="0 0 138 66" fill="none" xmlns="http://www.w3.org/2000/svg">
<g id="Asset 4 1">
<g id="Layer 1">
<g id="Group">
<path id="Vector" d="M103.322 27.1803C111.202 27.1803 117.589 21.2118 117.589 13.8494C117.589 6.48698 111.202 0.518555 103.322 0.518555C95.4429 0.518555 89.0554 6.48698 89.0554 13.8494C89.0554 21.2118 95.4429 27.1803 103.322 27.1803Z" stroke="black"/>
<g id="Group_2">
<g id="Group_3">
<path id="Vector_2" d="M81.83 63.1013C79.7002 63.1013 77.8863 61.6452 77.4277 59.5533L68.2969 18.8121C67.7467 16.3613 69.2752 13.9208 71.7108 13.3773L94.7924 8.13721C95.1185 8.06543 95.4548 8.02441 95.7911 8.02441C97.8801 8.02441 99.7348 9.52157 100.193 11.5725L109.324 52.3136C109.874 54.7644 108.346 57.205 105.91 57.7587L82.8287 62.9988C82.5026 63.0706 82.1663 63.1116 81.83 63.1116V63.1013Z" fill="black"/>
<path id="Vector_3" d="M95.781 8.53717C97.6153 8.53717 99.2662 9.80873 99.6942 11.6853L108.825 52.4264C109.314 54.6004 107.959 56.7641 105.798 57.2563L82.7167 62.4963C82.4212 62.5681 82.1257 62.5989 81.8302 62.5989C79.9959 62.5989 78.345 61.3273 77.917 59.4507L68.7863 18.7096C68.2971 16.5357 69.6525 14.372 71.8129 13.8798L94.8945 8.63971C95.19 8.56793 95.4855 8.53717 95.781 8.53717ZM95.781 7.51172C95.4142 7.51172 95.0371 7.55274 94.6703 7.63477L71.5887 12.8748C70.2741 13.1722 69.1633 13.9618 68.4398 15.1103C67.7264 16.2486 67.4921 17.6124 67.7876 18.925L76.9183 59.6661C77.438 61.9939 79.4558 63.6141 81.82 63.6141C82.1868 63.6141 82.5639 63.5731 82.9307 63.491L106.012 58.251C108.723 57.6357 110.425 54.9183 109.813 52.2008L100.683 11.4597C100.163 9.13193 98.1452 7.51172 95.781 7.51172Z" fill="white"/>
</g>
<g id="Group_4">
<path id="Vector_4" d="M123.55 64.7219C123.306 64.7219 123.051 64.7014 122.796 64.6604L99.4597 60.7431C97.0038 60.333 95.3326 57.9847 95.7402 55.5031L102.578 14.3108C102.945 12.106 104.82 10.5063 107.031 10.5063C107.276 10.5063 107.531 10.5269 107.785 10.5679L131.122 14.4851C132.314 14.6902 133.354 15.3362 134.057 16.3309C134.76 17.3256 135.035 18.5254 134.831 19.7251L127.993 60.9175C127.626 63.1222 125.751 64.7219 123.54 64.7219H123.55Z" fill="black"/>
<path id="Vector_5" d="M107.042 11.0191C107.266 11.0191 107.48 11.0396 107.704 11.0704L131.04 14.9876C133.231 15.3568 134.699 17.4384 134.342 19.6329L127.504 60.8252C127.178 62.8043 125.476 64.1989 123.55 64.1989C123.326 64.1989 123.112 64.1784 122.888 64.1477L99.5516 60.2304C97.3709 59.8613 95.8932 57.7796 96.2499 55.5852L103.088 14.3928C103.414 12.4137 105.116 11.0191 107.042 11.0191ZM107.042 9.99365C104.576 9.99365 102.487 11.7677 102.079 14.2185L95.241 55.4108C94.7824 58.1693 96.6371 60.7739 99.3784 61.2354L122.715 65.1526C122.99 65.2039 123.275 65.2244 123.55 65.2244C126.016 65.2244 128.106 63.4504 128.513 60.9995L135.351 19.8072C135.81 17.0487 133.955 14.4441 131.214 13.9827L107.877 10.0654C107.602 10.0142 107.317 9.99365 107.042 9.99365Z" fill="white"/>
</g>
<path id="Vector_6" d="M97.9108 41.0233C97.9108 43.5254 97.2994 45.7301 96.0765 47.6272C94.8536 49.5243 93.2639 51.0419 91.3073 52.2007C89.6055 53.2159 87.6999 53.985 85.5802 54.508C83.4606 55.0309 80.9843 55.2976 78.1717 55.2976C76.8571 55.2976 75.41 55.2771 73.8305 55.2463C72.251 55.2053 71.3746 55.195 71.1912 55.195C71.1912 55.0515 71.2014 53.544 71.2319 50.6625C71.2625 47.781 71.2727 44.4278 71.2727 40.5824C71.2727 38.9827 71.2727 36.9933 71.2523 34.604C71.2421 32.2147 71.2217 29.5383 71.1912 26.5747C71.4154 26.5747 72.3631 26.5747 74.0139 26.5542C75.6648 26.5439 76.8265 26.5337 77.4991 26.5337C80.597 26.5337 83.3077 26.8003 85.6414 27.3233C87.975 27.8463 90.0233 28.6871 91.8066 29.8254C93.8753 31.1482 95.4039 32.7479 96.4128 34.6142C97.4216 36.4806 97.921 38.6237 97.921 41.0438L97.9108 41.0233ZM90.6857 40.7977C90.6857 39.3723 90.3698 38.07 89.7482 36.8907C89.1265 35.7115 88.1482 34.7168 86.8133 33.8964C85.621 33.1684 84.3268 32.6659 82.9103 32.389C81.504 32.1121 80.169 31.9686 78.9054 31.9686H78.1411C78.1309 33.4247 78.1207 34.7988 78.1207 36.1114V42.9409C78.1207 44.5919 78.1207 46.8581 78.1411 49.7294H78.8443C80.1181 49.7294 81.4734 49.5653 82.8899 49.2474C84.3064 48.9295 85.4885 48.4988 86.4057 47.9553C87.8323 47.1145 88.9023 46.0993 89.6157 44.9098C90.3188 43.7202 90.6755 42.3461 90.6755 40.7772L90.6857 40.7977Z" fill="white"/>
<g id="Group_5">
<path id="Vector_7" d="M21.0229 53.903L21.2573 53.3903C21.6446 52.5391 23.112 49.1449 25.68 43.2075C28.2481 37.2702 30.704 31.5892 33.0376 26.1441L33.1701 25.8364H41.0474L41.1799 26.1441C43.6154 31.8661 46.1121 37.7111 48.6801 43.6793C51.2481 49.6474 52.6239 52.8468 52.8073 53.2877L53.0213 53.8004L45.0828 56.4871L44.93 55.9847C44.7873 55.5129 44.4103 54.4465 43.8498 52.9083C43.2995 51.4009 42.6473 49.6986 41.9136 47.8323H31.7842C31.0199 49.7192 30.3575 51.4419 29.8072 52.9493C29.2263 54.5285 28.8697 55.5437 28.7474 55.9744L28.5945 56.4871L21.0433 53.903H21.0229ZM39.8551 42.3872C39.3761 41.1054 38.8768 39.7313 38.3265 38.2546C37.8272 36.901 37.3278 35.5679 36.8387 34.2554C36.4005 35.4039 35.9012 36.737 35.3509 38.2444C34.7394 39.9159 34.2299 41.3002 33.8019 42.3872H39.8449H39.8551Z" fill="black"/>
<path id="Vector_8" d="M40.711 26.3492C43.1466 32.0814 45.6432 37.9265 48.2113 43.8844C50.7793 49.8422 52.1448 53.0519 52.3282 53.4928L45.3987 55.8309C45.256 55.3592 44.8891 54.3235 44.3083 52.734C43.7274 51.1343 43.0345 49.3398 42.2396 47.3299H31.4274C30.602 49.3705 29.8988 51.1856 29.3078 52.7853C28.7269 54.385 28.3702 55.4002 28.2378 55.8411L21.7158 53.6056C22.1031 52.7545 23.5705 49.3603 26.1487 43.4229C28.7269 37.4856 31.1726 31.8046 33.5063 26.3594H40.711M33.0681 42.8999H40.5887V42.8794C40.0384 41.4233 39.4474 39.8236 38.8054 38.0803C38.1634 36.3371 37.5214 34.6143 36.8794 32.9326H36.7978C36.2577 34.3169 35.6157 36.0294 34.882 38.0701C34.1483 40.1107 33.5369 41.7104 33.0783 42.8794V42.8999M41.3836 25.3237H32.8439L32.5789 25.939C30.2453 31.3841 27.7894 37.0651 25.2214 43.0025C22.6635 48.8988 21.1757 52.3238 20.7987 53.1749L20.3401 54.2004L21.3999 54.5593L27.9219 56.7948L28.9205 57.1332L29.2263 56.1077C29.3485 55.6873 29.7052 54.6824 30.2759 53.1134C30.7956 51.6983 31.4172 50.0883 32.1204 48.3348H41.5568C42.2396 50.0678 42.851 51.6573 43.3606 53.0724C44.0637 55.0208 44.3388 55.8104 44.4408 56.1282L44.7567 57.1229L45.7451 56.7948L52.6747 54.4568L53.7142 54.1081L53.2862 53.0929C53.1027 52.652 51.8289 49.6884 49.159 43.4742C46.6113 37.5368 44.0841 31.6405 41.6587 25.939L41.3938 25.3135L41.3836 25.3237ZM34.5559 41.8745C34.9228 40.9003 35.3508 39.7518 35.8399 38.4187C36.1966 37.4445 36.5329 36.5319 36.8488 35.7013C37.1851 36.6037 37.5214 37.5163 37.8678 38.4392C38.3162 39.6595 38.734 40.808 39.1417 41.8847H34.5763L34.5559 41.8745Z" fill="white"/>
</g>
<g id="Group_6">
<path id="Vector_9" d="M49.7605 50.8374C49.679 48.6532 49.5363 45.423 49.3427 41.1571C49.2917 40.0189 49.2102 38.3884 49.1083 36.2657C49.0064 34.143 48.8331 31.1282 48.6089 27.2213L48.5784 26.7085L49.0879 26.688C49.4955 26.6675 50.3413 26.6162 51.6355 26.5239C52.9297 26.4317 54.1424 26.3599 55.2634 26.3086C56.6187 26.2471 57.8823 26.2163 59.0135 26.2163C59.6453 26.2163 60.2466 26.2163 60.807 26.2471C62.3968 26.3086 63.9253 26.5445 65.352 26.9546C67.4309 27.5391 69.041 28.5031 70.1212 29.8054C71.2014 31.118 71.7925 32.6459 71.874 34.3481C71.9657 36.276 71.4969 37.9885 70.4881 39.4138C69.6321 40.6239 68.7353 41.5981 67.8181 42.3159C69.2754 43.9874 70.8447 45.7101 72.4752 47.4329C74.2382 49.2889 75.6445 50.9399 76.6432 52.3345L77.01 52.8472L69.7034 56.1184L69.4588 55.7903C68.9085 55.0622 67.8079 53.7291 66.1876 51.8423C64.5368 49.9145 62.0299 46.9304 58.7384 42.9619L58.5855 42.7773L58.7791 41.7929L59.0848 41.7109C59.5026 41.5981 60.0733 41.3417 60.7765 40.9418C61.4796 40.5521 62.0503 40.1009 62.4987 39.6292C62.9572 39.1267 63.2935 38.6037 63.5075 38.0603C63.7215 37.5373 63.8133 36.8502 63.7725 36.0196C63.7317 35.2505 63.5177 34.584 63.0897 33.9995C62.6719 33.415 62.1216 33.0048 61.4185 32.7484C60.8172 32.5228 60.1956 32.3998 59.574 32.369C59.2275 32.3485 58.8912 32.3485 58.5549 32.3485C58.2492 32.3485 57.9435 32.3485 57.6378 32.369L56.8735 32.41C56.9346 33.9379 56.9958 35.5069 57.0671 37.0963C57.1384 38.8704 57.2098 40.4598 57.2811 41.8647C57.3932 44.1822 57.5155 46.7253 57.6582 49.4735C57.8008 52.2217 57.9027 54.2111 57.9741 55.4416L58.0046 55.9544L49.9439 56.3338L49.7503 50.8476L49.7605 50.8374Z" fill="black"/>
<path id="Vector_10" d="M59.0134 26.7188C59.6452 26.7188 60.2362 26.7188 60.7967 26.7496C62.3559 26.8008 63.8233 27.0367 65.2194 27.4366C67.2168 28.0006 68.725 28.8928 69.7338 30.1233C70.7529 31.3538 71.293 32.769 71.3643 34.3584C71.4458 36.1837 71.0178 37.7629 70.0701 39.1062C69.1224 40.4496 68.1441 41.475 67.1251 42.1723V42.2954C68.6842 44.0899 70.3351 45.9152 72.098 47.761C73.8508 49.6069 75.2265 51.2271 76.2252 52.6114L69.8561 55.4622C69.2956 54.7136 68.2053 53.3908 66.5646 51.4834C64.9341 49.5761 62.4476 46.6228 59.1153 42.6133L59.1968 42.1826C59.6554 42.0595 60.2668 41.7929 61.0107 41.3725C61.7546 40.9521 62.3763 40.4803 62.8552 39.9574C63.3546 39.4036 63.7214 38.8294 63.966 38.2346C64.2106 37.6398 64.3125 36.881 64.2615 35.9684C64.2207 35.0967 63.966 34.3379 63.487 33.6714C63.0081 33.0048 62.3763 32.5331 61.5814 32.246C60.9292 32.0101 60.2668 31.8666 59.584 31.8358C59.2274 31.8153 58.8809 31.8153 58.5344 31.8153C58.2185 31.8153 57.9128 31.8153 57.6071 31.8358C57.23 31.8563 56.9345 31.8666 56.7409 31.8768C56.5371 31.8768 56.4046 31.8973 56.3333 31.8973C56.3944 33.5893 56.4657 35.3223 56.5473 37.0964C56.6186 38.8704 56.6899 40.4598 56.7613 41.875C56.8734 44.1925 56.9956 46.7356 57.1383 49.4838C57.281 52.2423 57.3829 54.2316 57.4542 55.4519L50.4329 55.7801C50.3922 54.6521 50.331 53.0011 50.2597 50.8169C50.1782 48.6327 50.0355 45.4025 49.8419 41.1264C49.7909 39.9881 49.7094 38.3577 49.6075 36.235C49.5056 34.1123 49.3323 31.0975 49.1082 27.1803C49.5158 27.1598 50.3718 27.1085 51.666 27.0162C52.9602 26.9239 54.1627 26.8521 55.2836 26.8008C56.639 26.7393 57.872 26.7086 59.0032 26.7086M59.0134 25.6934C57.8822 25.6934 56.6084 25.7241 55.2531 25.7857C54.1423 25.8369 52.9194 25.9087 51.615 26.001C50.331 26.0933 49.4852 26.1446 49.0776 26.1651L48.0483 26.2163L48.1095 27.252C48.3337 31.159 48.4967 34.1943 48.6088 36.2965C48.7107 38.4192 48.7922 40.0497 48.8432 41.1879C49.0368 45.4025 49.1795 48.6532 49.261 50.8682C49.3425 53.0524 49.4037 54.7033 49.4343 55.8313L49.4648 56.867L50.4941 56.8158L57.5154 56.4876L58.5446 56.4363L58.4835 55.4006C58.4121 54.1804 58.3102 52.191 58.1676 49.4428C58.0249 46.6946 57.9026 44.1515 57.7905 41.8339C57.7294 40.4291 57.658 38.8396 57.5765 37.0656C57.5154 35.6505 57.4644 34.2559 57.4033 32.8818H57.6682C57.9536 32.851 58.2491 32.851 58.5548 32.851C58.8809 32.851 59.2172 32.851 59.5535 32.8715C60.1241 32.9023 60.6948 33.0151 61.2451 33.2202C61.8463 33.4458 62.3151 33.7944 62.682 34.2866C63.0386 34.7891 63.2323 35.3531 63.2628 36.0299C63.2934 36.7887 63.2221 37.404 63.0386 37.8552C62.845 38.3372 62.5291 38.8089 62.1215 39.2703C61.7241 39.701 61.184 40.1112 60.5318 40.4803C59.6961 40.9521 59.2172 41.1264 58.9624 41.1982L58.3408 41.3622L58.2185 41.9878L58.137 42.4184L58.0453 42.9004L58.3612 43.2798C61.6527 47.2483 64.1698 50.2426 65.8207 52.1705C67.4308 54.0573 68.5212 55.3699 69.0613 56.0979L69.5504 56.744L70.2943 56.4158L76.6634 53.5651L77.8149 53.0524L77.071 52.0269C76.052 50.6118 74.6355 48.9506 72.8521 47.074C71.3643 45.5051 69.9173 43.9259 68.5619 42.3774C69.3772 41.6699 70.1618 40.7777 70.9159 39.7113C71.9859 38.1833 72.4853 36.3683 72.3936 34.3276C72.312 32.5126 71.6802 30.8821 70.5287 29.4875C69.3874 28.1032 67.6957 27.088 65.5048 26.4727C64.0475 26.0523 62.4782 25.8062 60.8375 25.7446C60.2668 25.7241 59.6656 25.7139 59.0236 25.7139L59.0134 25.6934Z" fill="white"/>
</g>
<g id="Group_7">
<path id="Vector_11" d="M22.1746 56.1077C18.6181 56.1077 15.3979 55.7078 12.6159 54.9079C9.80331 54.1081 7.37795 52.8775 5.41118 51.2368C3.86221 49.9755 2.64954 48.4681 1.79353 46.7556C0.937525 45.0431 0.509521 43.0537 0.509521 40.849C0.509521 38.7776 0.937525 36.8805 1.78334 35.209C2.62916 33.5478 3.82145 32.0712 5.35003 30.8201C7.28624 29.1794 9.73197 27.9078 12.6261 27.0567C15.4896 26.2158 18.5876 25.7852 21.818 25.7852H23.2956C23.2956 25.7852 23.5096 27.7027 23.6319 28.8C23.7542 29.8767 23.907 31.0252 24.1108 32.2045L24.2127 32.7992H22.6332C21.4613 32.7992 20.0244 32.9325 18.3532 33.1889C16.7023 33.4453 15.2553 33.8349 14.0324 34.3579C12.4019 35.0655 11.1077 35.9884 10.1804 37.1164C9.26321 38.2239 8.82501 39.4544 8.82501 40.89C8.82501 42.3257 9.25302 43.5767 10.1192 44.6842C10.9956 45.7917 12.2898 46.7248 13.9611 47.4427C15.2247 48.0374 16.7125 48.4681 18.3939 48.7245C20.0958 48.9808 21.5632 49.1141 22.7453 49.1141H24.6306L24.5185 49.7192C24.3758 50.4677 24.2433 51.3394 24.1007 52.3443C23.958 53.3493 23.8255 54.4465 23.7032 55.636L23.6523 56.0975H22.195L22.1746 56.1077Z" fill="black"/>
<path id="Vector_12" d="M22.837 26.3082C22.9084 26.9234 23.0001 27.7746 23.1224 28.8615C23.2447 29.9485 23.3975 31.097 23.6013 32.2968H22.623C21.4205 32.2968 19.9633 32.4301 18.2717 32.6967C16.5698 32.9633 15.0922 33.3633 13.8286 33.9067C12.1166 34.6451 10.7612 35.6192 9.78293 36.8088C8.79445 37.9983 8.3053 39.3621 8.3053 40.9106C8.3053 42.459 8.77407 43.8331 9.7116 45.0226C10.6491 46.2121 11.9943 47.1761 13.7471 47.9349C15.0514 48.5502 16.5698 48.9911 18.3022 49.2475C20.0346 49.5141 21.5123 49.6474 22.7351 49.6474H24.0089C23.8663 50.4062 23.7236 51.2881 23.5809 52.2931C23.4383 53.3083 23.3058 54.4055 23.1733 55.6053H22.1746C18.6487 55.6053 15.51 55.2156 12.7484 54.426C9.99693 53.6364 7.65311 52.4469 5.72709 50.8574C4.22908 49.6269 3.06736 48.1913 2.24192 46.5505C1.41649 44.8996 1.00886 43.0127 1.00886 40.8696C1.00886 38.8699 1.41649 37.0754 2.23173 35.4654C3.04698 33.8657 4.18832 32.4506 5.66595 31.2406C7.56139 29.6306 9.9256 28.4103 12.7586 27.5695C15.5915 26.7389 18.608 26.3184 21.8078 26.3184H22.8268M23.744 25.2827H21.818C18.5366 25.2827 15.3877 25.7134 12.4834 26.5748C9.52817 27.4464 7.0111 28.7487 5.01375 30.4407C3.4546 31.7225 2.21135 33.2607 1.33496 34.9835C0.448384 36.7267 0 38.6956 0 40.849C0 43.1358 0.448384 45.2072 1.34515 46.9915C2.23173 48.7655 3.48517 50.3242 5.09528 51.6368C7.11301 53.3083 9.5995 54.5798 12.4834 55.4002C15.3164 56.2103 18.5774 56.6102 22.1848 56.6102H24.1007L24.2026 55.6976C24.3249 54.5183 24.4573 53.4108 24.6 52.4161C24.7427 51.4214 24.8853 50.5395 25.0178 49.8115L25.242 48.6014H22.7351C21.5734 48.6014 20.1365 48.4681 18.4551 48.2118C16.8246 47.9657 15.3877 47.5452 14.1751 46.9812C12.5548 46.2839 11.3319 45.402 10.5065 44.3663C9.7116 43.3614 9.32436 42.2231 9.32436 40.8901C9.32436 39.557 9.73198 38.4597 10.5676 37.4445C11.444 36.3781 12.677 35.5064 14.2362 34.8297C15.4081 34.3272 16.8246 33.9375 18.4245 33.6914C20.0652 33.435 21.4817 33.312 22.623 33.312H24.8038L24.6102 32.1225C24.4166 30.9535 24.2535 29.8152 24.1414 28.7487C24.0191 27.6515 23.9274 26.8004 23.8561 26.1851L23.7542 25.2827H23.744Z" fill="white"/>
</g>
<path id="Vector_13" d="M122.765 38.7057C122.765 47.5451 116.468 54.9694 107.897 54.9694C101.253 54.9694 96.9119 50.5599 96.9119 43.5356C96.9119 35.1577 103.077 27.1694 111.821 27.1694C118.597 27.1694 122.765 31.7224 122.765 38.716V38.7057ZM102.16 44.4175C102.16 49.7191 103.943 53.2774 108.193 53.2774C114.226 53.2774 117.507 44.92 117.507 37.8444C117.507 32.2762 115.958 28.8512 111.556 28.8512C105.951 28.8512 102.16 36.7676 102.16 44.4175Z" fill="white"/>
</g>
</g>
</g>
</g>
</svg>
