<svg width="20" height="20" viewBox="0 0 20 20" fill="none" xmlns="http://www.w3.org/2000/svg">
<g id="&#226;&#157;&#148;&#239;&#184;&#143; &#237;&#149;&#152;&#236;&#150;&#128;&#236;&#131;&#137; &#235;&#172;&#188;&#236;&#157;&#140;&#237;&#145;&#156;" clip-path="url(#clip0_324_3367)">
<g id="Group">
<path id="Vector" d="M9.96048 12.2918C9.30448 12.2918 8.77298 11.7603 8.77298 11.1043C8.77298 9.17135 9.94998 8.23335 10.8085 7.54835C11.5 6.99685 11.8985 6.65435 12.0435 6.02335C12.161 5.51135 12.0725 5.07885 11.7715 4.70135C11.381 4.21135 10.6535 3.88135 9.96048 3.88135C9.05698 3.88135 8.26898 4.45985 7.99998 5.32085C7.93848 5.51785 7.90698 5.72435 7.90698 5.93485C7.90698 6.59085 7.37548 7.12235 6.71948 7.12235C6.06348 7.12235 5.53198 6.59085 5.53198 5.93485C5.53198 5.48335 5.59998 5.03835 5.73298 4.61185C6.31348 2.75485 8.01248 1.50635 9.95998 1.50635C11.3805 1.50635 12.7865 2.16385 13.629 3.22185C14.377 4.16085 14.636 5.34485 14.3575 6.55485C14.02 8.02485 13.06 8.79035 12.2885 9.40585C11.497 10.0368 11.1475 10.3473 11.1475 11.1043C11.1475 11.7603 10.6165 12.2918 9.96048 12.2918Z" fill="#D9D9D9"/>
<path id="Vector_2" d="M9.97639 13.6958C8.97939 13.6958 8.17139 14.5038 8.17139 15.5008C8.17139 16.4978 8.97939 17.3058 9.97639 17.3058C10.9734 17.3058 11.7814 16.4978 11.7814 15.5008C11.7814 14.5038 10.9734 13.6958 9.97639 13.6958Z" fill="#D9D9D9"/>
</g>
</g>
<defs>
<clipPath id="clip0_324_3367">
<rect width="20" height="20" fill="white"/>
</clipPath>
</defs>
</svg>
