<svg width="20" height="20" viewBox="0 0 20 20" fill="none" xmlns="http://www.w3.org/2000/svg">
<g id="&#240;&#159;&#148;&#145; &#236;&#151;&#180;&#236;&#135;&#160;" clip-path="url(#clip0_324_3419)">
<g id="Group">
<path id="Vector" d="M8.81509 2.78365C6.46109 5.13765 6.43359 8.92665 8.75409 11.2466C11.0741 13.5666 14.8631 13.5391 17.2171 11.1856C19.5711 8.83165 19.5986 5.04265 17.2786 2.72265C14.9586 0.402647 11.1696 0.430147 8.81559 2.78415L8.81509 2.78365ZM13.2046 4.08665C13.9636 3.32765 15.1851 3.31865 15.9331 4.06715C16.6811 4.81565 16.6721 6.03665 15.9136 6.79565C15.1551 7.55465 13.9331 7.56365 13.1851 6.81515C12.4371 6.06715 12.4461 4.84565 13.2046 4.08665Z" fill="#D9D9D9"/>
<path id="Vector_2" d="M6.038 17.5838L4.9595 16.5053C4.667 16.2128 4.667 15.7378 4.9595 15.4448C5.252 15.1518 5.727 15.1523 6.02 15.4448L7.0985 16.5233L8.159 15.4628L7.0805 14.3838C6.788 14.0913 6.788 13.6163 7.0805 13.3233C7.373 13.0303 7.848 13.0308 8.141 13.3233L9.2195 14.4018L12.5935 11.0278L8.9715 7.40576L1.75 14.6283C0.75 15.6283 0.75 17.2498 1.75 18.2503C2.75 19.2503 4.3715 19.2503 5.372 18.2503L6.038 17.5838Z" fill="#D9D9D9"/>
</g>
</g>
<defs>
<clipPath id="clip0_324_3419">
<rect width="20" height="20" fill="white"/>
</clipPath>
</defs>
</svg>
