<svg width="20" height="20" viewBox="0 0 20 20" fill="none" xmlns="http://www.w3.org/2000/svg">
<g id="&#240;&#159;&#153;&#139;&#240;&#159;&#143;&#187; &#237;&#149;&#156; &#236;&#134;&#144; &#235;&#147;&#160; &#236;&#130;&#172;&#235;&#158;&#140;: &#237;&#149;&#152;&#236;&#150;&#128; &#237;&#148;&#188;&#235;&#182;&#128;" clip-path="url(#clip0_324_3437)">
<g id="Group">
<path id="Vector" d="M7.91342 4.50621C7.62842 4.31871 7.24492 4.39771 7.05742 4.68271L6.38592 5.40521L6.21692 4.58571L5.81692 2.23571V2.23521C5.76692 1.94171 5.49392 1.74371 5.20692 1.79271C4.91992 1.84171 4.72792 2.11871 4.77792 2.41221L5.12192 4.43421L4.86092 4.48821L4.30042 2.18121C4.23042 1.89221 3.94392 1.71371 3.66142 1.78221C3.37842 1.85071 3.20642 2.14071 3.27642 2.43021L3.83142 4.71471L3.61742 4.82021L2.86492 2.92471C2.75742 2.65371 2.45092 2.52121 2.18042 2.62871C1.90992 2.73621 1.77792 3.04271 1.88542 3.31371L2.66892 5.28721L2.40692 5.41621L1.74992 4.04821C1.62092 3.77921 1.30342 3.66321 1.04092 3.78921C0.778416 3.91521 0.670916 4.23521 0.799916 4.50421L2.03592 7.07771L2.04042 7.07471C2.46392 8.26271 3.70592 8.98921 4.97642 8.72721C5.67142 8.58371 6.24242 8.17221 6.60392 7.62271L8.09092 5.36321C8.27842 5.07821 8.19942 4.69471 7.91442 4.50721L7.91342 4.50621Z" fill="#FFE1CD"/>
<g id="Group_2">
<path id="Vector_2" d="M13.7053 12.3925L13.6733 12.5785C13.5763 13.141 13.0418 13.5185 12.4788 13.4215C11.9163 13.3245 11.5388 12.7895 11.6358 12.227L11.6678 12.0415C11.4178 12.0215 11.1658 12.0045 10.9063 11.9995L10.5618 11.9675C7.5778 11.5155 7.1133 8.78505 7.0248 7.89955C7.0113 7.76455 6.8973 7.66505 6.7618 7.66855L2.2853 7.77555C2.1398 7.77905 2.0218 7.90005 2.0313 8.04505C2.1788 10.2375 3.5893 13.8695 7.0903 15.6305C7.1613 15.6665 7.2078 15.738 7.2083 15.8175L7.2318 18.529C7.2328 18.6475 7.3288 18.7425 7.4473 18.7425H19.1583C19.1583 15.769 17.0783 13.315 13.7043 12.393L13.7053 12.3925Z" fill="#D9D9D9"/>
<g id="Group_3">
<path id="Vector_3" d="M17.0048 10.2152C16.3933 11.0692 15.4828 11.6672 14.4578 11.8977L16.2568 12.2752C16.6498 12.3577 17.0448 12.1422 17.1873 11.7667L17.7828 10.2017C17.5363 10.2592 17.2733 10.2717 17.0048 10.2152Z" fill="#333333"/>
<path id="Vector_4" d="M9.31495 8.60035H9.30996C8.96296 8.52535 8.66146 8.35735 8.42896 8.13135L8.49895 10.0148C8.51295 10.3893 8.77996 10.7063 9.14696 10.7833L10.9595 11.1638C10.1175 10.5418 9.52845 9.63035 9.31495 8.60035Z" fill="#333333"/>
<path id="Vector_5" d="M9.44081 6.42672L12.8688 3.90322C12.8688 3.90322 15.6708 7.31722 17.9258 7.63672C17.9753 7.64372 18.0358 7.63872 18.0963 7.62622C18.2553 7.57572 18.4053 7.45922 18.5118 7.50022C18.5163 7.50172 18.5218 7.50022 18.5263 7.50222C19.1753 4.62172 17.1848 1.74072 14.1748 1.43872C11.8598 1.20672 9.66031 2.66622 8.97081 4.88822C8.90081 5.11422 8.84731 5.34072 8.80981 5.56672C8.80981 5.56672 8.82831 5.56822 8.85381 5.57322C8.96581 5.59472 9.27881 5.71672 9.44081 6.42672Z" fill="#333333"/>
<path id="Vector_6" d="M18.5124 7.50032C18.4059 7.45932 18.2559 7.57582 18.0969 7.62632C18.0359 7.63832 17.9759 7.64382 17.9264 7.63682C15.6714 7.31732 12.8694 3.90332 12.8694 3.90332L9.44136 6.42682C9.27886 5.71732 8.96586 5.59532 8.85436 5.57332C8.41036 5.78332 8.06936 6.17182 7.96536 6.67032C7.84986 7.21432 8.04286 7.75382 8.42936 8.13132C8.66136 8.35782 8.96336 8.52582 9.31036 8.60032H9.31536C9.52936 9.63032 10.1179 10.5418 10.9599 11.1633C11.2009 11.3413 11.4599 11.4993 11.7404 11.6253L11.6704 12.0403L11.6354 12.2253C11.5404 12.7903 11.9154 13.3253 12.4804 13.4203C13.0404 13.5203 13.5754 13.1403 13.6754 12.5803L13.7054 12.3953L13.7754 12.0003C14.0079 11.9868 14.2349 11.9483 14.4584 11.8978C15.4834 11.6673 16.3939 11.0693 17.0054 10.2153C17.2739 10.2718 17.5369 10.2598 17.7834 10.2023C18.3904 10.0603 18.8839 9.60932 19.0154 8.99082C19.1354 8.43132 18.9224 7.87832 18.5129 7.50082L18.5124 7.50032Z" fill="#FFE1CD"/>
</g>
<g id="Group_4">
<path id="Vector_7" d="M12.822 7.35187C12.8843 7.05514 12.7343 6.7725 12.487 6.72059C12.2398 6.66868 11.9888 6.86715 11.9265 7.16388C11.8642 7.46062 12.0142 7.74325 12.2615 7.79517C12.5087 7.84708 12.7597 7.64861 12.822 7.35187Z" fill="black"/>
<path id="Vector_8" d="M15.1867 7.84797C15.249 7.55123 15.0991 7.2686 14.8518 7.21668C14.6045 7.16477 14.3536 7.36324 14.2913 7.65998C14.229 7.95671 14.3789 8.23935 14.6262 8.29126C14.8735 8.34317 15.1244 8.1447 15.1867 7.84797Z" fill="black"/>
</g>
<path id="Vector_9" d="M13.6692 9.74232C13.7697 9.76332 13.8212 9.87532 13.7742 9.96682C13.6247 10.2573 13.2947 10.4248 12.9592 10.3543C12.6237 10.2838 12.3892 9.99832 12.3687 9.67182C12.3622 9.56932 12.4542 9.48732 12.5547 9.50882L13.6687 9.74282L13.6692 9.74232Z" fill="#5C2F17"/>
</g>
</g>
</g>
<defs>
<clipPath id="clip0_324_3437">
<rect width="20" height="20" fill="white"/>
</clipPath>
</defs>
</svg>
