<svg width="20" height="20" viewBox="0 0 20 20" fill="none" xmlns="http://www.w3.org/2000/svg">
<g id="&#240;&#159;&#152;&#173; &#236;&#151;&#137;&#236;&#151;&#137; &#236;&#154;&#176;&#235;&#138;&#148; &#236;&#150;&#188;&#234;&#181;&#180;" clip-path="url(#clip0_324_3475)">
<path id="Vector" d="M10 18.75C14.8325 18.75 18.75 14.8325 18.75 10C18.75 5.16751 14.8325 1.25 10 1.25C5.16751 1.25 1.25 5.16751 1.25 10C1.25 14.8325 5.16751 18.75 10 18.75Z" fill="#FFE6AE"/>
<path id="Vector_2" d="M6.60902 6.78527C6.03902 7.05127 5.77102 7.33527 5.54802 7.58877C5.41952 7.73477 5.23752 7.66777 5.23902 7.45977C5.24252 7.01027 5.52002 6.39977 6.26702 6.05127C7.01402 5.70327 7.66002 5.88277 8.00652 6.16927C8.16702 6.30177 8.10152 6.48477 7.90652 6.48927C7.56902 6.49677 7.17902 6.51977 6.60902 6.78527Z" fill="black"/>
<path id="Vector_3" d="M13.391 6.78527C13.961 7.05127 14.229 7.33527 14.452 7.58877C14.5805 7.73477 14.7625 7.66777 14.761 7.45977C14.7575 7.01027 14.48 6.39977 13.733 6.05127C12.986 5.70327 12.34 5.88277 11.9935 6.16927C11.833 6.30177 11.8985 6.48477 12.0935 6.48927C12.431 6.49677 12.821 6.51977 13.391 6.78527Z" fill="black"/>
<path id="Vector_4" d="M10 15.7163C10.6904 15.7163 11.25 15.1567 11.25 14.4663C11.25 13.776 10.6904 13.2163 10 13.2163C9.30964 13.2163 8.75 13.776 8.75 14.4663C8.75 15.1567 9.30964 15.7163 10 15.7163Z" fill="#FFB37B"/>
<g id="Group">
<path id="Vector_5" d="M11.5371 9.82471L12.8656 17.7287C13.6556 17.4357 14.3876 17.0272 15.0421 16.5202L13.9166 9.82471H11.5371Z" fill="white"/>
<path id="Vector_6" d="M6.08302 9.82471L4.95752 16.5202C5.61202 17.0272 6.34402 17.4352 7.13402 17.7287L8.46252 9.82471H6.08252H6.08302Z" fill="white"/>
</g>
<path id="Vector_7" d="M14.1395 10.0497C14.2705 10.0952 14.421 10.0152 14.392 9.91416C14.2305 9.35216 13.5465 8.93066 12.727 8.93066C11.9075 8.93066 11.2235 9.35266 11.062 9.91416C11.033 10.0152 11.1835 10.0952 11.3145 10.0497C11.6 9.95016 12.0875 9.82416 12.727 9.82416C13.3665 9.82416 13.854 9.94966 14.1395 10.0497Z" fill="black"/>
<path id="Vector_8" d="M5.86062 10.0497C5.72962 10.0952 5.57912 10.0152 5.60812 9.91416C5.76962 9.35216 6.45362 8.93066 7.27312 8.93066C8.09262 8.93066 8.77662 9.35266 8.93812 9.91416C8.96712 10.0152 8.81662 10.0952 8.68562 10.0497C8.40012 9.95016 7.91262 9.82416 7.27312 9.82416C6.63362 9.82416 6.14612 9.94966 5.86062 10.0497Z" fill="black"/>
</g>
<defs>
<clipPath id="clip0_324_3475">
<rect width="20" height="20" fill="white"/>
</clipPath>
</defs>
</svg>
