<svg width="393" height="482" viewBox="0 0 393 482" fill="none" xmlns="http://www.w3.org/2000/svg">
<rect x="115.425" y="74.4199" width="129.112" height="200.628" rx="10" transform="rotate(-10 115.425 74.4199)" fill="#D5DDFF"/>
<rect x="150.425" y="52" width="129.112" height="200.628" rx="10" transform="rotate(10 150.425 52)" fill="#EFE5FF"/>
<g filter="url(#filter0_d_1_818)">
<rect x="131" y="62" width="129" height="200" rx="10" fill="#F9FFD6"/>
</g>
<path d="M122.883 326.117C126.711 326.137 129.133 327.348 129.152 329.438C129.133 331.488 126.711 332.719 122.883 332.719C119.074 332.719 116.633 331.488 116.633 329.438C116.633 327.348 119.074 326.137 122.883 326.117ZM122.883 327.758C120.344 327.758 118.801 328.363 118.82 329.438C118.801 330.473 120.344 331.039 122.883 331.039C125.441 331.039 126.984 330.473 127.004 329.438C126.984 328.363 125.441 327.758 122.883 327.758ZM129.035 315.922V317.387C129.035 318.773 129.035 320.258 128.547 322.074L126.398 321.879C126.838 320.16 126.867 318.92 126.867 317.641H116.809V315.922H129.035ZM130.988 323.09V324.848H114.973V323.09H121.184V319.887H123.332V323.09H130.988ZM147.832 324.984V326.742H143.906V332.738H141.699V326.742H137.793V332.738H135.566V326.742H131.699V324.984H147.832ZM139.727 315.707C143.477 315.727 146.094 317.25 146.094 319.652C146.094 322.016 143.477 323.52 139.727 323.52C135.957 323.52 133.379 322.016 133.398 319.652C133.379 317.25 135.957 315.727 139.727 315.707ZM139.727 317.465C137.227 317.465 135.605 318.266 135.625 319.652C135.605 321 137.227 321.801 139.727 321.801C142.227 321.801 143.848 321 143.848 319.652C143.848 318.266 142.227 317.465 139.727 317.465ZM162.332 315.082V322.113H165.047V323.91H162.332V332.738H160.184V315.082H162.332ZM158.816 317.797V319.535H148.406V317.797H152.586V315.336H154.754V317.797H158.816ZM153.68 320.688C156.219 320.688 158.113 322.406 158.113 324.848C158.113 327.289 156.219 328.988 153.68 328.988C151.102 328.988 149.207 327.289 149.227 324.848C149.207 322.406 151.102 320.688 153.68 320.688ZM153.68 322.465C152.293 322.465 151.297 323.402 151.297 324.848C151.297 326.293 152.293 327.211 153.68 327.191C155.027 327.211 156.023 326.293 156.043 324.848C156.023 323.402 155.027 322.465 153.68 322.465ZM179.703 316.703V318.402C179.684 320.59 179.684 323.051 179 326.742L176.812 326.508C177.496 323.07 177.496 320.561 177.516 318.441H166.969V316.703H179.703ZM181.383 328.676V330.453H165.289V328.676H171.227V322.543H173.375V328.676H181.383ZM201.027 315.102V324.887H198.84V315.102H201.027ZM192.902 317.426C192.902 319.652 194.387 321.762 197.18 322.562L196.145 324.301C194.084 323.656 192.6 322.348 191.809 320.668C190.998 322.484 189.494 323.92 187.375 324.594L186.32 322.875C189.172 321.996 190.656 319.75 190.656 317.426V315.727H192.902V317.426ZM201.125 325.766V327.484H198.898V330.766H201.281V332.523H188.938V330.766H191.34V327.484H189.094V325.766H201.125ZM193.488 330.766H196.75V327.484H193.488V330.766ZM219.199 324.203V325.941H203.105V324.203H219.199ZM217.383 330.629V332.387H205.098V327.25H207.266V330.629H217.383ZM211.133 315.648C214.98 315.648 217.48 316.996 217.5 319.223C217.48 321.469 214.98 322.836 211.133 322.836C207.285 322.836 204.766 321.469 204.766 319.223C204.766 316.996 207.285 315.648 211.133 315.648ZM211.133 317.387C208.574 317.387 207.012 318.051 207.031 319.223C207.012 320.414 208.574 321.078 211.133 321.059C213.711 321.078 215.254 320.414 215.254 319.223C215.254 318.051 213.711 317.387 211.133 317.387ZM238.922 315.102V325.414H236.754V323.461H232.555V321.703H236.754V319.809H232.73C231.607 322.621 229.039 324.584 225.191 325.648L224.312 323.93C228.443 322.807 230.641 320.717 230.992 318.09H225.25V316.332H233.355C233.355 316.947 233.307 317.533 233.199 318.09H236.754V315.102H238.922ZM233.082 325.609C236.656 325.609 239.039 326.957 239.039 329.125C239.039 331.293 236.656 332.641 233.082 332.641C229.469 332.641 227.086 331.293 227.086 329.125C227.086 326.957 229.469 325.609 233.082 325.609ZM233.082 327.309C230.699 327.309 229.254 327.953 229.254 329.125C229.254 330.277 230.699 330.922 233.082 330.922C235.406 330.922 236.871 330.277 236.871 329.125C236.871 327.953 235.406 327.309 233.082 327.309ZM255.707 315.082V325.766H253.539V322.113H251.02V320.316H253.539V315.082H255.707ZM255.707 326.566V332.523H243.969V326.566H255.707ZM246.137 328.285V330.766H253.578V328.285H246.137ZM251.312 316.723V318.48H240.961V316.723H245.062V314.945H247.211V316.723H251.312ZM246.137 319.164C248.598 319.164 250.316 320.473 250.336 322.328C250.316 324.242 248.598 325.492 246.137 325.492C243.695 325.492 241.957 324.242 241.957 322.328C241.957 320.473 243.695 319.164 246.137 319.164ZM246.137 320.805C244.867 320.805 244.027 321.391 244.027 322.328C244.027 323.305 244.867 323.871 246.137 323.871C247.406 323.871 248.246 323.305 248.246 322.328C248.246 321.391 247.406 320.805 246.137 320.805ZM265.734 315.355C269.758 315.355 272.082 316.43 272.102 318.383C272.082 320.355 269.758 321.41 265.734 321.43C261.711 321.41 259.367 320.355 259.367 318.383C259.367 316.43 261.711 315.355 265.734 315.355ZM265.734 316.957C263.039 316.957 261.633 317.465 261.652 318.383C261.633 319.359 263.039 319.809 265.734 319.809C268.469 319.809 269.855 319.359 269.855 318.383C269.855 317.465 268.469 316.957 265.734 316.957ZM273.801 322.367V324.105H257.707V322.367H273.801ZM271.789 325.297V329.613H261.75V330.922H272.277V332.582H259.621V328.07H269.66V326.898H259.602V325.297H271.789ZM140.234 341.102V351.414H138.066V349.461H133.867V347.703H138.066V345.809H134.043C132.92 348.621 130.352 350.584 126.504 351.648L125.625 349.93C129.756 348.807 131.953 346.717 132.305 344.09H126.562V342.332H134.668C134.668 342.947 134.619 343.533 134.512 344.09H138.066V341.102H140.234ZM134.395 351.609C137.969 351.609 140.352 352.957 140.352 355.125C140.352 357.293 137.969 358.641 134.395 358.641C130.781 358.641 128.398 357.293 128.398 355.125C128.398 352.957 130.781 351.609 134.395 351.609ZM134.395 353.309C132.012 353.309 130.566 353.953 130.566 355.125C130.566 356.277 132.012 356.922 134.395 356.922C136.719 356.922 138.184 356.277 138.184 355.125C138.184 353.953 136.719 353.309 134.395 353.309ZM157.02 341.082V351.766H154.852V348.113H152.332V346.316H154.852V341.082H157.02ZM157.02 352.566V358.523H145.281V352.566H157.02ZM147.449 354.285V356.766H154.891V354.285H147.449ZM152.625 342.723V344.48H142.273V342.723H146.375V340.945H148.523V342.723H152.625ZM147.449 345.164C149.91 345.164 151.629 346.473 151.648 348.328C151.629 350.242 149.91 351.492 147.449 351.492C145.008 351.492 143.27 350.242 143.27 348.328C143.27 346.473 145.008 345.164 147.449 345.164ZM147.449 346.805C146.18 346.805 145.34 347.391 145.34 348.328C145.34 349.305 146.18 349.871 147.449 349.871C148.719 349.871 149.559 349.305 149.559 348.328C149.559 347.391 148.719 346.805 147.449 346.805ZM172.445 342.82C172.445 348.152 170.98 352.723 164.477 355.965L163.285 354.324C166.342 352.811 168.158 351.053 169.184 348.953L163.695 349.48L163.422 347.605L169.848 347.195C170.072 346.375 170.209 345.506 170.277 344.578H164.34V342.82H172.445ZM177.094 341.082V347.996H179.711V349.773H177.094V358.699H174.926V341.082H177.094ZM194.387 349.363V351.102H182.004V342.625H194.25V344.383H184.152V349.363H194.387ZM196.184 354.695V356.492H180.051V354.695H196.184ZM212.07 341.082V358.738H209.98V341.082H212.07ZM208.438 341.395V357.879H206.367V349.48H204.688C204.482 352.918 203.008 355.047 200.82 355.027C198.516 355.047 197.012 352.605 197.012 348.719C197.012 344.832 198.516 342.43 200.82 342.43C202.959 342.43 204.414 344.422 204.668 347.723H206.367V341.395H208.438ZM200.82 344.48C199.707 344.461 199.004 345.965 199.023 348.719C199.004 351.473 199.707 352.977 200.82 352.957C201.992 352.977 202.695 351.473 202.695 348.719C202.695 345.965 201.992 344.461 200.82 344.48ZM224.352 344.109C224.352 346.258 225.777 348.426 228.512 349.344L227.418 351.023C225.445 350.379 224.049 349.041 223.277 347.391C222.506 349.236 221.031 350.721 218.941 351.414L217.828 349.695C220.641 348.777 222.145 346.434 222.145 344.129V343.895H218.473V342.156H228.004V343.895H224.352V344.109ZM232.652 352.449V358.738H230.484V354.188H220.621V352.449H232.652ZM232.652 341.082V351.609H230.484V347.234H227.477V345.457H230.484V341.082H232.652ZM239.477 342.371C241.869 342.371 243.637 344.363 243.949 347.586H247.309V341.082H249.457V358.758H247.309V349.344H243.969C243.734 352.752 241.938 354.852 239.477 354.852C236.82 354.852 234.945 352.449 234.945 348.602C234.945 344.793 236.82 342.371 239.477 342.371ZM239.477 344.324C238.012 344.324 237.016 345.906 237.035 348.602C237.016 351.316 238.012 352.898 239.477 352.898C240.941 352.898 241.918 351.316 241.938 348.602C241.918 345.906 240.941 344.324 239.477 344.324ZM267.57 354.812V356.59H251.438V354.812H255.168V350.34C253.762 349.539 252.912 348.279 252.922 346.707C252.902 343.895 255.676 342.039 259.465 342.039C263.273 342.039 266.047 343.895 266.047 346.707C266.047 348.25 265.227 349.49 263.859 350.301V354.812H267.57ZM259.465 343.758C256.828 343.758 255.031 344.871 255.051 346.707C255.031 348.523 256.828 349.656 259.465 349.656C262.102 349.656 263.918 348.523 263.918 346.707C263.918 344.871 262.102 343.758 259.465 343.758ZM257.316 354.812H261.652V351.121C260.979 351.277 260.246 351.355 259.465 351.355C258.703 351.355 257.98 351.277 257.316 351.141V354.812Z" fill="black"/>
<path d="M118.77 384.375V392.656H117.536V389.016H114.739V388H117.536V384.375H118.77ZM114.161 393.094C117.052 393.094 118.817 394.031 118.817 395.672C118.817 397.312 117.052 398.25 114.161 398.266C111.27 398.25 109.505 397.312 109.505 395.672C109.505 394.031 111.27 393.094 114.161 393.094ZM114.161 394.047C112.036 394.047 110.708 394.656 110.723 395.672C110.708 396.672 112.036 397.281 114.161 397.281C116.286 397.281 117.598 396.672 117.598 395.672C117.598 394.656 116.286 394.047 114.161 394.047ZM112.083 386.922C112.083 388.734 113.473 390.453 115.505 391.156L114.864 392.141C113.302 391.578 112.091 390.414 111.505 388.969C110.895 390.602 109.606 391.906 107.958 392.531L107.317 391.547C109.38 390.797 110.848 388.922 110.848 386.938V386.422H107.708V385.391H115.192V386.422H112.083V386.922ZM127.62 386.781V387.781H120.652V386.781H123.542V384.797H124.761V386.781H127.62ZM124.136 388.719C125.886 388.719 127.136 390.031 127.152 391.875C127.136 393.734 125.886 395.062 124.136 395.062C122.402 395.062 121.152 393.734 121.152 391.875C121.152 390.031 122.402 388.719 124.136 388.719ZM124.136 389.75C123.042 389.766 122.245 390.656 122.245 391.875C122.245 393.109 123.042 394 124.136 393.984C125.245 394 126.058 393.109 126.058 391.875C126.058 390.656 125.245 389.766 124.136 389.75ZM132.511 384.375V398.266H131.339V391.25H129.495V397.578H128.339V384.719H129.495V390.234H131.339V384.375H132.511ZM139.111 387.359C139.111 389.234 140.595 390.922 142.673 391.578L142.048 392.562C140.431 392.016 139.142 390.875 138.517 389.406C137.908 390.992 136.603 392.242 134.955 392.844L134.314 391.859C136.392 391.125 137.877 389.328 137.877 387.359V386.547H134.627V385.547H142.314V386.547H139.111V387.359ZM145.58 384.391V394.578H144.361V384.391H145.58ZM146.017 396.938V397.969H136.611V393.609H137.83V396.938H146.017ZM164.077 386.484V387.5H162.014V389.438H164.077V390.469H162.014V392.625H160.795V384.375H162.014V386.484H164.077ZM155.061 385.219C157.17 385.203 158.702 386.547 158.717 388.484C158.702 390.422 157.17 391.734 155.061 391.75C152.952 391.734 151.405 390.422 151.42 388.484C151.405 386.547 152.952 385.203 155.061 385.219ZM155.061 386.266C153.655 386.25 152.608 387.172 152.623 388.484C152.608 389.797 153.655 390.703 155.061 390.719C156.483 390.703 157.514 389.797 157.514 388.484C157.514 387.172 156.483 386.25 155.061 386.266ZM157.561 393.047C160.389 393.062 162.139 394 162.139 395.656C162.139 397.281 160.389 398.234 157.561 398.234C154.717 398.234 152.952 397.281 152.952 395.656C152.952 394 154.717 393.062 157.561 393.047ZM157.561 394.047C155.467 394.047 154.17 394.641 154.186 395.656C154.17 396.656 155.467 397.25 157.561 397.25C159.67 397.25 160.952 396.656 160.952 395.656C160.952 394.641 159.67 394.047 157.561 394.047ZM169.505 386.391C169.489 388.422 170.958 390.219 173.02 390.938L172.395 391.906C170.786 391.32 169.512 390.117 168.895 388.578C168.278 390.227 166.989 391.523 165.364 392.156L164.723 391.188C166.802 390.422 168.255 388.484 168.255 386.391V385.062H169.505V386.391ZM176.052 393.438V398.266H174.833V394.453H166.708V393.438H176.052ZM176.052 384.375V392.75H174.833V384.375H176.052ZM184.339 384.625C187.433 384.625 189.245 385.469 189.245 387.016C189.245 388.594 187.433 389.438 184.339 389.453C181.245 389.438 179.417 388.594 179.417 387.016C179.417 385.469 181.245 384.625 184.339 384.625ZM184.339 385.547C182.027 385.547 180.683 386.109 180.698 387.016C180.683 387.984 182.027 388.516 184.339 388.516C186.636 388.516 187.995 387.984 187.995 387.016C187.995 386.109 186.636 385.547 184.339 385.547ZM190.667 390.391V391.391H178.011V390.391H190.667ZM189.042 392.594V395.703H180.792V397.141H189.464V398.109H179.573V394.797H187.839V393.531H179.542V392.594H189.042ZM206.039 384.359V389.844H208.07V390.891H206.039V398.266H204.82V384.359H206.039ZM199.008 385.844V386.859H196.695V393.578C197.383 393.562 198.227 393.5 199.148 393.297L199.273 394.328C197.961 394.609 196.914 394.625 196.086 394.625H195.477V385.844H199.008ZM203.508 385.844V386.859H201.023V393.594C202.109 393.578 202.977 393.508 203.961 393.266L204.086 394.297C202.867 394.594 201.883 394.625 200.477 394.625H199.805V385.844H203.508ZM219.233 384.375V389.906H221.561V390.938H219.233V398.297H218.014V384.375H219.233ZM215.342 385.672V390.641H210.28V393.891C212.858 393.891 214.655 393.805 216.764 393.406L216.889 394.422C214.702 394.828 212.842 394.922 210.17 394.938H209.061V389.625H214.123V386.688H209.03V385.672H215.342ZM230.355 386.938C230.355 388.75 231.745 390.469 233.777 391.172L233.136 392.141C231.566 391.578 230.355 390.414 229.761 388.984C229.159 390.586 227.878 391.867 226.23 392.469L225.589 391.5C227.636 390.766 229.12 388.906 229.12 386.953V386.344H225.98V385.344H233.464V386.344H230.355V386.938ZM237.042 393.438V398.266H235.808V394.453H227.698V393.438H237.042ZM237.042 384.375V392.703H235.808V389.047H233.027V388.016H235.808V384.375H237.042ZM249.705 384.375V389.875H252.033V390.906H249.705V398.297H248.486V384.375H249.705ZM246.048 385.734V386.75H240.783V393.781C243.298 393.781 245.08 393.664 247.142 393.281L247.298 394.344C245.127 394.734 243.298 394.812 240.658 394.812H239.564V385.734H246.048ZM268.717 395.469V396.484H255.998V395.469H261.717V392.469H257.498V385.359H258.733V387.875H265.952V385.359H267.155V392.469H262.92V395.469H268.717ZM258.733 391.469H265.952V388.875H258.733V391.469ZM276.458 385.594V386.828H279.708V384.391H280.942V394.531H279.708V390.828H276.458V392.078H270.083V385.594H276.458ZM271.302 386.609V391.094H275.255V386.609H271.302ZM281.255 396.938V397.969H271.958V393.625H273.192V396.938H281.255ZM276.458 389.812H279.708V387.859H276.458V389.812ZM96.5 410.062V411.078H86.9219V406.094H88.1406V410.062H96.5ZM98 413.172V414.203H92.1875V419.266H90.9688V414.203H85.2812V413.172H98ZM109.694 406.281V407.5C109.694 408.82 109.694 410.25 109.303 412.25H111.366V413.266H105.631V419.297H104.397V413.266H98.7094V412.25H108.053C108.475 410.25 108.475 408.789 108.475 407.5V407.297H100.303V406.281H109.694ZM125.137 410.922V411.953H122.887V419.266H121.669V405.375H122.887V410.922H125.137ZM113.934 406.75V414.703C115.966 414.695 118.036 414.539 120.325 414.062L120.481 415.109C118.091 415.594 115.934 415.734 113.825 415.734H112.716V406.75H113.934ZM132.916 406.453C134.806 406.469 136.166 408.086 136.369 410.688H139.478V405.375H140.697V419.297H139.478V411.703H136.384C136.236 414.422 134.853 416.125 132.916 416.125C130.869 416.125 129.431 414.25 129.431 411.297C129.431 408.344 130.869 406.469 132.916 406.453ZM132.916 407.547C131.541 407.562 130.603 409.031 130.603 411.297C130.603 413.562 131.541 415.031 132.916 415.031C134.275 415.031 135.228 413.562 135.228 411.297C135.228 409.031 134.275 407.562 132.916 407.547ZM154.125 405.391V413.156H152.891V410.891H150.125V409.891H152.891V408.203H150.125V407.188H152.891V405.391H154.125ZM149.203 406.016V409.766H144.422V411.703C147 411.688 148.344 411.664 150.031 411.375L150.141 412.391C148.375 412.688 146.969 412.719 144.188 412.734H143.203V408.812H147.984V407.031H143.172V406.016H149.203ZM146.297 413.719V415.344H152.906V413.719H154.125V419.078H145.062V413.719H146.297ZM146.297 418.078H152.906V416.328H146.297V418.078ZM161.006 409.641C161.006 412 162.725 414.391 164.772 415.281L164.084 416.25C162.459 415.508 161.053 413.906 160.412 411.984C159.756 414.023 158.358 415.797 156.772 416.594L156.037 415.625C158.022 414.672 159.756 412.047 159.772 409.641V407.828H156.491V406.812H164.319V407.828H161.006V409.641ZM167.491 405.375V419.266H166.256V405.375H167.491ZM176.956 406.172C179.034 406.172 180.566 407.5 180.566 409.375C180.566 411.266 179.034 412.578 176.956 412.594C174.878 412.578 173.331 411.266 173.347 409.375C173.331 407.5 174.878 406.172 176.956 406.172ZM176.956 407.203C175.597 407.203 174.534 408.125 174.55 409.375C174.534 410.656 175.597 411.578 176.956 411.578C178.331 411.578 179.363 410.656 179.363 409.375C179.363 408.125 178.331 407.203 176.956 407.203ZM183.941 405.375V408.516H186.034V409.531H183.941V412.328H182.722V405.375H183.941ZM175.753 413.828V417.875C176.558 417.852 177.628 417.734 178.613 417.406L178.8 418.391C177.441 418.844 176.128 418.891 175.222 418.891H174.566V413.828H175.753ZM185.331 413.891V414.844H178.316V413.891H181.238V412.656H182.441V413.891H185.331ZM181.816 415.312C183.331 415.312 184.409 416.078 184.425 417.281C184.409 418.484 183.331 419.234 181.816 419.234C180.284 419.234 179.222 418.484 179.238 417.281C179.222 416.078 180.284 415.312 181.816 415.312ZM181.816 416.203C180.956 416.203 180.331 416.641 180.331 417.281C180.331 417.938 180.956 418.359 181.816 418.359C182.691 418.359 183.3 417.938 183.3 417.281C183.3 416.641 182.691 416.203 181.816 416.203ZM198.4 405.375V419.266H197.228V405.375H198.4ZM195.478 405.75V418.562H194.306V412.078H191.369C190.517 413.695 189.181 415.125 187.244 416.266L186.525 415.375C189.548 413.586 191.064 411.078 191.291 408.172H187.119V407.156H192.509C192.502 408.523 192.283 409.844 191.822 411.078H194.306V405.75H195.478ZM208.256 407.953C208.256 409.797 209.616 411.484 211.678 412.203L211.053 413.156C209.467 412.594 208.256 411.453 207.663 410.016C207.069 411.594 205.795 412.82 204.163 413.422L203.506 412.469C205.584 411.734 207.038 409.938 207.053 407.953V407.359H203.881V406.359H211.381V407.359H208.256V407.953ZM214.413 405.375V409.047H216.506V410.094H214.413V413.75H213.194V405.375H214.413ZM214.413 414.484V419.266H213.194V415.484H205.319V414.484H214.413ZM221.762 407.562C221.747 409.547 223.153 411.297 225.2 411.984L224.512 412.938C222.981 412.359 221.778 411.234 221.184 409.766C220.583 411.43 219.309 412.727 217.637 413.359L216.966 412.359C219.106 411.609 220.528 409.766 220.544 407.609V406.172H221.762V407.562ZM228.497 405.375V413.609H227.262V409.375H224.169V408.359H227.262V405.375H228.497ZM223.887 414.016C226.778 414.016 228.544 414.969 228.544 416.641C228.544 418.297 226.778 419.234 223.887 419.234C220.997 419.234 219.231 418.297 219.231 416.641C219.231 414.969 220.997 414.016 223.887 414.016ZM223.887 414.984C221.762 414.984 220.434 415.609 220.45 416.641C220.434 417.641 221.762 418.25 223.887 418.25C226.012 418.25 227.325 417.641 227.325 416.641C227.325 415.609 226.012 414.984 223.887 414.984ZM241.269 405.328V408.703H243.378V409.719H241.269V413.016H240.05V405.328H241.269ZM241.269 413.734V416.812H233.644V418.172H241.784V419.109H232.441V415.906H240.05V414.656H232.409V413.734H241.269ZM238.722 406.641V407.625H230.441V406.641H233.972V405.234H235.191V406.641H238.722ZM234.581 408.25C236.597 408.25 237.909 409.125 237.925 410.531C237.909 411.938 236.597 412.812 234.581 412.812C232.55 412.812 231.222 411.938 231.238 410.531C231.222 409.125 232.55 408.25 234.581 408.25ZM234.581 409.156C233.269 409.156 232.394 409.703 232.409 410.531C232.394 411.375 233.269 411.891 234.581 411.891C235.894 411.891 236.753 411.375 236.769 410.531C236.753 409.703 235.894 409.156 234.581 409.156ZM254.422 406.672C254.422 408.625 256.984 410.328 259.484 410.672L258.984 411.672C256.828 411.312 254.695 410.117 253.797 408.406C252.906 410.125 250.766 411.312 248.609 411.672L248.109 410.672C250.609 410.328 253.156 408.656 253.156 406.672V405.875H254.422V406.672ZM260.109 413.203V414.234H254.359V419.266H253.156V414.234H247.453V413.203H260.109ZM269.2 414.703C269.2 415.93 269.856 417.234 271.184 417.984C272.497 417.164 273.2 415.781 273.2 414.703V413.938H274.403V414.703C274.403 416.125 275.45 417.562 277.231 418.172L276.622 419.078C275.231 418.586 274.255 417.617 273.778 416.453C273.348 417.578 272.497 418.641 271.216 419.188C269.864 418.672 269.005 417.648 268.591 416.484C268.098 417.609 267.137 418.578 265.809 419.078L265.184 418.172C266.934 417.516 267.997 416.031 268.012 414.703V413.938H269.2V414.703ZM275.966 405.391V413.328H274.747V405.391H275.966ZM268.466 406.203C270.575 406.203 272.106 407.516 272.106 409.453C272.106 411.359 270.575 412.672 268.466 412.672C266.356 412.672 264.825 411.359 264.825 409.453C264.825 407.516 266.356 406.203 268.466 406.203ZM268.466 407.25C267.044 407.234 266.012 408.156 266.028 409.453C266.012 410.734 267.044 411.641 268.466 411.656C269.872 411.641 270.903 410.734 270.903 409.453C270.903 408.156 269.872 407.234 268.466 407.25ZM281.659 406.453C283.55 406.469 284.909 408.086 285.113 410.688H288.222V405.375H289.441V419.297H288.222V411.703H285.128C284.98 414.422 283.597 416.125 281.659 416.125C279.613 416.125 278.175 414.25 278.175 411.297C278.175 408.344 279.613 406.469 281.659 406.453ZM281.659 407.547C280.284 407.562 279.347 409.031 279.347 411.297C279.347 413.562 280.284 415.031 281.659 415.031C283.019 415.031 283.972 413.562 283.972 411.297C283.972 409.031 283.019 407.562 281.659 407.547ZM304.072 416.453V417.484H291.353V416.453H294.509V412.703C293.322 412.086 292.603 411.086 292.603 409.828C292.603 407.672 294.712 406.266 297.681 406.25C300.65 406.266 302.759 407.672 302.759 409.828C302.759 411.062 302.064 412.055 300.916 412.672V416.453H304.072ZM297.681 407.266C295.4 407.25 293.791 408.281 293.791 409.828C293.791 411.375 295.4 412.422 297.681 412.422C299.947 412.422 301.572 411.375 301.572 409.828C301.572 408.281 299.947 407.25 297.681 407.266ZM295.712 416.453H299.681V413.141C299.08 413.305 298.408 413.391 297.681 413.391C296.97 413.391 296.306 413.312 295.712 413.156V416.453ZM306.25 418.094C305.703 418.094 305.234 417.641 305.25 417.078C305.234 416.531 305.703 416.078 306.25 416.078C306.797 416.078 307.25 416.531 307.25 417.078C307.25 417.641 306.797 418.094 306.25 418.094Z" fill="black"/>
<defs>
<filter id="filter0_d_1_818" x="112.2" y="47.2" width="166.6" height="237.6" filterUnits="userSpaceOnUse" color-interpolation-filters="sRGB">
<feFlood flood-opacity="0" result="BackgroundImageFix"/>
<feColorMatrix in="SourceAlpha" type="matrix" values="0 0 0 0 0 0 0 0 0 0 0 0 0 0 0 0 0 0 127 0" result="hardAlpha"/>
<feOffset dy="4"/>
<feGaussianBlur stdDeviation="9.4"/>
<feComposite in2="hardAlpha" operator="out"/>
<feColorMatrix type="matrix" values="0 0 0 0 0 0 0 0 0 0 0 0 0 0 0 0 0 0 0.25 0"/>
<feBlend mode="normal" in2="BackgroundImageFix" result="effect1_dropShadow_1_818"/>
<feBlend mode="normal" in="SourceGraphic" in2="effect1_dropShadow_1_818" result="shape"/>
</filter>
</defs>
</svg>
