<svg width="393" height="482" viewBox="0 0 393 482" fill="none" xmlns="http://www.w3.org/2000/svg">
<rect width="393" height="482" fill="white"/>
<rect x="68.0085" y="62.7603" width="122.434" height="190.251" rx="10" transform="rotate(-10 68.0085 62.7603)" fill="#D5DDFF"/>
<rect x="204.407" y="41.5" width="122.434" height="190.251" rx="10" transform="rotate(10 204.407 41.5)" fill="#EFE5FF"/>
<g filter="url(#filter0_d_55_3908)">
<rect x="127.75" y="71.8447" width="122.328" height="189.655" rx="10" fill="#F9FFD6"/>
</g>
<path d="M272.902 167.541V167.542C272.902 172.267 272.151 176.72 270.649 180.903C269.146 185.091 267.107 188.792 264.533 192.009L264.393 192.184L264.552 192.342L300.839 228.629C301.976 229.766 302.548 231.212 302.548 232.988C302.548 234.765 301.976 236.211 300.839 237.348C299.703 238.484 298.256 239.056 296.48 239.056C294.703 239.056 293.257 238.484 292.121 237.348L255.833 201.06L255.675 200.902L255.5 201.042C252.284 203.615 248.582 205.654 244.394 207.158C240.211 208.659 235.758 209.411 231.033 209.411C219.326 209.411 209.428 205.358 201.325 197.25C193.221 189.142 189.168 179.244 189.164 167.542C189.16 155.839 193.212 145.941 201.325 137.833C209.437 129.725 219.335 125.672 231.033 125.672C242.731 125.672 252.631 129.725 260.748 137.833C268.865 145.941 272.915 155.839 272.902 167.541ZM231.034 196.951C239.199 196.951 246.148 194.091 251.868 188.376C257.587 182.661 260.447 175.711 260.443 167.541C260.438 159.372 257.579 152.424 251.868 146.713C246.157 141.003 239.207 138.141 231.033 138.132C222.859 138.123 215.911 140.985 210.205 146.714C204.498 152.442 201.637 159.389 201.624 167.541C201.611 175.694 204.473 182.644 210.205 188.376C215.937 194.109 222.885 196.968 231.034 196.951Z" fill="white" stroke="black" stroke-width="0.5"/>
<path d="M111.977 304.582V311.281H114.691V313.059H111.977V322.258H109.809V304.582H111.977ZM107.133 306.262V308.02H101.039V316.125C103.783 316.125 105.951 315.988 108.383 315.559L108.637 317.395C105.902 317.863 103.52 317.941 100.336 317.941H98.8711V306.262H107.133ZM131.047 314.211V315.949H114.914V314.211H131.047ZM129.445 320.129V321.887H116.984V317.062H119.172V320.129H129.445ZM129.055 305.051V309.758H119.113V311.262H129.406V312.902H116.965V308.195H126.887V306.75H116.906V305.051H129.055ZM150.75 304.602V314.914H148.582V312.961H144.383V311.203H148.582V309.309H144.559C143.436 312.121 140.867 314.084 137.02 315.148L136.141 313.43C140.271 312.307 142.469 310.217 142.82 307.59H137.078V305.832H145.184C145.184 306.447 145.135 307.033 145.027 307.59H148.582V304.602H150.75ZM144.91 315.109C148.484 315.109 150.867 316.457 150.867 318.625C150.867 320.793 148.484 322.141 144.91 322.141C141.297 322.141 138.914 320.793 138.914 318.625C138.914 316.457 141.297 315.109 144.91 315.109ZM144.91 316.809C142.527 316.809 141.082 317.453 141.082 318.625C141.082 319.777 142.527 320.422 144.91 320.422C147.234 320.422 148.699 319.777 148.699 318.625C148.699 317.453 147.234 316.809 144.91 316.809ZM167.535 304.582V315.266H165.367V311.613H162.848V309.816H165.367V304.582H167.535ZM167.535 316.066V322.023H155.797V316.066H167.535ZM157.965 317.785V320.266H165.406V317.785H157.965ZM163.141 306.223V307.98H152.789V306.223H156.891V304.445H159.039V306.223H163.141ZM157.965 308.664C160.426 308.664 162.145 309.973 162.164 311.828C162.145 313.742 160.426 314.992 157.965 314.992C155.523 314.992 153.785 313.742 153.785 311.828C153.785 309.973 155.523 308.664 157.965 308.664ZM157.965 310.305C156.695 310.305 155.855 310.891 155.855 311.828C155.855 312.805 156.695 313.371 157.965 313.371C159.234 313.371 160.074 312.805 160.074 311.828C160.074 310.891 159.234 310.305 157.965 310.305ZM182.961 306.32C182.961 311.652 181.496 316.223 174.992 319.465L173.801 317.824C176.857 316.311 178.674 314.553 179.699 312.453L174.211 312.98L173.938 311.105L180.363 310.695C180.588 309.875 180.725 309.006 180.793 308.078H174.855V306.32H182.961ZM187.609 304.582V311.496H190.227V313.273H187.609V322.199H185.441V304.582H187.609ZM204.902 312.863V314.602H192.52V306.125H204.766V307.883H194.668V312.863H204.902ZM206.699 318.195V319.992H190.566V318.195H206.699ZM223.465 312.59V314.23H207.332V312.59H223.465ZM221.512 315.285V319.309H211.395V320.539H222.039V322.043H209.227V317.902H219.363V316.809H209.207V315.285H221.512ZM221.473 304.973V308.957H211.531V310.109H221.785V311.594H209.383V307.551H219.305V306.477H209.324V304.973H221.473ZM242.582 308.879V310.598H230.434V305.207H242.426V306.965H232.602V308.879H242.582ZM244.477 311.711V313.43H237.484V314.797H242.465V319.094H232.426V320.402H242.953V322.062H230.297V317.57H240.336V316.398H230.277V314.797H235.336V313.43H228.383V311.711H244.477ZM259.953 304.582V322.258H257.785V312.863H254.758V311.086H257.785V304.582H259.953ZM253.742 306.125V312.59H247.961V316.301C250.578 316.291 252.697 316.203 255.07 315.773L255.246 317.551C252.609 318.02 250.266 318.117 247.219 318.117H245.812V310.832H251.613V307.883H245.754V306.125H253.742ZM278.086 318.332V320.109H261.953V318.332H268.906V314.895H263.73V305.754H265.898V308.645H274.082V305.754H276.25V314.895H271.055V318.332H278.086ZM265.898 313.137H274.082V310.383H265.898V313.137ZM293.152 306.203V307.902C293.133 310.09 293.133 312.551 292.449 316.242L290.262 316.008C290.945 312.57 290.945 310.061 290.965 307.941H280.418V306.203H293.152ZM294.832 318.176V319.953H278.738V318.176H284.676V312.043H286.824V318.176H294.832ZM121.697 330.582V348.238H119.607V339.312H117.654V347.34H115.623V330.914H117.654V337.535H119.607V330.582H121.697ZM109.49 332.613V341.93C111.014 341.9 112.684 341.773 114.529 341.402L114.744 343.297C112.361 343.727 110.35 343.844 108.475 343.844H107.303V332.613H109.49ZM137.154 330.582V337.477H139.771V339.293H137.154V348.199H134.986V330.582H137.154ZM132.486 332.418C132.486 337.613 130.338 342.164 124.459 345.055L123.229 343.375C127.525 341.236 129.85 338.229 130.299 334.215H124.186V332.418H132.486ZM152.971 333.395V335.133H144.318V333.395H147.6V331.09H149.748V333.395H152.971ZM148.674 336.07C150.92 336.07 152.521 337.77 152.521 340.172C152.521 342.613 150.92 344.332 148.674 344.332C146.447 344.332 144.807 342.613 144.826 340.172C144.807 337.77 146.447 336.07 148.674 336.07ZM148.674 337.867C147.521 337.867 146.721 338.785 146.74 340.172C146.721 341.598 147.521 342.496 148.674 342.477C149.807 342.496 150.607 341.598 150.607 340.172C150.607 338.785 149.807 337.867 148.674 337.867ZM159.533 330.582V348.238H157.463V339.605H155.744V347.438H153.713V330.953H155.744V337.848H157.463V330.582H159.533ZM165.381 330.855V332.242H172.998V330.855H175.146V336.734H170.225V338.082H177.236V339.801H161.143V338.082H168.076V336.734H163.232V330.855H165.381ZM165.381 335.113H172.998V333.824H165.381V335.113ZM175.225 340.914V345.191H165.186V346.422H175.713V348.082H163.057V343.668H173.096V342.516H163.037V340.914H175.225ZM196.959 330.602V340.914H194.791V338.961H190.592V337.203H194.791V335.309H190.768C189.645 338.121 187.076 340.084 183.229 341.148L182.35 339.43C186.48 338.307 188.678 336.217 189.029 333.59H183.287V331.832H191.393C191.393 332.447 191.344 333.033 191.236 333.59H194.791V330.602H196.959ZM191.119 341.109C194.693 341.109 197.076 342.457 197.076 344.625C197.076 346.793 194.693 348.141 191.119 348.141C187.506 348.141 185.123 346.793 185.123 344.625C185.123 342.457 187.506 341.109 191.119 341.109ZM191.119 342.809C188.736 342.809 187.291 343.453 187.291 344.625C187.291 345.777 188.736 346.422 191.119 346.422C193.443 346.422 194.908 345.777 194.908 344.625C194.908 343.453 193.443 342.809 191.119 342.809ZM213.744 330.582V341.266H211.576V337.613H209.057V335.816H211.576V330.582H213.744ZM213.744 342.066V348.023H202.006V342.066H213.744ZM204.174 343.785V346.266H211.615V343.785H204.174ZM209.35 332.223V333.98H198.998V332.223H203.1V330.445H205.248V332.223H209.35ZM204.174 334.664C206.635 334.664 208.354 335.973 208.373 337.828C208.354 339.742 206.635 340.992 204.174 340.992C201.732 340.992 199.994 339.742 199.994 337.828C199.994 335.973 201.732 334.664 204.174 334.664ZM204.174 336.305C202.904 336.305 202.064 336.891 202.064 337.828C202.064 338.805 202.904 339.371 204.174 339.371C205.443 339.371 206.283 338.805 206.283 337.828C206.283 336.891 205.443 336.305 204.174 336.305ZM223.771 330.855C227.795 330.855 230.119 331.93 230.139 333.883C230.119 335.855 227.795 336.91 223.771 336.93C219.748 336.91 217.404 335.855 217.404 333.883C217.404 331.93 219.748 330.855 223.771 330.855ZM223.771 332.457C221.076 332.457 219.67 332.965 219.689 333.883C219.67 334.859 221.076 335.309 223.771 335.309C226.506 335.309 227.893 334.859 227.893 333.883C227.893 332.965 226.506 332.457 223.771 332.457ZM231.838 337.867V339.605H215.744V337.867H231.838ZM229.826 340.797V345.113H219.787V346.422H230.314V348.082H217.658V343.57H227.697V342.398H217.639V340.797H229.826ZM250.877 331.266V332.359C250.877 333.434 250.877 334.82 250.564 336.559L248.416 336.363C248.65 334.986 248.699 333.912 248.709 332.984H238.65V331.266H250.877ZM252.83 337.359V339.059H236.814V337.359H243.025V334.605H245.174V337.359H252.83ZM250.916 340.328V344.879H240.818V346.363H251.365V348.062H238.65V343.395H248.748V342.066H238.631V340.328H250.916ZM267.389 330.582V337.359H270.104V339.176H267.389V348.258H265.24V330.582H267.389ZM262.389 332.125V338.785H256.451V342.301C259.244 342.281 261.422 342.164 263.893 341.734L264.088 343.492C261.373 343.98 258.951 344.098 255.748 344.098H254.303V337.047H260.221V333.883H254.264V332.125H262.389ZM286.479 344.312V346.09H270.346V344.312H274.076V339.84C272.67 339.039 271.82 337.779 271.83 336.207C271.811 333.395 274.584 331.539 278.373 331.539C282.182 331.539 284.955 333.395 284.955 336.207C284.955 337.75 284.135 338.99 282.768 339.801V344.312H286.479ZM278.373 333.258C275.736 333.258 273.939 334.371 273.959 336.207C273.939 338.023 275.736 339.156 278.373 339.156C281.01 339.156 282.826 338.023 282.826 336.207C282.826 334.371 281.01 333.258 278.373 333.258ZM276.225 344.312H280.561V340.621C279.887 340.777 279.154 340.855 278.373 340.855C277.611 340.855 276.889 340.777 276.225 340.641V344.312Z" fill="black"/>
<path d="M140.472 373.891V382.234H139.238V380.359H135.55V379.344H139.238V377.469H135.691C134.777 379.703 132.628 381.32 129.659 382.203L129.144 381.234C132.503 380.234 134.589 378.359 134.847 375.953H129.847V374.922H136.175C136.175 375.469 136.113 375.992 136.003 376.484H139.238V373.891H140.472ZM135.925 382.375C138.738 382.375 140.55 383.375 140.55 385.031C140.55 386.703 138.738 387.703 135.925 387.703C133.081 387.703 131.284 386.703 131.284 385.031C131.284 383.375 133.081 382.375 135.925 382.375ZM135.925 383.359C133.831 383.344 132.488 383.984 132.488 385.031C132.488 386.078 133.831 386.703 135.925 386.703C137.988 386.703 139.316 386.078 139.331 385.031C139.316 383.984 137.988 383.344 135.925 383.359ZM153.9 373.875V382.297H152.666V379.125H150.306V378.109H152.666V373.875H153.9ZM153.9 383.047V387.578H144.822V383.047H153.9ZM146.041 384.031V386.578H152.697V384.031H146.041ZM150.509 375.344V376.344H142.4V375.344H145.853V373.75H147.056V375.344H150.509ZM146.447 377.062C148.338 377.062 149.666 378.078 149.681 379.531C149.666 381.031 148.338 382.016 146.447 382.016C144.556 382.016 143.228 381.031 143.228 379.531C143.228 378.078 144.556 377.062 146.447 377.062ZM146.447 378.016C145.244 378.016 144.4 378.641 144.4 379.531C144.4 380.453 145.244 381.062 146.447 381.078C147.65 381.062 148.494 380.453 148.494 379.531C148.494 378.641 147.65 378.016 146.447 378.016ZM166.631 375.328C166.616 379.344 165.256 383.016 160.256 385.469L159.569 384.531C162.186 383.266 163.756 381.656 164.6 379.781L159.834 380.234L159.631 379.156L164.975 378.797C165.217 378.016 165.358 377.195 165.413 376.344H160.334V375.328H166.631ZM170.178 373.875V379.531H172.428V380.562H170.178V387.766H168.959V373.875H170.178ZM184.075 380.562V381.578H174.481V375.172H183.934V376.188H175.7V380.562H184.075ZM185.575 384.844V385.875H172.856V384.844H185.575ZM194.4 375.188V386.5H192.978V376.656H192.916L190.166 378.484V377.062L192.978 375.188H194.4ZM201.219 376.516C201.219 378.328 202.578 379.953 204.625 380.625L204.047 381.594C202.445 381.07 201.234 379.961 200.641 378.562C200.039 380.156 198.758 381.398 197.094 382L196.469 381.016C198.547 380.312 200 378.516 200.016 376.516V375.922H196.844V374.906H204.344V375.922H201.219V376.516ZM207.375 373.875V377.422H209.469V378.453H207.375V382.266H206.156V373.875H207.375ZM202.922 382.641C205.781 382.641 207.5 383.578 207.5 385.172C207.5 386.797 205.781 387.734 202.922 387.734C200.062 387.734 198.312 386.797 198.312 385.172C198.312 383.578 200.062 382.641 202.922 382.641ZM202.922 383.625C200.828 383.625 199.531 384.203 199.547 385.172C199.531 386.172 200.828 386.75 202.922 386.75C205.031 386.75 206.312 386.172 206.312 385.172C206.312 384.203 205.031 383.625 202.922 383.625ZM218.263 376.453C218.263 378.297 219.622 379.984 221.684 380.703L221.059 381.656C219.473 381.094 218.263 379.953 217.669 378.516C217.075 380.094 215.802 381.32 214.169 381.922L213.513 380.969C215.591 380.234 217.044 378.438 217.059 376.453V375.859H213.888V374.859H221.388V375.859H218.263V376.453ZM224.419 373.875V377.547H226.513V378.594H224.419V382.25H223.2V373.875H224.419ZM224.419 382.984V387.766H223.2V383.984H215.325V382.984H224.419ZM231.769 376.062C231.753 378.047 233.159 379.797 235.206 380.484L234.519 381.438C232.988 380.859 231.784 379.734 231.191 378.266C230.589 379.93 229.316 381.227 227.644 381.859L226.972 380.859C229.113 380.109 230.534 378.266 230.55 376.109V374.672H231.769V376.062ZM238.503 373.875V382.109H237.269V377.875H234.175V376.859H237.269V373.875H238.503ZM233.894 382.516C236.784 382.516 238.55 383.469 238.55 385.141C238.55 386.797 236.784 387.734 233.894 387.734C231.003 387.734 229.238 386.797 229.238 385.141C229.238 383.469 231.003 382.516 233.894 382.516ZM233.894 383.484C231.769 383.484 230.441 384.109 230.456 385.141C230.441 386.141 231.769 386.75 233.894 386.75C236.019 386.75 237.331 386.141 237.331 385.141C237.331 384.109 236.019 383.484 233.894 383.484ZM248.969 377.609C248.953 380.141 250.688 382.703 252.734 383.625L251.984 384.594C250.406 383.82 249.039 382.188 248.375 380.203C247.727 382.305 246.359 384.055 244.734 384.875L243.953 383.844C246.016 382.891 247.734 380.25 247.75 377.609V375.078H248.969V377.609ZM255.484 373.875V387.797H254.25V373.875H255.484ZM259.741 385.453L258.522 389.703H257.366L258.225 385.453H259.741ZM94.3766 394.875V400.375H96.7047V401.406H94.3766V408.797H93.1578V394.875H94.3766ZM90.7203 396.234V397.25H85.4547V404.281C87.9703 404.281 89.7516 404.164 91.8141 403.781L91.9703 404.844C89.7984 405.234 87.9703 405.312 85.3297 405.312H84.2359V396.234H90.7203ZM109.758 402.578V403.594H97.0391V402.578H109.758ZM108.414 407.438V408.469H98.7266V404.688H99.9609V407.438H108.414ZM108.117 395.359V398.781H99.9141V400.328H108.414V401.297H98.6953V397.859H106.883V396.344H98.6484V395.359H108.117ZM125.614 394.891V403.234H124.38V401.359H120.692V400.344H124.38V398.469H120.833C119.919 400.703 117.77 402.32 114.802 403.203L114.286 402.234C117.645 401.234 119.731 399.359 119.989 396.953H114.989V395.922H121.317C121.317 396.469 121.255 396.992 121.145 397.484H124.38V394.891H125.614ZM121.067 403.375C123.88 403.375 125.692 404.375 125.692 406.031C125.692 407.703 123.88 408.703 121.067 408.703C118.223 408.703 116.427 407.703 116.427 406.031C116.427 404.375 118.223 403.375 121.067 403.375ZM121.067 404.359C118.973 404.344 117.63 404.984 117.63 406.031C117.63 407.078 118.973 407.703 121.067 407.703C123.13 407.703 124.458 407.078 124.473 406.031C124.458 404.984 123.13 404.344 121.067 404.359ZM139.042 394.875V403.297H137.808V400.125H135.448V399.109H137.808V394.875H139.042ZM139.042 404.047V408.578H129.964V404.047H139.042ZM131.183 405.031V407.578H137.839V405.031H131.183ZM135.652 396.344V397.344H127.542V396.344H130.995V394.75H132.198V396.344H135.652ZM131.589 398.062C133.48 398.062 134.808 399.078 134.823 400.531C134.808 402.031 133.48 403.016 131.589 403.016C129.698 403.016 128.37 402.031 128.37 400.531C128.37 399.078 129.698 398.062 131.589 398.062ZM131.589 399.016C130.386 399.016 129.542 399.641 129.542 400.531C129.542 401.453 130.386 402.062 131.589 402.078C132.792 402.062 133.636 401.453 133.636 400.531C133.636 399.641 132.792 399.016 131.589 399.016ZM151.773 396.328C151.758 400.344 150.398 404.016 145.398 406.469L144.711 405.531C147.328 404.266 148.898 402.656 149.742 400.781L144.977 401.234L144.773 400.156L150.117 399.797C150.359 399.016 150.5 398.195 150.555 397.344H145.477V396.328H151.773ZM155.32 394.875V400.531H157.57V401.562H155.32V408.766H154.102V394.875H155.32ZM169.217 401.562V402.578H159.623V396.172H169.077V397.188H160.842V401.562H169.217ZM170.717 405.844V406.875H157.998V405.844H170.717ZM179.448 407.656C177.198 407.656 175.589 406.453 175.511 404.656H176.933C177.011 405.734 178.089 406.406 179.433 406.406C180.917 406.406 182.011 405.594 182.011 404.422C182.011 403.188 181.027 402.312 179.261 402.312H178.339V401.078H179.261C180.636 401.078 181.589 400.312 181.589 399.141C181.589 398.016 180.761 397.25 179.48 397.25C178.277 397.25 177.167 397.922 177.105 399.031H175.745C175.823 397.234 177.48 396.031 179.495 396.031C181.652 396.031 182.964 397.438 182.948 399.062C182.964 400.344 182.214 401.297 181.027 401.625V401.703C182.495 401.938 183.402 402.984 183.386 404.422C183.402 406.281 181.698 407.656 179.448 407.656ZM189.22 397.516C189.22 399.328 190.58 400.953 192.627 401.625L192.048 402.594C190.447 402.07 189.236 400.961 188.642 399.562C188.041 401.156 186.759 402.398 185.095 403L184.47 402.016C186.548 401.312 188.002 399.516 188.017 397.516V396.922H184.845V395.906H192.345V396.922H189.22V397.516ZM195.377 394.875V398.422H197.47V399.453H195.377V403.266H194.158V394.875H195.377ZM190.923 403.641C193.783 403.641 195.502 404.578 195.502 406.172C195.502 407.797 193.783 408.734 190.923 408.734C188.064 408.734 186.314 407.797 186.314 406.172C186.314 404.578 188.064 403.641 190.923 403.641ZM190.923 404.625C188.83 404.625 187.533 405.203 187.548 406.172C187.533 407.172 188.83 407.75 190.923 407.75C193.033 407.75 194.314 407.172 194.314 406.172C194.314 405.203 193.033 404.625 190.923 404.625ZM204.273 395.125C207.367 395.125 209.18 395.969 209.18 397.516C209.18 399.094 207.367 399.938 204.273 399.953C201.18 399.938 199.352 399.094 199.352 397.516C199.352 395.969 201.18 395.125 204.273 395.125ZM204.273 396.047C201.961 396.047 200.617 396.609 200.633 397.516C200.617 398.484 201.961 399.016 204.273 399.016C206.57 399.016 207.93 398.484 207.93 397.516C207.93 396.609 206.57 396.047 204.273 396.047ZM210.602 400.891V401.891H197.945V400.891H210.602ZM208.977 403.094V406.203H200.727V407.641H209.398V408.609H199.508V405.297H207.773V404.031H199.477V403.094H208.977ZM218.817 395.375C220.036 395.375 221.067 395.828 221.708 396.578H225.27V394.875H226.489V402.016H225.27V400.422H221.755C221.106 401.203 220.059 401.672 218.817 401.672C216.723 401.672 215.208 400.391 215.208 398.516C215.208 396.656 216.723 395.375 218.817 395.375ZM218.817 396.391C217.395 396.375 216.38 397.266 216.38 398.516C216.38 399.781 217.395 400.672 218.817 400.688C220.192 400.672 221.223 399.781 221.223 398.516C221.223 397.266 220.192 396.375 218.817 396.391ZM226.489 402.719V406.047H218.739V407.594H227.02V408.578H217.52V405.109H225.27V403.703H217.489V402.719H226.489ZM222.27 397.562C222.356 397.859 222.411 398.18 222.411 398.516C222.411 398.844 222.356 399.148 222.27 399.438H225.27V397.562H222.27ZM239.277 394.891V398.453H241.386V399.5H239.277V403.172H238.058V394.891H239.277ZM239.277 403.859V408.578H230.48V403.859H239.277ZM231.683 404.812V407.578H238.089V404.812H231.683ZM235.308 395.641V399.438H230.245V401.406C232.714 401.406 234.503 401.336 236.667 400.984L236.792 401.969C234.558 402.359 232.698 402.438 230.12 402.438H229.042V398.484H234.105V396.656H229.011V395.641H235.308ZM252.705 394.828V398.203H254.814V399.219H252.705V402.516H251.486V394.828H252.705ZM252.705 403.234V406.312H245.08V407.672H253.22V408.609H243.877V405.406H251.486V404.156H243.845V403.234H252.705ZM250.158 396.141V397.125H241.877V396.141H245.408V394.734H246.627V396.141H250.158ZM246.017 397.75C248.033 397.75 249.345 398.625 249.361 400.031C249.345 401.438 248.033 402.312 246.017 402.312C243.986 402.312 242.658 401.438 242.673 400.031C242.658 398.625 243.986 397.75 246.017 397.75ZM246.017 398.656C244.705 398.656 243.83 399.203 243.845 400.031C243.83 400.875 244.705 401.391 246.017 401.391C247.33 401.391 248.189 400.875 248.205 400.031C248.189 399.203 247.33 398.656 246.017 398.656ZM265.858 396.172C265.858 398.125 268.42 399.828 270.92 400.172L270.42 401.172C268.264 400.812 266.131 399.617 265.233 397.906C264.342 399.625 262.202 400.812 260.045 401.172L259.545 400.172C262.045 399.828 264.592 398.156 264.592 396.172V395.375H265.858V396.172ZM271.545 402.703V403.734H265.795V408.766H264.592V403.734H258.889V402.703H271.545ZM280.636 404.203C280.636 405.43 281.292 406.734 282.62 407.484C283.933 406.664 284.636 405.281 284.636 404.203V403.438H285.839V404.203C285.839 405.625 286.886 407.062 288.667 407.672L288.058 408.578C286.667 408.086 285.691 407.117 285.214 405.953C284.784 407.078 283.933 408.141 282.652 408.688C281.3 408.172 280.441 407.148 280.027 405.984C279.534 407.109 278.573 408.078 277.245 408.578L276.62 407.672C278.37 407.016 279.433 405.531 279.448 404.203V403.438H280.636V404.203ZM287.402 394.891V402.828H286.183V394.891H287.402ZM279.902 395.703C282.011 395.703 283.542 397.016 283.542 398.953C283.542 400.859 282.011 402.172 279.902 402.172C277.792 402.172 276.261 400.859 276.261 398.953C276.261 397.016 277.792 395.703 279.902 395.703ZM279.902 396.75C278.48 396.734 277.448 397.656 277.464 398.953C277.448 400.234 278.48 401.141 279.902 401.156C281.308 401.141 282.339 400.234 282.339 398.953C282.339 397.656 281.308 396.734 279.902 396.75ZM300.502 396.281V397.672C300.486 399.375 300.486 401.281 299.986 404.078L298.736 403.938C299.267 401.281 299.267 399.328 299.267 397.672V397.297H290.705V396.281H300.502ZM302.017 405.781V406.797H289.361V405.781H294.33V400.812H295.533V405.781H302.017ZM305.07 406.453L303.852 410.703H302.695L303.555 406.453H305.07ZM70.6687 417.359V418.75C70.6687 420.5 70.6687 422.484 70.1531 425.5L68.9031 425.375C69.4656 422.531 69.4656 420.453 69.4656 418.75V418.375H61.0906V417.359H70.6687ZM72.3719 426.703V427.719H59.7156V426.703H72.3719ZM89.4156 422.375V423.391H83.6812V424.875C86.3062 424.984 87.8531 425.844 87.8687 427.312C87.8531 428.859 86.0719 429.734 83.0875 429.734C80.0719 429.734 78.2906 428.859 78.2906 427.312C78.2906 425.844 79.8297 424.984 82.4781 424.875V423.391H76.7594V422.375H89.4156ZM83.0875 425.812C80.8531 425.828 79.525 426.375 79.5406 427.312C79.525 428.234 80.8531 428.781 83.0875 428.781C85.2906 428.781 86.6344 428.234 86.6344 427.312C86.6344 426.375 85.2906 425.828 83.0875 425.812ZM88.2906 416.531V417.531H83.8844C83.9625 419.094 86.2594 420.305 88.7125 420.562L88.2594 421.531C85.9859 421.258 83.8531 420.242 83.0875 418.688C82.3297 420.242 80.2047 421.258 77.9156 421.531L77.4781 420.562C79.8844 420.305 82.1969 419.094 82.2906 417.531H77.9156V416.531H88.2906ZM104.553 415.875V421.609H106.881V422.625H104.553V429.766H103.334V415.875H104.553ZM101.991 418.109V419.125H93.725V418.109H97.3031V416.047H98.5219V418.109H101.991ZM97.9281 420.281C99.8969 420.281 101.319 421.594 101.334 423.469C101.319 425.344 99.8969 426.656 97.9281 426.656C95.9437 426.656 94.5062 425.344 94.5219 423.469C94.5062 421.594 95.9437 420.281 97.9281 420.281ZM97.9281 421.312C96.6312 421.312 95.6781 422.219 95.6937 423.469C95.6781 424.734 96.6312 425.625 97.9281 425.609C99.2094 425.625 100.147 424.734 100.162 423.469C100.147 422.219 99.2094 421.312 97.9281 421.312ZM120.231 421.422V422.453H117.981V429.766H116.762V415.875H117.981V421.422H120.231ZM109.028 417.25V425.203C111.059 425.195 113.13 425.039 115.419 424.562L115.575 425.609C113.184 426.094 111.028 426.234 108.919 426.234H107.809V417.25H109.028ZM133.362 422.328V423.297H120.644V422.328H133.362ZM131.769 424.406V427.359H123.425V428.688H132.222V429.578H122.191V426.516H130.55V425.328H122.175V424.406H131.769ZM131.722 416.297V419.172H123.519V420.391H131.972V421.281H122.3V418.328H130.487V417.188H122.253V416.297H131.722ZM148.75 416.453V417.344C148.75 418.25 148.75 419.312 148.484 420.656L147.266 420.531C147.523 419.258 147.531 418.312 147.531 417.453H139.219V416.453H148.75ZM150.359 421.422V422.422H137.719V421.422H142.953V419.016H144.156V421.422H150.359ZM148.797 423.719V427.016H140.469V428.609H149.156V429.609H139.234V426.141H147.578V424.719H139.219V423.719H148.797ZM161.881 415.875V421.406H164.209V422.438H161.881V429.797H160.662V415.875H161.881ZM157.991 417.172V422.141H152.928V425.391C155.506 425.391 157.303 425.305 159.412 424.906L159.537 425.922C157.35 426.328 155.491 426.422 152.819 426.438H151.709V421.125H156.772V418.188H151.678V417.172H157.991ZM180.034 415.875V429.766H178.831V422.578H176.831V429.047H175.675V416.188H176.831V421.531H178.831V415.875H180.034ZM170.097 417.578V425.078C171.48 425.062 172.948 424.969 174.644 424.625L174.8 425.719C172.862 426.062 171.269 426.172 169.737 426.172H168.878V417.578H170.097ZM196.734 415.891V424.234H195.5V422.359H191.812V421.344H195.5V419.469H191.953C191.039 421.703 188.891 423.32 185.922 424.203L185.406 423.234C188.766 422.234 190.852 420.359 191.109 417.953H186.109V416.922H192.438C192.438 417.469 192.375 417.992 192.266 418.484H195.5V415.891H196.734ZM192.188 424.375C195 424.375 196.812 425.375 196.812 427.031C196.812 428.703 195 429.703 192.188 429.703C189.344 429.703 187.547 428.703 187.547 427.031C187.547 425.375 189.344 424.375 192.188 424.375ZM192.188 425.359C190.094 425.344 188.75 425.984 188.75 427.031C188.75 428.078 190.094 428.703 192.188 428.703C194.25 428.703 195.578 428.078 195.594 427.031C195.578 425.984 194.25 425.344 192.188 425.359ZM210.162 415.875V424.297H208.928V421.125H206.569V420.109H208.928V415.875H210.162ZM210.162 425.047V429.578H201.084V425.047H210.162ZM202.303 426.031V428.578H208.959V426.031H202.303ZM206.772 417.344V418.344H198.662V417.344H202.116V415.75H203.319V417.344H206.772ZM202.709 419.062C204.6 419.062 205.928 420.078 205.944 421.531C205.928 423.031 204.6 424.016 202.709 424.016C200.819 424.016 199.491 423.031 199.491 421.531C199.491 420.078 200.819 419.062 202.709 419.062ZM202.709 420.016C201.506 420.016 200.662 420.641 200.662 421.531C200.662 422.453 201.506 423.062 202.709 423.078C203.912 423.062 204.756 422.453 204.756 421.531C204.756 420.641 203.912 420.016 202.709 420.016ZM218.403 416.781C221.309 416.781 223.481 418.297 223.481 420.594C223.481 422.906 221.309 424.422 218.403 424.406C215.497 424.422 213.325 422.906 213.325 420.594C213.325 418.297 215.497 416.781 218.403 416.781ZM218.403 417.781C216.169 417.766 214.481 418.938 214.497 420.594C214.481 422.281 216.169 423.406 218.403 423.406C220.622 423.406 222.294 422.281 222.294 420.594C222.294 418.938 220.622 417.766 218.403 417.781ZM224.794 426.891V427.922H212.075V426.891H224.794ZM238.222 427.016V428.047H225.503V427.016H231.222V424.391H227.097V420.109H235.409V417.922H227.066V416.906H236.613V421.109H228.316V423.375H236.941V424.391H232.425V427.016H238.222ZM249.562 417.141V423.531H243.141V417.141H249.562ZM244.344 418.141V422.547H248.375V418.141H244.344ZM253.406 415.875V420.109H255.5V421.141H253.406V426.062H252.188V415.875H253.406ZM254.047 428.438V429.469H244.719V425.094H245.922V428.438H254.047ZM268.647 421.719V422.703H255.975V421.719H268.647ZM267.131 419.578V420.578H257.662V416.359H266.991V417.344H258.897V419.578H267.131ZM267.006 423.953V427.172H258.756V428.609H267.428V429.609H257.537V426.25H265.803V424.906H257.506V423.953H267.006ZM279.988 417.172C279.988 419.125 282.55 420.828 285.05 421.172L284.55 422.172C282.394 421.812 280.261 420.617 279.363 418.906C278.472 420.625 276.331 421.812 274.175 422.172L273.675 421.172C276.175 420.828 278.722 419.156 278.722 417.172V416.375H279.988V417.172ZM285.675 423.703V424.734H279.925V429.766H278.722V424.734H273.019V423.703H285.675ZM294.766 425.203C294.766 426.43 295.422 427.734 296.75 428.484C298.062 427.664 298.766 426.281 298.766 425.203V424.438H299.969V425.203C299.969 426.625 301.016 428.062 302.797 428.672L302.188 429.578C300.797 429.086 299.82 428.117 299.344 426.953C298.914 428.078 298.062 429.141 296.781 429.688C295.43 429.172 294.57 428.148 294.156 426.984C293.664 428.109 292.703 429.078 291.375 429.578L290.75 428.672C292.5 428.016 293.562 426.531 293.578 425.203V424.438H294.766V425.203ZM301.531 415.891V423.828H300.312V415.891H301.531ZM294.031 416.703C296.141 416.703 297.672 418.016 297.672 419.953C297.672 421.859 296.141 423.172 294.031 423.172C291.922 423.172 290.391 421.859 290.391 419.953C290.391 418.016 291.922 416.703 294.031 416.703ZM294.031 417.75C292.609 417.734 291.578 418.656 291.594 419.953C291.578 421.234 292.609 422.141 294.031 422.156C295.438 422.141 296.469 421.234 296.469 419.953C296.469 418.656 295.438 417.734 294.031 417.75ZM307.225 416.953C309.116 416.969 310.475 418.586 310.678 421.188H313.787V415.875H315.006V429.797H313.787V422.203H310.694C310.545 424.922 309.162 426.625 307.225 426.625C305.178 426.625 303.741 424.75 303.741 421.797C303.741 418.844 305.178 416.969 307.225 416.953ZM307.225 418.047C305.85 418.062 304.912 419.531 304.912 421.797C304.912 424.062 305.85 425.531 307.225 425.531C308.584 425.531 309.537 424.062 309.537 421.797C309.537 419.531 308.584 418.062 307.225 418.047ZM329.638 426.953V427.984H316.919V426.953H320.075V423.203C318.888 422.586 318.169 421.586 318.169 420.328C318.169 418.172 320.278 416.766 323.247 416.75C326.216 416.766 328.325 418.172 328.325 420.328C328.325 421.562 327.63 422.555 326.481 423.172V426.953H329.638ZM323.247 417.766C320.966 417.75 319.356 418.781 319.356 420.328C319.356 421.875 320.966 422.922 323.247 422.922C325.513 422.922 327.138 421.875 327.138 420.328C327.138 418.781 325.513 417.75 323.247 417.766ZM321.278 426.953H325.247V423.641C324.645 423.805 323.973 423.891 323.247 423.891C322.536 423.891 321.872 423.812 321.278 423.656V426.953ZM331.816 428.594C331.269 428.594 330.8 428.141 330.816 427.578C330.8 427.031 331.269 426.578 331.816 426.578C332.362 426.578 332.816 427.031 332.816 427.578C332.816 428.141 332.362 428.594 331.816 428.594Z" fill="black"/>
<defs>
<filter id="filter0_d_55_3908" x="108.95" y="57.0447" width="159.928" height="227.255" filterUnits="userSpaceOnUse" color-interpolation-filters="sRGB">
<feFlood flood-opacity="0" result="BackgroundImageFix"/>
<feColorMatrix in="SourceAlpha" type="matrix" values="0 0 0 0 0 0 0 0 0 0 0 0 0 0 0 0 0 0 127 0" result="hardAlpha"/>
<feOffset dy="4"/>
<feGaussianBlur stdDeviation="9.4"/>
<feComposite in2="hardAlpha" operator="out"/>
<feColorMatrix type="matrix" values="0 0 0 0 0 0 0 0 0 0 0 0 0 0 0 0 0 0 0.25 0"/>
<feBlend mode="normal" in2="BackgroundImageFix" result="effect1_dropShadow_55_3908"/>
<feBlend mode="normal" in="SourceGraphic" in2="effect1_dropShadow_55_3908" result="shape"/>
</filter>
</defs>
</svg>
