<svg width="393" height="482" viewBox="0 0 393 482" fill="none" xmlns="http://www.w3.org/2000/svg">
<rect width="393" height="482" fill="white"/>
<rect x="115.425" y="74.4199" width="129.112" height="200.628" rx="10" transform="rotate(-10 115.425 74.4199)" fill="#D5DDFF"/>
<rect x="150.425" y="52" width="129.112" height="200.628" rx="10" transform="rotate(10 150.425 52)" fill="#EFE5FF"/>
<g filter="url(#filter0_d_55_3916)">
<rect x="132.425" y="62" width="129" height="200" rx="10" fill="#F9FFD6"/>
</g>
<path d="M217.629 153.12L217.81 152.619L217.308 152.8L173.236 168.735L172.732 168.918L173.196 169.187L187.879 177.685L188.045 177.781L188.181 177.645L201.127 164.695C201.737 164.086 202.564 163.744 203.426 163.744C204.288 163.744 205.115 164.087 205.724 164.697C206.334 165.307 206.676 166.134 206.676 166.996C206.675 167.858 206.333 168.685 205.723 169.294L205.723 169.294L192.773 182.244L192.637 182.38L192.733 182.546L201.238 197.225L201.507 197.69L201.69 197.185L217.629 153.12ZM218.609 145.416L218.609 145.416C222.592 143.973 226.452 147.833 225.009 151.816L225.009 151.816L206.522 202.933C206.522 202.933 206.522 202.934 206.522 202.934C205.075 206.927 199.622 207.413 197.492 203.737C197.492 203.737 197.492 203.737 197.492 203.737L186.232 184.284L186.199 184.226L186.141 184.193L166.688 172.933C166.688 172.933 166.688 172.933 166.688 172.933C163.012 170.803 163.498 165.35 167.492 163.903L218.609 145.416Z" fill="white" stroke="black" stroke-width="0.5"/>
<path d="M139.174 315.844C141.752 315.844 143.588 317.27 143.607 319.398C143.588 321.146 142.27 322.465 140.307 322.836V324.262C141.771 324.184 143.246 324.047 144.623 323.852L144.799 325.434C141.127 326.098 137.025 326.156 134.037 326.156L133.803 324.418C135.072 324.428 136.557 324.418 138.119 324.359V322.836C136.098 322.504 134.74 321.176 134.76 319.398C134.74 317.27 136.576 315.844 139.174 315.844ZM139.174 317.504C137.768 317.504 136.771 318.207 136.791 319.398C136.771 320.551 137.768 321.273 139.174 321.293C140.58 321.273 141.537 320.551 141.557 319.398C141.537 318.207 140.58 317.504 139.174 317.504ZM147.826 315.102V320.805H150.209V322.602H147.826V328.578H145.658V315.102H147.826ZM148.451 330.609V332.367H136.225V327.387H138.393V330.609H148.451ZM166.76 328.891V330.688H150.627V328.891H154.904V325.98H152.541V320.219H162.697V318.051H152.502V316.293H164.846V321.957H154.709V324.223H165.256V325.98H162.678V328.891H166.76ZM157.014 328.891H160.549V325.98H157.014V328.891ZM177.686 320.629V322.367H174.404V324.359C175.879 324.301 177.344 324.203 178.721 324.066L178.877 325.629C175.127 326.156 171.064 326.254 167.783 326.254L167.49 324.516C168.945 324.506 170.557 324.496 172.217 324.438V322.367H169.014V316.176H177.549V317.934H171.201V320.629H177.686ZM182.139 315.082V328.344H179.951V315.082H182.139ZM182.646 330.629V332.387H170.303V327.367H172.49V330.629H182.646ZM203.229 315.102V325.414H201.061V323.461H196.861V321.703H201.061V319.809H197.037C195.914 322.621 193.346 324.584 189.498 325.648L188.619 323.93C192.75 322.807 194.947 320.717 195.299 318.09H189.557V316.332H197.662C197.662 316.947 197.613 317.533 197.506 318.09H201.061V315.102H203.229ZM197.389 325.609C200.963 325.609 203.346 326.957 203.346 329.125C203.346 331.293 200.963 332.641 197.389 332.641C193.775 332.641 191.393 331.293 191.393 329.125C191.393 326.957 193.775 325.609 197.389 325.609ZM197.389 327.309C195.006 327.309 193.561 327.953 193.561 329.125C193.561 330.277 195.006 330.922 197.389 330.922C199.713 330.922 201.178 330.277 201.178 329.125C201.178 327.953 199.713 327.309 197.389 327.309ZM220.014 315.082V325.766H217.846V322.113H215.326V320.316H217.846V315.082H220.014ZM220.014 326.566V332.523H208.275V326.566H220.014ZM210.443 328.285V330.766H217.885V328.285H210.443ZM215.619 316.723V318.48H205.268V316.723H209.369V314.945H211.518V316.723H215.619ZM210.443 319.164C212.904 319.164 214.623 320.473 214.643 322.328C214.623 324.242 212.904 325.492 210.443 325.492C208.002 325.492 206.264 324.242 206.264 322.328C206.264 320.473 208.002 319.164 210.443 319.164ZM210.443 320.805C209.174 320.805 208.334 321.391 208.334 322.328C208.334 323.305 209.174 323.871 210.443 323.871C211.713 323.871 212.553 323.305 212.553 322.328C212.553 321.391 211.713 320.805 210.443 320.805ZM238.127 322.152V323.871H222.014V322.152H238.127ZM236.213 319.301V321.02H224.064V315.531H236.057V317.27H226.232V319.301H236.213ZM236.096 325.082V329.516H226.057V330.863H236.584V332.562H223.928V327.953H233.967V326.723H223.908V325.082H236.096ZM246.826 315.355C250.85 315.355 253.174 316.43 253.193 318.383C253.174 320.355 250.85 321.41 246.826 321.43C242.803 321.41 240.459 320.355 240.459 318.383C240.459 316.43 242.803 315.355 246.826 315.355ZM246.826 316.957C244.131 316.957 242.725 317.465 242.744 318.383C242.725 319.359 244.131 319.809 246.826 319.809C249.561 319.809 250.947 319.359 250.947 318.383C250.947 317.465 249.561 316.957 246.826 316.957ZM254.893 322.367V324.105H238.799V322.367H254.893ZM252.881 325.297V329.613H242.842V330.922H253.369V332.582H240.713V328.07H250.752V326.898H240.693V325.297H252.881ZM116.404 354.793V356.551H100.271V354.793H107.186V350.711H109.334V354.793H116.404ZM109.393 343.445C109.393 346.121 112.068 348.758 115.779 349.344L114.842 351.141C111.854 350.574 109.412 348.865 108.24 346.551C107.068 348.855 104.646 350.594 101.678 351.141L100.74 349.344C104.432 348.758 107.068 346.102 107.088 343.445V342.156H109.393V343.445ZM133.15 349.188V350.945H126.158V352.41C129.322 352.625 131.178 353.719 131.197 355.555C131.178 357.586 128.893 358.719 125.084 358.719C121.236 358.719 118.932 357.586 118.932 355.555C118.932 353.719 120.807 352.615 124.01 352.41V350.945H117.057V349.188H133.15ZM125.084 354.051C122.506 354.07 121.119 354.578 121.139 355.555C121.119 356.531 122.506 357.059 125.084 357.059C127.604 357.059 129.01 356.531 129.029 355.555C129.01 354.578 127.604 354.07 125.084 354.051ZM131.705 341.863V343.602H126.627C126.969 345.057 129.078 346.365 132.389 346.668L131.627 348.387C128.424 348.064 126.041 346.785 125.084 344.988C124.127 346.775 121.783 348.064 118.58 348.387L117.838 346.668C121.08 346.365 123.189 345.037 123.561 343.602H118.521V341.863H131.705ZM148.529 341.082V358.738H146.342V341.082H148.529ZM144.799 343.816V345.555H134.213V343.816H138.412V341.297H140.619V343.816H144.799ZM139.545 346.688C142.123 346.688 144.037 348.406 144.037 350.848C144.037 353.289 142.123 354.988 139.545 354.988C136.947 354.988 135.053 353.289 135.053 350.848C135.053 348.406 136.947 346.688 139.545 346.688ZM139.545 348.465C138.139 348.465 137.123 349.402 137.123 350.848C137.123 352.293 138.139 353.211 139.545 353.191C140.951 353.211 141.947 352.293 141.947 350.848C141.947 349.402 140.951 348.465 139.545 348.465ZM168.799 341.082V346.16H171.26V347.977H168.799V353.816H166.592V341.082H168.799ZM163.994 342.43C163.994 347.117 160.947 350.457 155.713 351.98L154.814 350.262C158.848 349.1 161.25 346.902 161.631 344.207H155.557V342.43H163.994ZM169.463 356.629V358.387H157.451V352.508H159.658V356.629H169.463ZM178.357 344.148C178.357 346.336 179.861 348.504 182.674 349.383L181.561 351.062C179.559 350.428 178.104 349.09 177.303 347.41C176.502 349.236 175.008 350.691 172.908 351.395L171.795 349.715C174.627 348.758 176.15 346.453 176.17 344.148V343.934H172.361V342.195H182.068V343.934H178.357V344.148ZM186.365 341.082V351.727H184.178V341.082H186.365ZM186.365 352.547V358.738H184.178V354.305H174.314V352.547H186.365ZM202.271 341.082V348.113H204.986V349.91H202.271V358.738H200.123V341.082H202.271ZM198.756 343.797V345.535H188.346V343.797H192.525V341.336H194.693V343.797H198.756ZM193.619 346.688C196.158 346.688 198.053 348.406 198.053 350.848C198.053 353.289 196.158 354.988 193.619 354.988C191.041 354.988 189.146 353.289 189.166 350.848C189.146 348.406 191.041 346.688 193.619 346.688ZM193.619 348.465C192.232 348.465 191.236 349.402 191.236 350.848C191.236 352.293 192.232 353.211 193.619 353.191C194.967 353.211 195.963 352.293 195.982 350.848C195.963 349.402 194.967 348.465 193.619 348.465ZM219.643 342.703V344.402C219.623 346.59 219.623 349.051 218.939 352.742L216.752 352.508C217.436 349.07 217.436 346.561 217.455 344.441H206.908V342.703H219.643ZM221.322 354.676V356.453H205.229V354.676H211.166V348.543H213.314V354.676H221.322ZM234.209 352.117C238.037 352.137 240.459 353.348 240.479 355.438C240.459 357.488 238.037 358.719 234.209 358.719C230.4 358.719 227.959 357.488 227.959 355.438C227.959 353.348 230.4 352.137 234.209 352.117ZM234.209 353.758C231.67 353.758 230.127 354.363 230.146 355.438C230.127 356.473 231.67 357.039 234.209 357.039C236.768 357.039 238.311 356.473 238.33 355.438C238.311 354.363 236.768 353.758 234.209 353.758ZM240.361 341.922V343.387C240.361 344.773 240.361 346.258 239.873 348.074L237.725 347.879C238.164 346.16 238.193 344.92 238.193 343.641H228.135V341.922H240.361ZM242.314 349.09V350.848H226.299V349.09H232.51V345.887H234.658V349.09H242.314ZM259.158 350.984V352.742H255.232V358.738H253.025V352.742H249.119V358.738H246.893V352.742H243.025V350.984H259.158ZM251.053 341.707C254.803 341.727 257.42 343.25 257.42 345.652C257.42 348.016 254.803 349.52 251.053 349.52C247.283 349.52 244.705 348.016 244.725 345.652C244.705 343.25 247.283 341.727 251.053 341.707ZM251.053 343.465C248.553 343.465 246.932 344.266 246.951 345.652C246.932 347 248.553 347.801 251.053 347.801C253.553 347.801 255.174 347 255.174 345.652C255.174 344.266 253.553 343.465 251.053 343.465ZM268.443 343.895V345.633H259.791V343.895H263.072V341.59H265.221V343.895H268.443ZM264.146 346.57C266.393 346.57 267.994 348.27 267.994 350.672C267.994 353.113 266.393 354.832 264.146 354.832C261.92 354.832 260.279 353.113 260.299 350.672C260.279 348.27 261.92 346.57 264.146 346.57ZM264.146 348.367C262.994 348.367 262.193 349.285 262.213 350.672C262.193 352.098 262.994 352.996 264.146 352.977C265.279 352.996 266.08 352.098 266.08 350.672C266.08 349.285 265.279 348.367 264.146 348.367ZM275.006 341.082V358.738H272.936V350.105H271.217V357.938H269.186V341.453H271.217V348.348H272.936V341.082H275.006ZM292.748 354.812V356.59H276.615V354.812H280.346V350.34C278.939 349.539 278.09 348.279 278.1 346.707C278.08 343.895 280.854 342.039 284.643 342.039C288.451 342.039 291.225 343.895 291.225 346.707C291.225 348.25 290.404 349.49 289.037 350.301V354.812H292.748ZM284.643 343.758C282.006 343.758 280.209 344.871 280.229 346.707C280.209 348.523 282.006 349.656 284.643 349.656C287.279 349.656 289.096 348.523 289.096 346.707C289.096 344.871 287.279 343.758 284.643 343.758ZM282.494 354.812H286.83V351.121C286.156 351.277 285.424 351.355 284.643 351.355C283.881 351.355 283.158 351.277 282.494 351.141V354.812Z" fill="black"/>
<path d="M59.5328 384.375V398.266H58.2984V384.375H59.5328ZM56.7984 386.641V387.641H48.3922V386.641H51.9703V384.516H53.2047V386.641H56.7984ZM52.6266 388.781C54.6266 388.781 56.0641 390.094 56.0641 391.969C56.0641 393.844 54.6266 395.156 52.6266 395.156C50.6109 395.156 49.1578 393.844 49.1734 391.969C49.1578 390.094 50.6109 388.781 52.6266 388.781ZM52.6266 389.812C51.2984 389.812 50.3297 390.719 50.3297 391.969C50.3297 393.234 51.2984 394.125 52.6266 394.109C53.9391 394.125 54.8922 393.234 54.8922 391.969C54.8922 390.719 53.9391 389.812 52.6266 389.812ZM68.4297 386.422C68.4297 388.797 71.1484 390.922 73.5703 391.375L73.0078 392.406C70.9141 391.922 68.7031 390.43 67.8047 388.375C66.9062 390.422 64.7031 391.914 62.6016 392.406L62.0391 391.375C64.4453 390.906 67.1484 388.812 67.1484 386.422V385.359H68.4297V386.422ZM74.2266 395.359V396.375H61.5078V395.359H74.2266ZM86.1859 391.609V392.609H81.8734V395.516H87.6547V396.531H74.9359V395.516H80.6547V392.609H76.5766V385.516H86.0297V386.531H77.8266V388.516H85.7328V389.516H77.8266V391.609H86.1859ZM99.8328 384.375V398.297H98.6141V384.375H99.8328ZM95.6141 385.672V390.609H90.4266V393.891C92.7312 393.891 94.7859 393.789 97.2703 393.391L97.3953 394.422C94.8328 394.828 92.7234 394.922 90.3328 394.922H89.1766V389.609H94.3797V386.688H89.1453V385.672H95.6141ZM113.698 384.375V398.266H112.511V384.375H113.698ZM110.902 384.672V397.562H109.73V390.812H107.948C107.816 393.516 106.667 395.203 104.948 395.203C103.136 395.203 101.964 393.328 101.964 390.375C101.964 387.422 103.136 385.547 104.948 385.547C106.636 385.547 107.777 387.18 107.933 389.797H109.73V384.672H110.902ZM104.948 386.703C103.823 386.703 103.105 388.109 103.12 390.375C103.105 392.625 103.823 394.047 104.948 394.031C106.073 394.047 106.792 392.625 106.792 390.375C106.792 388.109 106.073 386.703 104.948 386.703ZM120.111 388.109C120.111 390.625 121.72 393.156 123.736 394.078L123.002 395.078C121.423 394.266 120.119 392.602 119.502 390.625C118.884 392.703 117.58 394.484 116.002 395.328L115.205 394.344C117.236 393.344 118.861 390.672 118.861 388.109V385.578H120.111V388.109ZM126.736 384.375V398.297H125.517V390.125H122.22V389.125H125.517V384.375H126.736ZM145.264 389.922V390.953H143.014V398.266H141.795V384.375H143.014V389.922H145.264ZM134.061 385.75V393.703C136.092 393.695 138.162 393.539 140.452 393.062L140.608 394.109C138.217 394.594 136.061 394.734 133.952 394.734H132.842V385.75H134.061ZM150.239 385.391C152.427 385.391 153.973 386.719 153.973 388.656C153.973 390.594 152.427 391.922 150.239 391.922C148.052 391.922 146.473 390.594 146.489 388.656C146.473 386.719 148.052 385.391 150.239 385.391ZM150.239 386.469C148.755 386.469 147.677 387.359 147.692 388.656C147.677 389.953 148.755 390.844 150.239 390.844C151.708 390.844 152.77 389.953 152.77 388.656C152.77 387.359 151.708 386.469 150.239 386.469ZM157.083 384.375V398.297H155.864V384.375H157.083ZM145.77 394.188C148.333 394.188 151.864 394.172 154.942 393.719L155.036 394.625C151.864 395.219 148.442 395.234 145.942 395.234L145.77 394.188ZM167.705 388.641C167.705 391 169.423 393.391 171.47 394.281L170.783 395.25C169.158 394.508 167.752 392.906 167.111 390.984C166.455 393.023 165.056 394.797 163.47 395.594L162.736 394.625C164.72 393.672 166.455 391.047 166.47 388.641V386.828H163.189V385.812H171.017V386.828H167.705V388.641ZM174.189 384.375V398.266H172.955V384.375H174.189ZM178.07 385.391V390.859C180.047 390.867 182.102 390.742 184.367 390.266L184.508 391.281C182.148 391.781 180.039 391.906 177.945 391.906H176.836V385.391H178.07ZM187.023 384.391V388.516H189.117V389.578H187.023V394.422H185.805V384.391H187.023ZM187.523 396.938V397.969H178.383V393.438H179.602V396.938H187.523ZM204.723 384.391V392.734H203.489V390.859H199.802V389.844H203.489V387.969H199.942C199.028 390.203 196.88 391.82 193.911 392.703L193.395 391.734C196.755 390.734 198.841 388.859 199.098 386.453H194.098V385.422H200.427C200.427 385.969 200.364 386.492 200.255 386.984H203.489V384.391H204.723ZM200.177 392.875C202.989 392.875 204.802 393.875 204.802 395.531C204.802 397.203 202.989 398.203 200.177 398.203C197.333 398.203 195.536 397.203 195.536 395.531C195.536 393.875 197.333 392.875 200.177 392.875ZM200.177 393.859C198.083 393.844 196.739 394.484 196.739 395.531C196.739 396.578 198.083 397.203 200.177 397.203C202.239 397.203 203.567 396.578 203.583 395.531C203.567 394.484 202.239 393.844 200.177 393.859ZM218.152 384.375V392.797H216.917V389.625H214.558V388.609H216.917V384.375H218.152ZM218.152 393.547V398.078H209.073V393.547H218.152ZM210.292 394.531V397.078H216.948V394.531H210.292ZM214.761 385.844V386.844H206.652V385.844H210.105V384.25H211.308V385.844H214.761ZM210.698 387.562C212.589 387.562 213.917 388.578 213.933 390.031C213.917 391.531 212.589 392.516 210.698 392.516C208.808 392.516 207.48 391.531 207.48 390.031C207.48 388.578 208.808 387.562 210.698 387.562ZM210.698 388.516C209.495 388.516 208.652 389.141 208.652 390.031C208.652 390.953 209.495 391.562 210.698 391.578C211.902 391.562 212.745 390.953 212.745 390.031C212.745 389.141 211.902 388.516 210.698 388.516ZM232.736 390.219V391.203H220.064V390.219H232.736ZM231.22 388.078V389.078H221.752V384.859H231.08V385.844H222.986V388.078H231.22ZM231.095 392.453V395.672H222.845V397.109H231.517V398.109H221.627V394.75H229.892V393.406H221.595V392.453H231.095ZM239.82 384.625C242.914 384.625 244.727 385.469 244.727 387.016C244.727 388.594 242.914 389.438 239.82 389.453C236.727 389.438 234.898 388.594 234.898 387.016C234.898 385.469 236.727 384.625 239.82 384.625ZM239.82 385.547C237.508 385.547 236.164 386.109 236.18 387.016C236.164 387.984 237.508 388.516 239.82 388.516C242.117 388.516 243.477 387.984 243.477 387.016C243.477 386.109 242.117 385.547 239.82 385.547ZM246.148 390.391V391.391H233.492V390.391H246.148ZM244.523 392.594V395.703H236.273V397.141H244.945V398.109H235.055V394.797H243.32V393.531H235.023V392.594H244.523ZM263.255 395.453V396.484H250.536V395.453H256.255V392.062H252.036V385.547H261.677V392.062H257.458V395.453H263.255ZM253.239 386.531V391.078H260.489V386.531H253.239ZM267.683 385.453C269.73 385.469 271.183 387.344 271.198 390.297C271.183 393.25 269.73 395.125 267.683 395.125C265.62 395.125 264.183 393.25 264.183 390.297C264.183 387.344 265.62 385.469 267.683 385.453ZM267.683 386.547C266.308 386.562 265.339 388.031 265.339 390.297C265.339 392.562 266.308 394.031 267.683 394.031C269.073 394.031 270.011 392.562 270.011 390.297C270.011 388.031 269.073 386.562 267.683 386.547ZM274.714 384.375V389.922H277.042V390.984H274.714V398.266H273.495V384.375H274.714ZM280.298 384.609V385.938H287.173V384.609H288.392V389.172H284.298V390.547H290.048V391.547H277.392V390.547H283.095V389.172H279.08V384.609H280.298ZM280.298 388.219H287.173V386.875H280.298V388.219ZM288.423 392.703V395.781H280.173V397.141H288.845V398.109H278.955V394.875H287.22V393.641H278.923V392.703H288.423ZM301.405 385.672C301.405 387.625 303.967 389.328 306.467 389.672L305.967 390.672C303.811 390.312 301.678 389.117 300.78 387.406C299.889 389.125 297.748 390.312 295.592 390.672L295.092 389.672C297.592 389.328 300.139 387.656 300.139 385.672V384.875H301.405V385.672ZM307.092 392.203V393.234H301.342V398.266H300.139V393.234H294.436V392.203H307.092ZM316.183 393.703C316.183 394.93 316.839 396.234 318.167 396.984C319.48 396.164 320.183 394.781 320.183 393.703V392.938H321.386V393.703C321.386 395.125 322.433 396.562 324.214 397.172L323.605 398.078C322.214 397.586 321.237 396.617 320.761 395.453C320.331 396.578 319.48 397.641 318.198 398.188C316.847 397.672 315.987 396.648 315.573 395.484C315.081 396.609 314.12 397.578 312.792 398.078L312.167 397.172C313.917 396.516 314.98 395.031 314.995 393.703V392.938H316.183V393.703ZM322.948 384.391V392.328H321.73V384.391H322.948ZM315.448 385.203C317.558 385.203 319.089 386.516 319.089 388.453C319.089 390.359 317.558 391.672 315.448 391.672C313.339 391.672 311.808 390.359 311.808 388.453C311.808 386.516 313.339 385.203 315.448 385.203ZM315.448 386.25C314.027 386.234 312.995 387.156 313.011 388.453C312.995 389.734 314.027 390.641 315.448 390.656C316.855 390.641 317.886 389.734 317.886 388.453C317.886 387.156 316.855 386.234 315.448 386.25ZM336.048 385.781V387.172C336.033 388.875 336.033 390.781 335.533 393.578L334.283 393.438C334.814 390.781 334.814 388.828 334.814 387.172V386.797H326.252V385.781H336.048ZM337.564 395.281V396.297H324.908V395.281H329.877V390.312H331.08V395.281H337.564ZM340.617 395.953L339.398 400.203H338.242L339.102 395.953H340.617ZM66.2625 405.391V415.938H65.0281V414.5H62.1531V413.609H65.0281V405.391H66.2625ZM66.6062 417.938V418.969H56.7312V414.906H57.9656V417.938H66.6062ZM54.7312 411.828C57.325 411.812 60.7937 411.797 63.7781 411.422L63.8562 412.312C62.6141 412.508 61.3172 412.633 60.0437 412.703V415.453H58.8094V412.766C57.4031 412.828 56.0672 412.836 54.9031 412.828L54.7312 411.828ZM59.2937 405.953C61.325 405.953 62.7156 406.922 62.7312 408.375C62.7156 409.859 61.325 410.781 59.2937 410.781C57.2469 410.781 55.8562 409.859 55.8562 408.375C55.8562 406.922 57.2469 405.953 59.2937 405.953ZM59.2937 406.891C57.9344 406.875 57.0125 407.484 57.0281 408.375C57.0125 409.281 57.9344 409.875 59.2937 409.875C60.6062 409.875 61.5437 409.281 61.5594 408.375C61.5437 407.484 60.6062 406.875 59.2937 406.891ZM78.9875 405.375V411.109H81.3156V412.125H78.9875V419.266H77.7687V405.375H78.9875ZM76.425 407.609V408.625H68.1594V407.609H71.7375V405.547H72.9562V407.609H76.425ZM72.3625 409.781C74.3312 409.781 75.7531 411.094 75.7687 412.969C75.7531 414.844 74.3312 416.156 72.3625 416.156C70.3781 416.156 68.9406 414.844 68.9562 412.969C68.9406 411.094 70.3781 409.781 72.3625 409.781ZM72.3625 410.812C71.0656 410.812 70.1125 411.719 70.1281 412.969C70.1125 414.234 71.0656 415.125 72.3625 415.109C73.6437 415.125 74.5812 414.234 74.5969 412.969C74.5812 411.719 73.6437 410.812 72.3625 410.812ZM92.9 409.594V410.578H83.3844V405.891H84.6031V409.594H92.9ZM94.3687 412.469V413.469H81.65V412.469H94.3687ZM92.9781 417.906V418.922H83.3062V414.891H84.525V417.906H92.9781ZM110.225 405.391V413.734H108.991V411.859H105.303V410.844H108.991V408.969H105.444C104.53 411.203 102.381 412.82 99.4125 413.703L98.8969 412.734C102.256 411.734 104.342 409.859 104.6 407.453H99.6V406.422H105.928C105.928 406.969 105.866 407.492 105.756 407.984H108.991V405.391H110.225ZM105.678 413.875C108.491 413.875 110.303 414.875 110.303 416.531C110.303 418.203 108.491 419.203 105.678 419.203C102.834 419.203 101.037 418.203 101.037 416.531C101.037 414.875 102.834 413.875 105.678 413.875ZM105.678 414.859C103.584 414.844 102.241 415.484 102.241 416.531C102.241 417.578 103.584 418.203 105.678 418.203C107.741 418.203 109.069 417.578 109.084 416.531C109.069 415.484 107.741 414.844 105.678 414.859ZM123.653 405.375V413.797H122.419V410.625H120.059V409.609H122.419V405.375H123.653ZM123.653 414.547V419.078H114.575V414.547H123.653ZM115.794 415.531V418.078H122.45V415.531H115.794ZM120.262 406.844V407.844H112.153V406.844H115.606V405.25H116.809V406.844H120.262ZM116.2 408.562C118.091 408.562 119.419 409.578 119.434 411.031C119.419 412.531 118.091 413.516 116.2 413.516C114.309 413.516 112.981 412.531 112.981 411.031C112.981 409.578 114.309 408.562 116.2 408.562ZM116.2 409.516C114.997 409.516 114.153 410.141 114.153 411.031C114.153 411.953 114.997 412.562 116.2 412.578C117.403 412.562 118.247 411.953 118.247 411.031C118.247 410.141 117.403 409.516 116.2 409.516ZM131.894 405.625C134.987 405.625 136.8 406.469 136.8 408.016C136.8 409.594 134.987 410.438 131.894 410.453C128.8 410.438 126.972 409.594 126.972 408.016C126.972 406.469 128.8 405.625 131.894 405.625ZM131.894 406.547C129.581 406.547 128.237 407.109 128.253 408.016C128.237 408.984 129.581 409.516 131.894 409.516C134.191 409.516 135.55 408.984 135.55 408.016C135.55 407.109 134.191 406.547 131.894 406.547ZM138.222 411.391V412.391H125.566V411.391H138.222ZM136.597 413.594V416.703H128.347V418.141H137.019V419.109H127.128V415.797H135.394V414.531H127.097V413.594H136.597ZM147.359 408C147.359 409.938 148.766 411.766 150.797 412.5L150.109 413.453C148.586 412.844 147.375 411.633 146.781 410.125C146.188 411.805 144.922 413.141 143.281 413.797L142.625 412.797C144.703 412.031 146.141 410.094 146.156 407.953V406.234H147.359V408ZM154.125 405.391V415.797H152.891V409.688H149.797V408.656H152.891V405.391H154.125ZM154.438 417.938V418.969H145.141V414.609H146.375V417.938H154.438ZM162.053 406.391V407.422H157.834V409.156H161.897V410.125H157.834V412.047C159.858 412.039 161.123 411.969 162.616 411.672L162.741 412.688C161.116 413 159.803 413.078 157.537 413.078H156.662V406.391H162.053ZM167.834 405.391V413.812H166.662V410.016H164.709V413.719H163.569V405.656H164.709V409.016H166.662V405.391H167.834ZM167.834 414.531V419.266H166.631V415.531H158.475V414.531H167.834ZM176.403 407.781V408.781H169.434V407.781H172.325V405.797H173.544V407.781H176.403ZM172.919 409.719C174.669 409.719 175.919 411.031 175.934 412.875C175.919 414.734 174.669 416.062 172.919 416.062C171.184 416.062 169.934 414.734 169.934 412.875C169.934 411.031 171.184 409.719 172.919 409.719ZM172.919 410.75C171.825 410.766 171.028 411.656 171.028 412.875C171.028 414.109 171.825 415 172.919 414.984C174.028 415 174.841 414.109 174.841 412.875C174.841 411.656 174.028 410.766 172.919 410.75ZM181.294 405.375V419.266H180.122V412.25H178.278V418.578H177.122V405.719H178.278V411.234H180.122V405.375H181.294ZM198.025 405.391V413.734H196.791V411.859H193.103V410.844H196.791V408.969H193.244C192.33 411.203 190.181 412.82 187.212 413.703L186.697 412.734C190.056 411.734 192.142 409.859 192.4 407.453H187.4V406.422H193.728C193.728 406.969 193.666 407.492 193.556 407.984H196.791V405.391H198.025ZM193.478 413.875C196.291 413.875 198.103 414.875 198.103 416.531C198.103 418.203 196.291 419.203 193.478 419.203C190.634 419.203 188.837 418.203 188.837 416.531C188.837 414.875 190.634 413.875 193.478 413.875ZM193.478 414.859C191.384 414.844 190.041 415.484 190.041 416.531C190.041 417.578 191.384 418.203 193.478 418.203C195.541 418.203 196.869 417.578 196.884 416.531C196.869 415.484 195.541 414.844 193.478 414.859ZM211.453 405.375V413.797H210.219V410.625H207.859V409.609H210.219V405.375H211.453ZM211.453 414.547V419.078H202.375V414.547H211.453ZM203.594 415.531V418.078H210.25V415.531H203.594ZM208.062 406.844V407.844H199.953V406.844H203.406V405.25H204.609V406.844H208.062ZM204 408.562C205.891 408.562 207.219 409.578 207.234 411.031C207.219 412.531 205.891 413.516 204 413.516C202.109 413.516 200.781 412.531 200.781 411.031C200.781 409.578 202.109 408.562 204 408.562ZM204 409.516C202.797 409.516 201.953 410.141 201.953 411.031C201.953 411.953 202.797 412.562 204 412.578C205.203 412.562 206.047 411.953 206.047 411.031C206.047 410.141 205.203 409.516 204 409.516ZM228.497 405.375V412.484H227.262V411.031H223.559V410.062H227.262V408.391H223.762C222.887 410.586 220.731 412.062 217.653 412.797L217.216 411.781C220.622 410.992 222.606 409.328 222.841 407.094H217.919V406.078H224.184C224.184 406.539 224.137 406.984 224.059 407.406H227.262V405.375H228.497ZM228.497 413.109V416.5H220.747V418.125H228.966V419.141H219.528V415.562H227.262V414.109H219.497V413.109H228.497ZM235.081 408C235.066 409.906 236.519 411.672 238.566 412.391L237.941 413.375C236.363 412.805 235.136 411.625 234.519 410.141C233.933 411.805 232.675 413.086 231.034 413.719L230.363 412.734C232.472 411.984 233.863 410.109 233.878 407.953V406.234H235.081V408ZM241.269 405.375V409.641H243.363V410.688H241.269V415.641H240.05V405.375H241.269ZM241.909 417.938V418.969H232.597V414.656H233.847V417.938H241.909ZM250.166 405.625C253.259 405.625 255.072 406.469 255.072 408.016C255.072 409.594 253.259 410.438 250.166 410.453C247.072 410.438 245.244 409.594 245.244 408.016C245.244 406.469 247.072 405.625 250.166 405.625ZM250.166 406.547C247.853 406.547 246.509 407.109 246.525 408.016C246.509 408.984 247.853 409.516 250.166 409.516C252.462 409.516 253.822 408.984 253.822 408.016C253.822 407.109 252.462 406.547 250.166 406.547ZM256.494 411.391V412.391H243.837V411.391H256.494ZM254.869 413.594V416.703H246.619V418.141H255.291V419.109H245.4V415.797H253.666V414.531H245.369V413.594H254.869ZM271.741 405.328V408.703H273.85V409.719H271.741V413.016H270.522V405.328H271.741ZM271.741 413.734V416.812H264.116V418.172H272.256V419.109H262.912V415.906H270.522V414.656H262.881V413.734H271.741ZM269.194 406.641V407.625H260.912V406.641H264.444V405.234H265.662V406.641H269.194ZM265.053 408.25C267.069 408.25 268.381 409.125 268.397 410.531C268.381 411.938 267.069 412.812 265.053 412.812C263.022 412.812 261.694 411.938 261.709 410.531C261.694 409.125 263.022 408.25 265.053 408.25ZM265.053 409.156C263.741 409.156 262.866 409.703 262.881 410.531C262.866 411.375 263.741 411.891 265.053 411.891C266.366 411.891 267.225 411.375 267.241 410.531C267.225 409.703 266.366 409.156 265.053 409.156ZM284.894 406.672C284.894 408.625 287.456 410.328 289.956 410.672L289.456 411.672C287.3 411.312 285.167 410.117 284.269 408.406C283.378 410.125 281.238 411.312 279.081 411.672L278.581 410.672C281.081 410.328 283.628 408.656 283.628 406.672V405.875H284.894V406.672ZM290.581 413.203V414.234H284.831V419.266H283.628V414.234H277.925V413.203H290.581ZM299.672 414.703C299.672 415.93 300.328 417.234 301.656 417.984C302.969 417.164 303.672 415.781 303.672 414.703V413.938H304.875V414.703C304.875 416.125 305.922 417.562 307.703 418.172L307.094 419.078C305.703 418.586 304.727 417.617 304.25 416.453C303.82 417.578 302.969 418.641 301.688 419.188C300.336 418.672 299.477 417.648 299.062 416.484C298.57 417.609 297.609 418.578 296.281 419.078L295.656 418.172C297.406 417.516 298.469 416.031 298.484 414.703V413.938H299.672V414.703ZM306.438 405.391V413.328H305.219V405.391H306.438ZM298.938 406.203C301.047 406.203 302.578 407.516 302.578 409.453C302.578 411.359 301.047 412.672 298.938 412.672C296.828 412.672 295.297 411.359 295.297 409.453C295.297 407.516 296.828 406.203 298.938 406.203ZM298.938 407.25C297.516 407.234 296.484 408.156 296.5 409.453C296.484 410.734 297.516 411.641 298.938 411.656C300.344 411.641 301.375 410.734 301.375 409.453C301.375 408.156 300.344 407.234 298.938 407.25ZM312.131 406.453C314.022 406.469 315.381 408.086 315.584 410.688H318.694V405.375H319.912V419.297H318.694V411.703H315.6C315.452 414.422 314.069 416.125 312.131 416.125C310.084 416.125 308.647 414.25 308.647 411.297C308.647 408.344 310.084 406.469 312.131 406.453ZM312.131 407.547C310.756 407.562 309.819 409.031 309.819 411.297C309.819 413.562 310.756 415.031 312.131 415.031C313.491 415.031 314.444 413.562 314.444 411.297C314.444 409.031 313.491 407.562 312.131 407.547ZM334.544 416.453V417.484H321.825V416.453H324.981V412.703C323.794 412.086 323.075 411.086 323.075 409.828C323.075 407.672 325.184 406.266 328.153 406.25C331.122 406.266 333.231 407.672 333.231 409.828C333.231 411.062 332.536 412.055 331.388 412.672V416.453H334.544ZM328.153 407.266C325.872 407.25 324.263 408.281 324.263 409.828C324.263 411.375 325.872 412.422 328.153 412.422C330.419 412.422 332.044 411.375 332.044 409.828C332.044 408.281 330.419 407.25 328.153 407.266ZM326.184 416.453H330.153V413.141C329.552 413.305 328.88 413.391 328.153 413.391C327.442 413.391 326.778 413.312 326.184 413.156V416.453ZM336.722 418.094C336.175 418.094 335.706 417.641 335.722 417.078C335.706 416.531 336.175 416.078 336.722 416.078C337.269 416.078 337.722 416.531 337.722 417.078C337.722 417.641 337.269 418.094 336.722 418.094Z" fill="black"/>
<defs>
<filter id="filter0_d_55_3916" x="113.625" y="47.2" width="166.6" height="237.6" filterUnits="userSpaceOnUse" color-interpolation-filters="sRGB">
<feFlood flood-opacity="0" result="BackgroundImageFix"/>
<feColorMatrix in="SourceAlpha" type="matrix" values="0 0 0 0 0 0 0 0 0 0 0 0 0 0 0 0 0 0 127 0" result="hardAlpha"/>
<feOffset dy="4"/>
<feGaussianBlur stdDeviation="9.4"/>
<feComposite in2="hardAlpha" operator="out"/>
<feColorMatrix type="matrix" values="0 0 0 0 0 0 0 0 0 0 0 0 0 0 0 0 0 0 0.25 0"/>
<feBlend mode="normal" in2="BackgroundImageFix" result="effect1_dropShadow_55_3916"/>
<feBlend mode="normal" in="SourceGraphic" in2="effect1_dropShadow_55_3916" result="shape"/>
</filter>
</defs>
</svg>
