<svg width="61" height="61" viewBox="0 0 61 61" fill="none" xmlns="http://www.w3.org/2000/svg">
<circle cx="30.5" cy="30.5" r="30.5" fill="white"/>
<g clip-path="url(#clip0_89_9646)">
<path d="M35.4821 46.0831L43.0461 46.1101C46.1741 46.1211 47.0581 41.8291 44.1791 40.6041L43.6801 40.3921C41.9551 39.4781 42.4251 36.8871 44.3611 36.6381L47.7291 36.2041C49.0221 36.0371 49.6261 34.5131 48.7971 33.5061L48.3591 32.9741C47.8691 32.3791 47.6131 31.6281 47.6331 30.8571C47.6371 30.7151 47.6381 30.5731 47.6381 30.4311C47.6381 20.7411 39.2491 13.0101 29.3371 14.1051C21.7251 14.9461 15.6041 21.1541 14.8591 28.7761C14.7681 29.7091 14.7551 30.6291 14.8141 31.5291C14.8681 32.3531 14.5911 33.1631 14.0601 33.7961L13.6931 34.2331C12.0091 36.2411 12.8711 39.3141 15.3541 40.1521L19.8051 41.6551C20.5621 41.9111 20.9721 42.7281 20.7241 43.4871L20.6361 43.7571C19.7191 46.5641 22.7381 49.0271 25.3041 47.5671L26.0401 47.1481C27.0041 46.5991 28.0801 46.2751 29.1881 46.2131C30.4471 46.1431 32.4621 46.0751 35.4811 46.0851L35.4821 46.0831Z" fill="#FFC84D"/>
<path d="M36.549 37.6551C36.608 37.6331 36.608 37.5561 36.545 37.5501C34.891 37.4811 33.339 37.3911 32.353 37.1781C28.785 36.3891 25.947 34.5021 24.957 31.1651L24.646 30.1181C24.585 29.9111 24.896 29.7251 24.991 29.9191C26.012 32.0091 31.777 36.1801 39.059 37.3191C39.059 37.3191 39.747 38.0021 36.439 38.8071C35.552 39.0231 34.434 39.2121 33.722 39.3231C33.528 39.3531 33.499 39.6201 33.682 39.6931C35.152 40.4231 38.048 40.9601 40.521 41.3521C38.347 41.3531 37.124 41.5771 34.448 40.9411C33.29 40.6061 32.723 40.3881 32.031 39.8811C31.18 39.2571 31.622 38.5731 32.199 38.4551C33.398 38.2111 35.412 38.0711 36.549 37.6551Z" fill="#FF6D00"/>
<path d="M30.3167 25.9335C31.0088 24.6321 30.7599 23.1463 29.7607 22.615C28.7616 22.0836 27.3905 22.708 26.6985 24.0094C26.0064 25.3109 26.2553 26.7967 27.2544 27.328C28.2536 27.8593 29.6246 27.235 30.3167 25.9335Z" fill="black"/>
<path d="M38.6317 30.5794C39.0114 29.1552 38.4329 27.7642 37.3395 27.4726C36.246 27.1811 35.0518 28.0994 34.672 29.5236C34.2922 30.9479 34.8708 32.3389 35.9642 32.6304C37.0576 32.922 38.2519 32.0037 38.6317 30.5794Z" fill="black"/>
</g>
<defs>
<clipPath id="clip0_89_9646">
<rect width="40" height="40" fill="white" transform="translate(11 11)"/>
</clipPath>
</defs>
</svg>
