<svg width="14" height="14" viewBox="0 0 14 14" fill="none" xmlns="http://www.w3.org/2000/svg">
<g id="ph:star-thin">
<g id="Vector">
<mask id="path-1-inside-1_324_3819" fill="white">
<path d="M12.8715 5.38611C12.8311 5.25864 12.7534 5.14624 12.6483 5.06346C12.5433 4.98068 12.4159 4.93133 12.2825 4.92181L8.92087 4.64837L7.62587 1.51314C7.57486 1.38914 7.48816 1.28309 7.37677 1.20847C7.26538 1.13384 7.13432 1.09399 7.00024 1.09399C6.86616 1.09399 6.73511 1.13384 6.62372 1.20847C6.51233 1.28309 6.42562 1.38914 6.37462 1.51314L5.07962 4.64837L1.71798 4.92181C1.58439 4.93315 1.45712 4.98369 1.35213 5.06707C1.24715 5.15045 1.16911 5.26298 1.12782 5.39053C1.08653 5.51809 1.08382 5.65499 1.12002 5.78409C1.15623 5.91318 1.22974 6.0287 1.33134 6.11618L3.89345 8.32611L3.11032 11.6287C3.07752 11.7592 3.08449 11.8966 3.13033 12.0232C3.17616 12.1498 3.25878 12.2598 3.36757 12.339C3.47636 12.4183 3.60636 12.4633 3.74089 12.4682C3.87542 12.4731 4.00834 12.4376 4.12259 12.3664L7.00024 10.5967L9.8779 12.3664C9.99094 12.4378 10.1229 12.4734 10.2566 12.4684C10.3902 12.4634 10.5192 12.4181 10.6266 12.3385C10.737 12.2604 10.8213 12.1507 10.8683 12.0238C10.9153 11.897 10.923 11.7589 10.8902 11.6276L10.107 8.32337L12.6691 6.11345C12.7718 6.02642 12.846 5.91055 12.8821 5.78087C12.9182 5.65119 12.9145 5.51366 12.8715 5.38611ZM12.3831 5.78314L9.72095 8.08001C9.69063 8.10616 9.66807 8.14014 9.65572 8.17823C9.64338 8.21632 9.64173 8.25706 9.65095 8.29603L10.4641 11.7299C10.4761 11.7768 10.4735 11.8262 10.4567 11.8716C10.4399 11.917 10.4097 11.9563 10.3701 11.9842C10.3324 12.0123 10.2871 12.0283 10.2401 12.03C10.1931 12.0318 10.1467 12.0192 10.107 11.994L7.11509 10.1538C7.08056 10.1325 7.0408 10.1212 7.00024 10.1212C6.95968 10.1212 6.91992 10.1325 6.8854 10.1538L3.89345 11.994C3.85377 12.0192 3.80737 12.0318 3.76039 12.03C3.71341 12.0283 3.66808 12.0123 3.6304 11.9842C3.59081 11.9563 3.56061 11.917 3.54381 11.8716C3.52702 11.8262 3.52441 11.7768 3.53634 11.7299L4.34954 8.29603C4.35876 8.25706 4.35711 8.21632 4.34476 8.17823C4.33242 8.14014 4.30986 8.10616 4.27954 8.08001L1.61735 5.78314C1.58057 5.75213 1.55401 5.71075 1.54113 5.66441C1.52825 5.61806 1.52966 5.56891 1.54516 5.52337C1.55943 5.47828 1.58692 5.43852 1.62408 5.40926C1.66124 5.38 1.70634 5.36259 1.75352 5.35931L5.25024 5.07439C5.29046 5.07119 5.32902 5.05693 5.36164 5.03319C5.39426 5.00945 5.41968 4.97715 5.43509 4.93986L6.78149 1.68048C6.79913 1.6363 6.82961 1.59842 6.86899 1.57173C6.90838 1.54505 6.95486 1.53079 7.00243 1.53079C7.05 1.53079 7.09648 1.54505 7.13587 1.57173C7.17525 1.59842 7.20573 1.6363 7.22337 1.68048L8.56977 4.93986C8.58484 4.97653 8.60959 5.00842 8.64138 5.03212C8.67316 5.05581 8.71079 5.07042 8.75024 5.07439L12.2448 5.35603C12.292 5.35931 12.3371 5.37672 12.3742 5.40598C12.4114 5.43523 12.4389 5.475 12.4531 5.52009C12.4696 5.56585 12.4718 5.61555 12.4592 5.66255C12.4467 5.70956 12.4202 5.75162 12.3831 5.78314Z"/>
<path d="M12.3831 5.78314L9.72095 8.08001C9.69063 8.10616 9.66807 8.14014 9.65572 8.17823C9.64338 8.21632 9.64173 8.25706 9.65095 8.29603L10.4641 11.7299C10.4761 11.7768 10.4735 11.8262 10.4567 11.8716C10.4399 11.917 10.4097 11.9563 10.3701 11.9842C10.3324 12.0123 10.2871 12.0283 10.2401 12.03C10.1931 12.0318 10.1467 12.0192 10.107 11.994L7.11509 10.1538C7.08056 10.1325 7.0408 10.1212 7.00024 10.1212C6.95968 10.1212 6.91992 10.1325 6.8854 10.1538L3.89345 11.994C3.85377 12.0192 3.80737 12.0318 3.76039 12.03C3.71341 12.0283 3.66808 12.0123 3.6304 11.9842C3.59081 11.9563 3.56061 11.917 3.54381 11.8716C3.52702 11.8262 3.52441 11.7768 3.53634 11.7299L4.34954 8.29603C4.35876 8.25706 4.35711 8.21632 4.34476 8.17823C4.33242 8.14014 4.30986 8.10616 4.27954 8.08001L1.61735 5.78314C1.58057 5.75213 1.55401 5.71075 1.54113 5.66441C1.52825 5.61806 1.52966 5.56891 1.54516 5.52337C1.55943 5.47828 1.58692 5.43852 1.62408 5.40926C1.66124 5.38 1.70634 5.36259 1.75352 5.35931L5.25024 5.07439C5.29046 5.07119 5.32902 5.05693 5.36164 5.03319C5.39426 5.00945 5.41968 4.97715 5.43509 4.93986L6.78149 1.68048C6.79913 1.6363 6.82961 1.59842 6.86899 1.57173C6.90838 1.54505 6.95486 1.53079 7.00243 1.53079C7.05 1.53079 7.09648 1.54505 7.13587 1.57173C7.17525 1.59842 7.20573 1.6363 7.22337 1.68048L8.56977 4.93986C8.58484 4.97653 8.60959 5.00842 8.64138 5.03212C8.67316 5.05581 8.71079 5.07042 8.75024 5.07439L12.2448 5.35603C12.292 5.35931 12.3371 5.37672 12.3742 5.40598C12.4114 5.43523 12.4389 5.475 12.4531 5.52009C12.4696 5.56585 12.4718 5.61555 12.4592 5.66255C12.4467 5.70956 12.4202 5.75162 12.3831 5.78314Z"/>
</mask>
<path d="M12.8715 5.38611C12.8311 5.25864 12.7534 5.14624 12.6483 5.06346C12.5433 4.98068 12.4159 4.93133 12.2825 4.92181L8.92087 4.64837L7.62587 1.51314C7.57486 1.38914 7.48816 1.28309 7.37677 1.20847C7.26538 1.13384 7.13432 1.09399 7.00024 1.09399C6.86616 1.09399 6.73511 1.13384 6.62372 1.20847C6.51233 1.28309 6.42562 1.38914 6.37462 1.51314L5.07962 4.64837L1.71798 4.92181C1.58439 4.93315 1.45712 4.98369 1.35213 5.06707C1.24715 5.15045 1.16911 5.26298 1.12782 5.39053C1.08653 5.51809 1.08382 5.65499 1.12002 5.78409C1.15623 5.91318 1.22974 6.0287 1.33134 6.11618L3.89345 8.32611L3.11032 11.6287C3.07752 11.7592 3.08449 11.8966 3.13033 12.0232C3.17616 12.1498 3.25878 12.2598 3.36757 12.339C3.47636 12.4183 3.60636 12.4633 3.74089 12.4682C3.87542 12.4731 4.00834 12.4376 4.12259 12.3664L7.00024 10.5967L9.8779 12.3664C9.99094 12.4378 10.1229 12.4734 10.2566 12.4684C10.3902 12.4634 10.5192 12.4181 10.6266 12.3385C10.737 12.2604 10.8213 12.1507 10.8683 12.0238C10.9153 11.897 10.923 11.7589 10.8902 11.6276L10.107 8.32337L12.6691 6.11345C12.7718 6.02642 12.846 5.91055 12.8821 5.78087C12.9182 5.65119 12.9145 5.51366 12.8715 5.38611ZM12.3831 5.78314L9.72095 8.08001C9.69063 8.10616 9.66807 8.14014 9.65572 8.17823C9.64338 8.21632 9.64173 8.25706 9.65095 8.29603L10.4641 11.7299C10.4761 11.7768 10.4735 11.8262 10.4567 11.8716C10.4399 11.917 10.4097 11.9563 10.3701 11.9842C10.3324 12.0123 10.2871 12.0283 10.2401 12.03C10.1931 12.0318 10.1467 12.0192 10.107 11.994L7.11509 10.1538C7.08056 10.1325 7.0408 10.1212 7.00024 10.1212C6.95968 10.1212 6.91992 10.1325 6.8854 10.1538L3.89345 11.994C3.85377 12.0192 3.80737 12.0318 3.76039 12.03C3.71341 12.0283 3.66808 12.0123 3.6304 11.9842C3.59081 11.9563 3.56061 11.917 3.54381 11.8716C3.52702 11.8262 3.52441 11.7768 3.53634 11.7299L4.34954 8.29603C4.35876 8.25706 4.35711 8.21632 4.34476 8.17823C4.33242 8.14014 4.30986 8.10616 4.27954 8.08001L1.61735 5.78314C1.58057 5.75213 1.55401 5.71075 1.54113 5.66441C1.52825 5.61806 1.52966 5.56891 1.54516 5.52337C1.55943 5.47828 1.58692 5.43852 1.62408 5.40926C1.66124 5.38 1.70634 5.36259 1.75352 5.35931L5.25024 5.07439C5.29046 5.07119 5.32902 5.05693 5.36164 5.03319C5.39426 5.00945 5.41968 4.97715 5.43509 4.93986L6.78149 1.68048C6.79913 1.6363 6.82961 1.59842 6.86899 1.57173C6.90838 1.54505 6.95486 1.53079 7.00243 1.53079C7.05 1.53079 7.09648 1.54505 7.13587 1.57173C7.17525 1.59842 7.20573 1.6363 7.22337 1.68048L8.56977 4.93986C8.58484 4.97653 8.60959 5.00842 8.64138 5.03212C8.67316 5.05581 8.71079 5.07042 8.75024 5.07439L12.2448 5.35603C12.292 5.35931 12.3371 5.37672 12.3742 5.40598C12.4114 5.43523 12.4389 5.475 12.4531 5.52009C12.4696 5.56585 12.4718 5.61555 12.4592 5.66255C12.4467 5.70956 12.4202 5.75162 12.3831 5.78314Z" fill="black"/>
<path d="M12.3831 5.78314L9.72095 8.08001C9.69063 8.10616 9.66807 8.14014 9.65572 8.17823C9.64338 8.21632 9.64173 8.25706 9.65095 8.29603L10.4641 11.7299C10.4761 11.7768 10.4735 11.8262 10.4567 11.8716C10.4399 11.917 10.4097 11.9563 10.3701 11.9842C10.3324 12.0123 10.2871 12.0283 10.2401 12.03C10.1931 12.0318 10.1467 12.0192 10.107 11.994L7.11509 10.1538C7.08056 10.1325 7.0408 10.1212 7.00024 10.1212C6.95968 10.1212 6.91992 10.1325 6.8854 10.1538L3.89345 11.994C3.85377 12.0192 3.80737 12.0318 3.76039 12.03C3.71341 12.0283 3.66808 12.0123 3.6304 11.9842C3.59081 11.9563 3.56061 11.917 3.54381 11.8716C3.52702 11.8262 3.52441 11.7768 3.53634 11.7299L4.34954 8.29603C4.35876 8.25706 4.35711 8.21632 4.34476 8.17823C4.33242 8.14014 4.30986 8.10616 4.27954 8.08001L1.61735 5.78314C1.58057 5.75213 1.55401 5.71075 1.54113 5.66441C1.52825 5.61806 1.52966 5.56891 1.54516 5.52337C1.55943 5.47828 1.58692 5.43852 1.62408 5.40926C1.66124 5.38 1.70634 5.36259 1.75352 5.35931L5.25024 5.07439C5.29046 5.07119 5.32902 5.05693 5.36164 5.03319C5.39426 5.00945 5.41968 4.97715 5.43509 4.93986L6.78149 1.68048C6.79913 1.6363 6.82961 1.59842 6.86899 1.57173C6.90838 1.54505 6.95486 1.53079 7.00243 1.53079C7.05 1.53079 7.09648 1.54505 7.13587 1.57173C7.17525 1.59842 7.20573 1.6363 7.22337 1.68048L8.56977 4.93986C8.58484 4.97653 8.60959 5.00842 8.64138 5.03212C8.67316 5.05581 8.71079 5.07042 8.75024 5.07439L12.2448 5.35603C12.292 5.35931 12.3371 5.37672 12.3742 5.40598C12.4114 5.43523 12.4389 5.475 12.4531 5.52009C12.4696 5.56585 12.4718 5.61555 12.4592 5.66255C12.4467 5.70956 12.4202 5.75162 12.3831 5.78314Z" fill="black"/>
<path d="M12.3831 5.78314L12.0592 5.40226L12.0565 5.40456L12.3831 5.78314ZM9.72095 8.08001L10.0475 8.45863L10.0476 8.45858L9.72095 8.08001ZM9.65095 8.29603L9.16438 8.41116L9.1644 8.41125L9.65095 8.29603ZM10.4641 11.7299L9.97754 11.8451L9.97956 11.853L10.4641 11.7299ZM10.3701 11.9842L10.0822 11.5751L10.0711 11.5834L10.3701 11.9842ZM10.107 11.994L10.3753 11.572L10.369 11.5681L10.107 11.994ZM7.11509 10.1538L6.85259 10.5793L6.85314 10.5797L7.11509 10.1538ZM6.8854 10.1538L7.14735 10.5797L7.1479 10.5793L6.8854 10.1538ZM3.89345 11.994L3.63147 11.5681L3.62523 11.572L3.89345 11.994ZM3.6304 11.9842L3.92952 11.5833L3.91819 11.5753L3.6304 11.9842ZM3.53634 11.7299L4.02099 11.853L4.02288 11.8451L3.53634 11.7299ZM4.34954 8.29603L4.83608 8.41125L4.8361 8.41116L4.34954 8.29603ZM4.27954 8.08001L3.95292 8.45858L3.95297 8.45863L4.27954 8.08001ZM1.61735 5.78314L1.944 5.40454L1.93963 5.40085L1.61735 5.78314ZM1.54516 5.52337L2.01858 5.68461L2.02189 5.67414L1.54516 5.52337ZM1.75352 5.35931L1.78826 5.85814L1.79413 5.85766L1.75352 5.35931ZM5.25024 5.07439L5.21063 4.57596L5.20964 4.57604L5.25024 5.07439ZM5.43509 4.93986L5.8972 5.13078L5.89721 5.13075L5.43509 4.93986ZM6.78149 1.68048L7.24365 1.87139L7.24586 1.86585L6.78149 1.68048ZM7.00243 1.53079V2.03079V1.53079ZM7.22337 1.68048L6.75897 1.86587L6.76124 1.87138L7.22337 1.68048ZM8.56977 4.93986L9.03227 4.74986L9.0319 4.74896L8.56977 4.93986ZM8.75024 5.07439L8.70024 5.57198L8.71008 5.57277L8.75024 5.07439ZM12.2448 5.35603L12.2046 5.85444L12.21 5.85482L12.2448 5.35603ZM12.4531 5.52009L11.9764 5.67085L11.9794 5.68027L11.9827 5.68957L12.4531 5.52009ZM12.0565 5.40456L9.39432 7.70144L10.0476 8.45858L12.7098 6.16171L12.0565 5.40456ZM9.39438 7.70139C9.29475 7.78732 9.22063 7.89894 9.18007 8.02409L10.1314 8.33236C10.1155 8.38133 10.0865 8.42501 10.0475 8.45863L9.39438 7.70139ZM9.18007 8.02409C9.13951 8.14925 9.13409 8.28313 9.16438 8.41116L10.1375 8.1809C10.1494 8.231 10.1472 8.28339 10.1314 8.33236L9.18007 8.02409ZM9.1644 8.41125L9.97761 11.8451L10.9507 11.6146L10.1375 8.1808L9.1644 8.41125ZM9.97956 11.853C9.96653 11.8018 9.96938 11.7478 9.98772 11.6982L10.9256 12.0451C10.9776 11.9047 10.9856 11.7518 10.9487 11.6067L9.97956 11.853ZM9.98772 11.6982C10.0061 11.6486 10.0391 11.6057 10.0823 11.5753L10.6579 12.393C10.7803 12.3068 10.8737 12.1855 10.9256 12.0451L9.98772 11.6982ZM10.0711 11.5834C10.1147 11.5509 10.1671 11.5324 10.2214 11.5304L10.2588 12.5297C10.4071 12.5241 10.5502 12.4736 10.6691 12.3849L10.0711 11.5834ZM10.2214 11.5304C10.2757 11.5283 10.3294 11.5429 10.3753 11.572L9.83883 12.416C9.96406 12.4956 10.1105 12.5352 10.2588 12.5297L10.2214 11.5304ZM10.369 11.5681L7.37704 9.72787L6.85314 10.5797L9.84509 12.4199L10.369 11.5681ZM7.37759 9.72821C7.26417 9.65825 7.13352 9.62119 7.00024 9.62119V10.6212C6.94809 10.6212 6.89696 10.6067 6.85259 10.5793L7.37759 9.72821ZM7.00024 9.62119C6.86696 9.62119 6.73632 9.65825 6.6229 9.72821L7.1479 10.5793C7.10352 10.6067 7.0524 10.6212 7.00024 10.6212V9.62119ZM6.62345 9.72787L3.6315 11.5681L4.15539 12.4199L7.14735 10.5797L6.62345 9.72787ZM3.62523 11.572C3.67111 11.5429 3.72477 11.5283 3.77909 11.5304L3.74169 12.5297C3.88996 12.5352 4.03643 12.4956 4.16166 12.416L3.62523 11.572ZM3.77909 11.5304C3.83341 11.5324 3.88583 11.5509 3.9294 11.5834L3.3314 12.3849C3.45032 12.4736 3.59341 12.5241 3.74169 12.5297L3.77909 11.5304ZM3.91819 11.5753C3.96144 11.6057 3.99442 11.6486 4.01276 11.6982L3.07487 12.0451C3.12681 12.1855 3.22017 12.3068 3.3426 12.393L3.91819 11.5753ZM4.01276 11.6982C4.03111 11.7478 4.03396 11.8018 4.02093 11.853L3.05174 11.6067C3.01486 11.7518 3.02293 11.9047 3.07487 12.0451L4.01276 11.6982ZM4.02288 11.8451L4.83608 8.41125L3.863 8.1808L3.04979 11.6146L4.02288 11.8451ZM4.8361 8.41116C4.8664 8.28313 4.86097 8.14924 4.82041 8.02409L3.86911 8.33236C3.85324 8.28339 3.85112 8.231 3.86297 8.1809L4.8361 8.41116ZM4.82041 8.02409C4.77986 7.89894 4.70573 7.78732 4.6061 7.70139L3.95297 8.45863C3.91399 8.42501 3.88498 8.38133 3.86911 8.33236L4.82041 8.02409ZM4.60616 7.70144L1.94398 5.40456L1.29073 6.16171L3.95292 8.45858L4.60616 7.70144ZM1.93963 5.40085C1.97979 5.43472 2.00881 5.47991 2.02287 5.53053L1.05939 5.79828C1.09921 5.94159 1.18136 6.06955 1.29508 6.16542L1.93963 5.40085ZM2.02287 5.53053C2.03694 5.58115 2.03541 5.63484 2.01847 5.68457L1.07186 5.36218C1.02391 5.50298 1.01956 5.65497 1.05939 5.79828L2.02287 5.53053ZM2.02189 5.67414C2.0059 5.7247 1.97507 5.76928 1.9334 5.80209L1.31476 5.01642C1.19878 5.10775 1.11295 5.23185 1.06844 5.37261L2.02189 5.67414ZM1.9334 5.80209C1.89173 5.8349 1.84116 5.85442 1.78826 5.8581L1.71879 4.86052C1.57152 4.87077 1.43075 4.92509 1.31476 5.01642L1.9334 5.80209ZM1.79413 5.85766L5.29085 5.57274L5.20964 4.57604L1.71292 4.86096L1.79413 5.85766ZM5.28985 5.57282C5.42201 5.56231 5.54868 5.51547 5.65587 5.43745L5.06741 4.62893C5.10935 4.5984 5.15892 4.58007 5.21063 4.57596L5.28985 5.57282ZM5.65587 5.43745C5.76305 5.35944 5.84658 5.25331 5.8972 5.13078L4.97298 4.74893C4.99278 4.70099 5.02547 4.65945 5.06741 4.62893L5.65587 5.43745ZM5.89721 5.13075L7.24362 1.87138L6.31937 1.48958L4.97296 4.74896L5.89721 5.13075ZM7.24586 1.86585C7.22643 1.91453 7.19285 1.95627 7.14945 1.98567L6.58853 1.1578C6.46637 1.24057 6.37183 1.35807 6.31712 1.49511L7.24586 1.86585ZM7.14945 1.98567C7.10606 2.01507 7.05485 2.03079 7.00243 2.03079V1.03079C6.85487 1.03079 6.7107 1.07503 6.58853 1.1578L7.14945 1.98567ZM7.00243 2.03079C6.95001 2.03079 6.8988 2.01507 6.85541 1.98567L7.41633 1.1578C7.29416 1.07503 7.14999 1.03079 7.00243 1.03079V2.03079ZM6.85541 1.98567C6.81202 1.95627 6.77843 1.91453 6.759 1.86585L7.68774 1.49511C7.63303 1.35806 7.53849 1.24057 7.41633 1.1578L6.85541 1.98567ZM6.76124 1.87138L8.10765 5.13075L9.0319 4.74896L7.68549 1.48958L6.76124 1.87138ZM8.10728 5.12985C8.15678 5.25035 8.2381 5.35513 8.34254 5.43299L8.94021 4.63124C8.98108 4.66171 9.0129 4.70271 9.03227 4.74986L8.10728 5.12985ZM8.34254 5.43299C8.44699 5.51084 8.57063 5.55886 8.70025 5.57188L8.80024 4.57689C8.85096 4.58199 8.89934 4.60078 8.94021 4.63124L8.34254 5.43299ZM8.71008 5.57277L12.2046 5.85441L12.2849 4.85764L8.79041 4.576L8.71008 5.57277ZM12.21 5.85482C12.1571 5.85114 12.1066 5.83162 12.0649 5.79881L12.6835 5.01314C12.5675 4.92181 12.4268 4.86749 12.2795 4.85724L12.21 5.85482ZM12.0649 5.79881C12.0232 5.76601 11.9924 5.72142 11.9764 5.67085L12.9299 5.36933C12.8853 5.22857 12.7995 5.10446 12.6835 5.01314L12.0649 5.79881ZM11.9827 5.68957C11.9647 5.63959 11.9624 5.58531 11.9761 5.53397L12.9424 5.79113C12.9811 5.64579 12.9745 5.49211 12.9235 5.35061L11.9827 5.68957ZM11.9761 5.53397C11.9897 5.48263 12.0187 5.43669 12.0592 5.40227L12.7071 6.164C12.8216 6.06656 12.9037 5.93648 12.9424 5.79113L11.9761 5.53397ZM12.8715 5.38611L11.9182 5.68824L11.921 5.69686L11.9239 5.70544L12.8715 5.38611ZM12.2825 4.92181L12.2014 5.91857L12.2113 5.91927L12.2825 4.92181ZM8.92087 4.64837L7.99661 5.03013L8.23013 5.59549L8.83979 5.64508L8.92087 4.64837ZM7.62587 1.51314L6.70105 1.89355L6.70161 1.8949L7.62587 1.51314ZM6.37462 1.51314L7.29888 1.8949L7.29944 1.89355L6.37462 1.51314ZM5.07962 4.64837L5.16069 5.64508L5.77036 5.59549L6.00388 5.03013L5.07962 4.64837ZM1.71798 4.92181L1.6369 3.92509L1.63336 3.9254L1.71798 4.92181ZM1.33134 6.11618L1.98448 5.35895L1.98382 5.35838L1.33134 6.11618ZM3.89345 8.32611L4.86646 8.55683L5.00664 7.96568L4.54659 7.56887L3.89345 8.32611ZM3.11032 11.6287L4.08027 11.8723L4.08334 11.8594L3.11032 11.6287ZM4.12259 12.3664L3.59873 11.5146L3.59367 11.5177L4.12259 12.3664ZM7.00024 10.5967L7.52409 9.74492L7.00024 9.42277L6.4764 9.74492L7.00024 10.5967ZM9.8779 12.3664L10.412 11.5209L10.4017 11.5146L9.8779 12.3664ZM10.6266 12.3385L10.0489 11.5223L10.0399 11.5286L10.0311 11.5352L10.6266 12.3385ZM10.8902 11.6276L9.91705 11.8582L9.91998 11.87L10.8902 11.6276ZM10.107 8.32337L9.4539 7.56614L8.9939 7.9629L9.134 8.55399L10.107 8.32337ZM12.6691 6.11345L12.0225 5.35058L12.016 5.35622L12.6691 6.11345ZM13.8248 5.08398C13.7239 4.76561 13.5297 4.48488 13.2674 4.27813L12.0293 5.84879C11.977 5.8076 11.9383 5.75166 11.9182 5.68824L13.8248 5.08398ZM13.2674 4.27813C13.0051 4.07137 12.6868 3.94813 12.3537 3.92435L12.2113 5.91927C12.1449 5.91453 12.0815 5.88998 12.0293 5.84879L13.2674 4.27813ZM12.3636 3.9251L9.00194 3.65166L8.83979 5.64508L12.2014 5.91852L12.3636 3.9251ZM9.84513 4.26661L8.55013 1.13137L6.70161 1.8949L7.99661 5.03013L9.84513 4.26661ZM8.55069 1.13273C8.42428 0.825431 8.20942 0.562625 7.93336 0.377679L6.82018 2.03925C6.7669 2.00356 6.72544 1.95285 6.70105 1.89355L8.55069 1.13273ZM7.93336 0.377679C7.65731 0.192735 7.33252 0.0939941 7.00024 0.0939941V2.09399C6.93612 2.09399 6.87345 2.07494 6.82018 2.03925L7.93336 0.377679ZM7.00024 0.0939941C6.66796 0.0939941 6.34318 0.192735 6.06712 0.377679L7.18031 2.03925C7.12704 2.07494 7.06436 2.09399 7.00024 2.09399V0.0939941ZM6.06712 0.377679C5.79107 0.562624 5.5762 0.825429 5.4498 1.13273L7.29944 1.89355C7.27504 1.95285 7.23358 2.00356 7.18031 2.03925L6.06712 0.377679ZM5.45036 1.13137L4.15536 4.26661L6.00388 5.03013L7.29888 1.8949L5.45036 1.13137ZM4.99854 3.65166L1.6369 3.9251L1.79905 5.91852L5.16069 5.64508L4.99854 3.65166ZM1.63336 3.9254C1.30356 3.9534 0.989374 4.07815 0.730191 4.28401L1.97407 5.85013C1.92486 5.88922 1.86521 5.91291 1.80259 5.91822L1.63336 3.9254ZM0.730191 4.28401C0.471008 4.48986 0.278368 4.76765 0.17643 5.08255L2.07921 5.69852C2.05986 5.75831 2.02328 5.81105 1.97407 5.85013L0.730191 4.28401ZM0.17643 5.08255C0.0744915 5.39745 0.0677924 5.73544 0.157172 6.05412L2.08287 5.51405C2.09984 5.57455 2.09857 5.63873 2.07921 5.69852L0.17643 5.08255ZM0.157172 6.05412C0.246551 6.37282 0.428031 6.65802 0.678853 6.87399L1.98382 5.35838C2.03144 5.39938 2.0659 5.45354 2.08287 5.51405L0.157172 6.05412ZM0.678192 6.87342L3.2403 9.08334L4.54659 7.56887L1.98448 5.35895L0.678192 6.87342ZM2.92043 8.09538L2.1373 11.398L4.08334 11.8594L4.86646 8.55683L2.92043 8.09538ZM2.14045 11.385C2.0591 11.7089 2.07638 12.0497 2.19008 12.3637L4.07057 11.6827C4.0926 11.7435 4.09595 11.8096 4.08019 11.8723L2.14045 11.385ZM2.19008 12.3637C2.30379 12.6777 2.50873 12.9505 2.77859 13.1472L3.95655 11.5309C4.00883 11.569 4.04854 11.6219 4.07057 11.6827L2.19008 12.3637ZM2.77859 13.1472C3.04846 13.3439 3.37095 13.4554 3.70467 13.4675L3.77712 11.4688C3.84178 11.4712 3.90426 11.4928 3.95655 11.5309L2.77859 13.1472ZM3.70467 13.4675C4.03839 13.4796 4.3681 13.3917 4.6515 13.2151L3.59367 11.5177C3.64858 11.4835 3.71246 11.4665 3.77712 11.4688L3.70467 13.4675ZM4.64643 13.2182L7.52409 11.4485L6.4764 9.74492L3.59874 11.5146L4.64643 13.2182ZM6.4764 11.4485L9.35405 13.2182L10.4017 11.5146L7.52409 9.74492L6.4764 11.4485ZM9.34384 13.2119C9.62744 13.391 9.95858 13.4802 10.2938 13.4677L10.2193 11.4691C10.2873 11.4666 10.3544 11.4846 10.412 11.521L9.34384 13.2119ZM10.2938 13.4677C10.629 13.4552 10.9526 13.3416 11.2221 13.1419L10.0311 11.5352C10.0857 11.4947 10.1514 11.4716 10.2193 11.4691L10.2938 13.4677ZM11.2042 13.1548C11.4791 12.9603 11.6889 12.6872 11.8059 12.3715L9.93067 11.6762C9.95368 11.6141 9.99488 11.5605 10.0489 11.5223L11.2042 13.1548ZM11.8059 12.3715C11.923 12.0557 11.942 11.7119 11.8603 11.3852L9.91998 11.87C9.90394 11.8058 9.90767 11.7382 9.93067 11.6762L11.8059 12.3715ZM11.8632 11.397L11.0801 8.09275L9.134 8.55399L9.91712 11.8582L11.8632 11.397ZM10.7602 9.08061L13.3223 6.87068L12.016 5.35622L9.4539 7.56614L10.7602 9.08061ZM13.3157 6.87629C13.5712 6.65976 13.7558 6.37152 13.8455 6.04889L11.9187 5.51286C11.9363 5.44959 11.9725 5.39307 12.0226 5.35061L13.3157 6.87629ZM13.8455 6.04889C13.9353 5.72626 13.9261 5.38412 13.8191 5.06677L11.9239 5.70544C11.9029 5.64321 11.9011 5.57612 11.9187 5.51286L13.8455 6.04889Z" fill="black" mask="url(#path-1-inside-1_324_3819)"/>
</g>
</g>
</svg>
