<svg width="14" height="14" viewBox="0 0 14 14" fill="none" xmlns="http://www.w3.org/2000/svg">
<g id="ph:star-thin">
<g id="Vector">
<mask id="path-1-inside-1_89_10179" fill="white">
<path d="M12.8712 5.38611C12.8308 5.25864 12.7531 5.14624 12.6481 5.06346C12.5431 4.98068 12.4156 4.93133 12.2823 4.92181L8.92062 4.64837L7.62562 1.51314C7.57462 1.38914 7.48792 1.28309 7.37652 1.20847C7.26513 1.13384 7.13408 1.09399 7 1.09399C6.86592 1.09399 6.73486 1.13384 6.62347 1.20847C6.51208 1.28309 6.42538 1.38914 6.37437 1.51314L5.07937 4.64837L1.71773 4.92181C1.58414 4.93315 1.45687 4.98369 1.35189 5.06707C1.2469 5.15045 1.16887 5.26298 1.12758 5.39053C1.08629 5.51809 1.08357 5.65499 1.11978 5.78409C1.15598 5.91318 1.22949 6.0287 1.33109 6.11618L3.8932 8.32611L3.11008 11.6287C3.07728 11.7592 3.08425 11.8966 3.13008 12.0232C3.17592 12.1498 3.25854 12.2598 3.36733 12.339C3.47612 12.4183 3.60612 12.4633 3.74065 12.4682C3.87518 12.4731 4.0081 12.4376 4.12234 12.3664L7 10.5967L9.87765 12.3664C9.9907 12.4378 10.1227 12.4734 10.2563 12.4684C10.3899 12.4634 10.5189 12.4181 10.6263 12.3385C10.7368 12.2604 10.821 12.1507 10.8681 12.0238C10.9151 11.897 10.9227 11.7589 10.8899 11.6276L10.1068 8.32337L12.6689 6.11345C12.7716 6.02642 12.8458 5.91055 12.8818 5.78087C12.9179 5.65119 12.9142 5.51366 12.8712 5.38611ZM12.3829 5.78314L9.7207 8.08001C9.69038 8.10616 9.66782 8.14014 9.65548 8.17823C9.64313 8.21632 9.64148 8.25706 9.6507 8.29603L10.4639 11.7299C10.4758 11.7768 10.4732 11.8262 10.4564 11.8716C10.4396 11.917 10.4094 11.9563 10.3698 11.9842C10.3322 12.0123 10.2868 12.0283 10.2399 12.03C10.1929 12.0318 10.1465 12.0192 10.1068 11.994L7.11484 10.1538C7.08032 10.1325 7.04056 10.1212 7 10.1212C6.95944 10.1212 6.91968 10.1325 6.88515 10.1538L3.8932 11.994C3.85353 12.0192 3.80712 12.0318 3.76015 12.03C3.71317 12.0283 3.66783 12.0123 3.63015 11.9842C3.59056 11.9563 3.56037 11.917 3.54357 11.8716C3.52677 11.8262 3.52417 11.7768 3.53609 11.7299L4.3493 8.29603C4.35851 8.25706 4.35686 8.21632 4.34452 8.17823C4.33218 8.14014 4.30962 8.10616 4.2793 8.08001L1.61711 5.78314C1.58033 5.75213 1.55377 5.71075 1.54089 5.66441C1.52801 5.61806 1.52941 5.56891 1.54492 5.52337C1.55918 5.47828 1.58668 5.43852 1.62384 5.40926C1.661 5.38 1.7061 5.36259 1.75328 5.35931L5.25 5.07439C5.29022 5.07119 5.32877 5.05693 5.36139 5.03319C5.39402 5.00945 5.41944 4.97715 5.43484 4.93986L6.78125 1.68048C6.79889 1.6363 6.82936 1.59842 6.86875 1.57173C6.90813 1.54505 6.95461 1.53079 7.00219 1.53079C7.04976 1.53079 7.09624 1.54505 7.13562 1.57173C7.17501 1.59842 7.20549 1.6363 7.22312 1.68048L8.56953 4.93986C8.5846 4.97653 8.60934 5.00842 8.64113 5.03212C8.67292 5.05581 8.71055 5.07042 8.75 5.07439L12.2445 5.35603C12.2917 5.35931 12.3368 5.37672 12.374 5.40598C12.4111 5.43523 12.4386 5.475 12.4529 5.52009C12.4694 5.56585 12.4715 5.61555 12.459 5.66255C12.4465 5.70956 12.4199 5.75162 12.3829 5.78314Z"/>
<path d="M12.3829 5.78314L9.7207 8.08001C9.69038 8.10616 9.66782 8.14014 9.65548 8.17823C9.64313 8.21632 9.64148 8.25706 9.6507 8.29603L10.4639 11.7299C10.4758 11.7768 10.4732 11.8262 10.4564 11.8716C10.4396 11.917 10.4094 11.9563 10.3698 11.9842C10.3322 12.0123 10.2868 12.0283 10.2399 12.03C10.1929 12.0318 10.1465 12.0192 10.1068 11.994L7.11484 10.1538C7.08032 10.1325 7.04056 10.1212 7 10.1212C6.95944 10.1212 6.91968 10.1325 6.88515 10.1538L3.8932 11.994C3.85353 12.0192 3.80712 12.0318 3.76015 12.03C3.71317 12.0283 3.66783 12.0123 3.63015 11.9842C3.59056 11.9563 3.56037 11.917 3.54357 11.8716C3.52677 11.8262 3.52417 11.7768 3.53609 11.7299L4.3493 8.29603C4.35851 8.25706 4.35686 8.21632 4.34452 8.17823C4.33218 8.14014 4.30962 8.10616 4.2793 8.08001L1.61711 5.78314C1.58033 5.75213 1.55377 5.71075 1.54089 5.66441C1.52801 5.61806 1.52941 5.56891 1.54492 5.52337C1.55918 5.47828 1.58668 5.43852 1.62384 5.40926C1.661 5.38 1.7061 5.36259 1.75328 5.35931L5.25 5.07439C5.29022 5.07119 5.32877 5.05693 5.36139 5.03319C5.39402 5.00945 5.41944 4.97715 5.43484 4.93986L6.78125 1.68048C6.79889 1.6363 6.82936 1.59842 6.86875 1.57173C6.90813 1.54505 6.95461 1.53079 7.00219 1.53079C7.04976 1.53079 7.09624 1.54505 7.13562 1.57173C7.17501 1.59842 7.20549 1.6363 7.22312 1.68048L8.56953 4.93986C8.5846 4.97653 8.60934 5.00842 8.64113 5.03212C8.67292 5.05581 8.71055 5.07042 8.75 5.07439L12.2445 5.35603C12.2917 5.35931 12.3368 5.37672 12.374 5.40598C12.4111 5.43523 12.4386 5.475 12.4529 5.52009C12.4694 5.56585 12.4715 5.61555 12.459 5.66255C12.4465 5.70956 12.4199 5.75162 12.3829 5.78314Z"/>
</mask>
<path d="M12.8712 5.38611C12.8308 5.25864 12.7531 5.14624 12.6481 5.06346C12.5431 4.98068 12.4156 4.93133 12.2823 4.92181L8.92062 4.64837L7.62562 1.51314C7.57462 1.38914 7.48792 1.28309 7.37652 1.20847C7.26513 1.13384 7.13408 1.09399 7 1.09399C6.86592 1.09399 6.73486 1.13384 6.62347 1.20847C6.51208 1.28309 6.42538 1.38914 6.37437 1.51314L5.07937 4.64837L1.71773 4.92181C1.58414 4.93315 1.45687 4.98369 1.35189 5.06707C1.2469 5.15045 1.16887 5.26298 1.12758 5.39053C1.08629 5.51809 1.08357 5.65499 1.11978 5.78409C1.15598 5.91318 1.22949 6.0287 1.33109 6.11618L3.8932 8.32611L3.11008 11.6287C3.07728 11.7592 3.08425 11.8966 3.13008 12.0232C3.17592 12.1498 3.25854 12.2598 3.36733 12.339C3.47612 12.4183 3.60612 12.4633 3.74065 12.4682C3.87518 12.4731 4.0081 12.4376 4.12234 12.3664L7 10.5967L9.87765 12.3664C9.9907 12.4378 10.1227 12.4734 10.2563 12.4684C10.3899 12.4634 10.5189 12.4181 10.6263 12.3385C10.7368 12.2604 10.821 12.1507 10.8681 12.0238C10.9151 11.897 10.9227 11.7589 10.8899 11.6276L10.1068 8.32337L12.6689 6.11345C12.7716 6.02642 12.8458 5.91055 12.8818 5.78087C12.9179 5.65119 12.9142 5.51366 12.8712 5.38611ZM12.3829 5.78314L9.7207 8.08001C9.69038 8.10616 9.66782 8.14014 9.65548 8.17823C9.64313 8.21632 9.64148 8.25706 9.6507 8.29603L10.4639 11.7299C10.4758 11.7768 10.4732 11.8262 10.4564 11.8716C10.4396 11.917 10.4094 11.9563 10.3698 11.9842C10.3322 12.0123 10.2868 12.0283 10.2399 12.03C10.1929 12.0318 10.1465 12.0192 10.1068 11.994L7.11484 10.1538C7.08032 10.1325 7.04056 10.1212 7 10.1212C6.95944 10.1212 6.91968 10.1325 6.88515 10.1538L3.8932 11.994C3.85353 12.0192 3.80712 12.0318 3.76015 12.03C3.71317 12.0283 3.66783 12.0123 3.63015 11.9842C3.59056 11.9563 3.56037 11.917 3.54357 11.8716C3.52677 11.8262 3.52417 11.7768 3.53609 11.7299L4.3493 8.29603C4.35851 8.25706 4.35686 8.21632 4.34452 8.17823C4.33218 8.14014 4.30962 8.10616 4.2793 8.08001L1.61711 5.78314C1.58033 5.75213 1.55377 5.71075 1.54089 5.66441C1.52801 5.61806 1.52941 5.56891 1.54492 5.52337C1.55918 5.47828 1.58668 5.43852 1.62384 5.40926C1.661 5.38 1.7061 5.36259 1.75328 5.35931L5.25 5.07439C5.29022 5.07119 5.32877 5.05693 5.36139 5.03319C5.39402 5.00945 5.41944 4.97715 5.43484 4.93986L6.78125 1.68048C6.79889 1.6363 6.82936 1.59842 6.86875 1.57173C6.90813 1.54505 6.95461 1.53079 7.00219 1.53079C7.04976 1.53079 7.09624 1.54505 7.13562 1.57173C7.17501 1.59842 7.20549 1.6363 7.22312 1.68048L8.56953 4.93986C8.5846 4.97653 8.60934 5.00842 8.64113 5.03212C8.67292 5.05581 8.71055 5.07042 8.75 5.07439L12.2445 5.35603C12.2917 5.35931 12.3368 5.37672 12.374 5.40598C12.4111 5.43523 12.4386 5.475 12.4529 5.52009C12.4694 5.56585 12.4715 5.61555 12.459 5.66255C12.4465 5.70956 12.4199 5.75162 12.3829 5.78314Z" fill="black"/>
<path d="M12.3829 5.78314L9.7207 8.08001C9.69038 8.10616 9.66782 8.14014 9.65548 8.17823C9.64313 8.21632 9.64148 8.25706 9.6507 8.29603L10.4639 11.7299C10.4758 11.7768 10.4732 11.8262 10.4564 11.8716C10.4396 11.917 10.4094 11.9563 10.3698 11.9842C10.3322 12.0123 10.2868 12.0283 10.2399 12.03C10.1929 12.0318 10.1465 12.0192 10.1068 11.994L7.11484 10.1538C7.08032 10.1325 7.04056 10.1212 7 10.1212C6.95944 10.1212 6.91968 10.1325 6.88515 10.1538L3.8932 11.994C3.85353 12.0192 3.80712 12.0318 3.76015 12.03C3.71317 12.0283 3.66783 12.0123 3.63015 11.9842C3.59056 11.9563 3.56037 11.917 3.54357 11.8716C3.52677 11.8262 3.52417 11.7768 3.53609 11.7299L4.3493 8.29603C4.35851 8.25706 4.35686 8.21632 4.34452 8.17823C4.33218 8.14014 4.30962 8.10616 4.2793 8.08001L1.61711 5.78314C1.58033 5.75213 1.55377 5.71075 1.54089 5.66441C1.52801 5.61806 1.52941 5.56891 1.54492 5.52337C1.55918 5.47828 1.58668 5.43852 1.62384 5.40926C1.661 5.38 1.7061 5.36259 1.75328 5.35931L5.25 5.07439C5.29022 5.07119 5.32877 5.05693 5.36139 5.03319C5.39402 5.00945 5.41944 4.97715 5.43484 4.93986L6.78125 1.68048C6.79889 1.6363 6.82936 1.59842 6.86875 1.57173C6.90813 1.54505 6.95461 1.53079 7.00219 1.53079C7.04976 1.53079 7.09624 1.54505 7.13562 1.57173C7.17501 1.59842 7.20549 1.6363 7.22312 1.68048L8.56953 4.93986C8.5846 4.97653 8.60934 5.00842 8.64113 5.03212C8.67292 5.05581 8.71055 5.07042 8.75 5.07439L12.2445 5.35603C12.2917 5.35931 12.3368 5.37672 12.374 5.40598C12.4111 5.43523 12.4386 5.475 12.4529 5.52009C12.4694 5.56585 12.4715 5.61555 12.459 5.66255C12.4465 5.70956 12.4199 5.75162 12.3829 5.78314Z" fill="black"/>
<path d="M12.3829 5.78314L12.0589 5.40226L12.0563 5.40456L12.3829 5.78314ZM9.7207 8.08001L10.0473 8.45863L10.0473 8.45858L9.7207 8.08001ZM9.6507 8.29603L9.16414 8.41116L9.16416 8.41125L9.6507 8.29603ZM10.4639 11.7299L9.9773 11.8451L9.97931 11.853L10.4639 11.7299ZM10.3698 11.9842L10.0819 11.5751L10.0708 11.5834L10.3698 11.9842ZM10.1068 11.994L10.375 11.572L10.3687 11.5681L10.1068 11.994ZM7.11484 10.1538L6.85234 10.5793L6.85289 10.5797L7.11484 10.1538ZM6.88515 10.1538L7.1471 10.5797L7.14765 10.5793L6.88515 10.1538ZM3.8932 11.994L3.63122 11.5681L3.62499 11.572L3.8932 11.994ZM3.63015 11.9842L3.92927 11.5833L3.91795 11.5753L3.63015 11.9842ZM3.53609 11.7299L4.02075 11.853L4.02263 11.8451L3.53609 11.7299ZM4.3493 8.29603L4.83584 8.41125L4.83586 8.41116L4.3493 8.29603ZM4.2793 8.08001L3.95267 8.45858L3.95273 8.45863L4.2793 8.08001ZM1.61711 5.78314L1.94375 5.40454L1.93938 5.40085L1.61711 5.78314ZM1.54492 5.52337L2.01834 5.68461L2.02165 5.67414L1.54492 5.52337ZM1.75328 5.35931L1.78802 5.85814L1.79389 5.85766L1.75328 5.35931ZM5.25 5.07439L5.21039 4.57596L5.20939 4.57604L5.25 5.07439ZM5.43484 4.93986L5.89695 5.13078L5.89697 5.13075L5.43484 4.93986ZM6.78125 1.68048L7.2434 1.87139L7.24562 1.86585L6.78125 1.68048ZM7.00219 1.53079V2.03079V1.53079ZM7.22312 1.68048L6.75872 1.86587L6.761 1.87138L7.22312 1.68048ZM8.56953 4.93986L9.03203 4.74986L9.03165 4.74896L8.56953 4.93986ZM8.75 5.07439L8.69999 5.57198L8.70983 5.57277L8.75 5.07439ZM12.2445 5.35603L12.2044 5.85444L12.2098 5.85482L12.2445 5.35603ZM12.4529 5.52009L11.9762 5.67085L11.9791 5.68027L11.9825 5.68957L12.4529 5.52009ZM12.0563 5.40456L9.39408 7.70144L10.0473 8.45858L12.7095 6.16171L12.0563 5.40456ZM9.39414 7.70139C9.29451 7.78732 9.22038 7.89894 9.17983 8.02409L10.1311 8.33236C10.1153 8.38133 10.0863 8.42501 10.0473 8.45863L9.39414 7.70139ZM9.17983 8.02409C9.13927 8.14925 9.13385 8.28313 9.16414 8.41116L10.1373 8.1809C10.1491 8.231 10.147 8.28339 10.1311 8.33236L9.17983 8.02409ZM9.16416 8.41125L9.97736 11.8451L10.9504 11.6146L10.1372 8.1808L9.16416 8.41125ZM9.97931 11.853C9.96629 11.8018 9.96913 11.7478 9.98748 11.6982L10.9254 12.0451C10.9773 11.9047 10.9854 11.7518 10.9485 11.6067L9.97931 11.853ZM9.98748 11.6982C10.0058 11.6486 10.0388 11.6057 10.082 11.5753L10.6576 12.393C10.7801 12.3068 10.8734 12.1855 10.9254 12.0451L9.98748 11.6982ZM10.0708 11.5834C10.1144 11.5509 10.1668 11.5324 10.2212 11.5304L10.2585 12.5297C10.4068 12.5241 10.5499 12.4736 10.6688 12.3849L10.0708 11.5834ZM10.2212 11.5304C10.2755 11.5283 10.3291 11.5429 10.375 11.572L9.83858 12.416C9.96381 12.4956 10.1103 12.5352 10.2585 12.5297L10.2212 11.5304ZM10.3687 11.5681L7.37679 9.72787L6.85289 10.5797L9.84485 12.4199L10.3687 11.5681ZM7.37734 9.72821C7.26392 9.65825 7.13328 9.62119 7 9.62119V10.6212C6.94784 10.6212 6.89672 10.6067 6.85234 10.5793L7.37734 9.72821ZM7 9.62119C6.86672 9.62119 6.73607 9.65825 6.62265 9.72821L7.14765 10.5793C7.10328 10.6067 7.05216 10.6212 7 10.6212V9.62119ZM6.62321 9.72787L3.63125 11.5681L4.15515 12.4199L7.1471 10.5797L6.62321 9.72787ZM3.62499 11.572C3.67087 11.5429 3.72453 11.5283 3.77884 11.5304L3.74145 12.5297C3.88972 12.5352 4.03618 12.4956 4.16142 12.416L3.62499 11.572ZM3.77884 11.5304C3.83316 11.5324 3.88559 11.5509 3.92916 11.5834L3.33115 12.3849C3.45008 12.4736 3.59317 12.5241 3.74145 12.5297L3.77884 11.5304ZM3.91795 11.5753C3.96119 11.6057 3.99417 11.6486 4.01252 11.6982L3.07462 12.0451C3.12656 12.1855 3.21993 12.3068 3.34236 12.393L3.91795 11.5753ZM4.01252 11.6982C4.03086 11.7478 4.03371 11.8018 4.02068 11.853L3.0515 11.6067C3.01462 11.7518 3.02268 11.9047 3.07462 12.0451L4.01252 11.6982ZM4.02263 11.8451L4.83584 8.41125L3.86275 8.1808L3.04955 11.6146L4.02263 11.8451ZM4.83586 8.41116C4.86615 8.28313 4.86072 8.14924 4.82017 8.02409L3.86887 8.33236C3.853 8.28339 3.85088 8.231 3.86273 8.1809L4.83586 8.41116ZM4.82017 8.02409C4.77961 7.89894 4.70549 7.78732 4.60586 7.70139L3.95273 8.45863C3.91375 8.42501 3.88474 8.38133 3.86887 8.33236L4.82017 8.02409ZM4.60592 7.70144L1.94373 5.40456L1.29048 6.16171L3.95267 8.45858L4.60592 7.70144ZM1.93938 5.40085C1.97955 5.43472 2.00856 5.47991 2.02263 5.53053L1.05914 5.79828C1.09897 5.94159 1.18111 6.06955 1.29483 6.16542L1.93938 5.40085ZM2.02263 5.53053C2.0367 5.58115 2.03516 5.63484 2.01822 5.68457L1.07162 5.36218C1.02366 5.50298 1.01932 5.65497 1.05914 5.79828L2.02263 5.53053ZM2.02165 5.67414C2.00566 5.7247 1.97483 5.76928 1.93316 5.80209L1.31452 5.01642C1.19853 5.10775 1.1127 5.23185 1.06819 5.37261L2.02165 5.67414ZM1.93316 5.80209C1.89149 5.8349 1.84092 5.85442 1.78801 5.8581L1.71855 4.86052C1.57128 4.87077 1.4305 4.92509 1.31452 5.01642L1.93316 5.80209ZM1.79389 5.85766L5.29061 5.57274L5.20939 4.57604L1.71267 4.86096L1.79389 5.85766ZM5.28961 5.57282C5.42176 5.56231 5.54844 5.51547 5.65562 5.43745L5.06717 4.62893C5.10911 4.5984 5.15867 4.58007 5.21039 4.57596L5.28961 5.57282ZM5.65562 5.43745C5.76281 5.35944 5.84633 5.25331 5.89695 5.13078L4.97273 4.74893C4.99254 4.70099 5.02522 4.65945 5.06717 4.62893L5.65562 5.43745ZM5.89697 5.13075L7.24337 1.87138L6.31912 1.48958L4.97272 4.74896L5.89697 5.13075ZM7.24562 1.86585C7.22618 1.91453 7.1926 1.95627 7.14921 1.98567L6.58829 1.1578C6.46613 1.24057 6.37159 1.35807 6.31688 1.49511L7.24562 1.86585ZM7.14921 1.98567C7.10581 2.01507 7.0546 2.03079 7.00219 2.03079V1.03079C6.85462 1.03079 6.71045 1.07503 6.58829 1.1578L7.14921 1.98567ZM7.00219 2.03079C6.94977 2.03079 6.89856 2.01507 6.85516 1.98567L7.41608 1.1578C7.29392 1.07503 7.14975 1.03079 7.00219 1.03079V2.03079ZM6.85516 1.98567C6.81177 1.95627 6.77819 1.91453 6.75876 1.86585L7.68749 1.49511C7.63278 1.35806 7.53824 1.24057 7.41608 1.1578L6.85516 1.98567ZM6.761 1.87138L8.10741 5.13075L9.03165 4.74896L7.68525 1.48958L6.761 1.87138ZM8.10703 5.12985C8.15654 5.25035 8.23785 5.35513 8.3423 5.43299L8.93996 4.63124C8.98083 4.66171 9.01266 4.70271 9.03203 4.74986L8.10703 5.12985ZM8.3423 5.43299C8.44674 5.51084 8.57038 5.55886 8.7 5.57188L8.79999 4.57689C8.85072 4.58199 8.8991 4.60078 8.93996 4.63124L8.3423 5.43299ZM8.70983 5.57277L12.2044 5.85441L12.2847 4.85764L8.79017 4.576L8.70983 5.57277ZM12.2098 5.85482C12.1569 5.85114 12.1063 5.83162 12.0647 5.79881L12.6833 5.01314C12.5673 4.92181 12.4265 4.86749 12.2793 4.85724L12.2098 5.85482ZM12.0647 5.79881C12.023 5.76601 11.9922 5.72142 11.9762 5.67085L12.9296 5.36933C12.8851 5.22857 12.7993 5.10446 12.6833 5.01314L12.0647 5.79881ZM11.9825 5.68957C11.9645 5.63959 11.9622 5.58531 11.9758 5.53397L12.9422 5.79113C12.9809 5.64579 12.9743 5.49211 12.9233 5.35061L11.9825 5.68957ZM11.9758 5.53397C11.9895 5.48263 12.0185 5.43669 12.0589 5.40227L12.7068 6.164C12.8214 6.06656 12.9035 5.93648 12.9422 5.79113L11.9758 5.53397ZM12.8712 5.38611L11.918 5.68824L11.9207 5.69686L11.9236 5.70544L12.8712 5.38611ZM12.2823 4.92181L12.2012 5.91857L12.2111 5.91927L12.2823 4.92181ZM8.92062 4.64837L7.99636 5.03013L8.22988 5.59549L8.83955 5.64508L8.92062 4.64837ZM7.62562 1.51314L6.7008 1.89355L6.70136 1.8949L7.62562 1.51314ZM6.37437 1.51314L7.29863 1.8949L7.29919 1.89355L6.37437 1.51314ZM5.07937 4.64837L5.16045 5.64508L5.77012 5.59549L6.00363 5.03013L5.07937 4.64837ZM1.71773 4.92181L1.63666 3.92509L1.63312 3.9254L1.71773 4.92181ZM1.33109 6.11618L1.98424 5.35895L1.98358 5.35838L1.33109 6.11618ZM3.8932 8.32611L4.86622 8.55683L5.0064 7.96568L4.54635 7.56887L3.8932 8.32611ZM3.11008 11.6287L4.08003 11.8723L4.0831 11.8594L3.11008 11.6287ZM4.12234 12.3664L3.59849 11.5146L3.59342 11.5177L4.12234 12.3664ZM7 10.5967L7.52384 9.74492L7 9.42277L6.47615 9.74492L7 10.5967ZM9.87765 12.3664L10.4117 11.5209L10.4015 11.5146L9.87765 12.3664ZM10.6263 12.3385L10.0486 11.5223L10.0397 11.5286L10.0308 11.5352L10.6263 12.3385ZM10.8899 11.6276L9.91681 11.8582L9.91974 11.87L10.8899 11.6276ZM10.1068 8.32337L9.45365 7.56614L8.99366 7.9629L9.13375 8.55399L10.1068 8.32337ZM12.6689 6.11345L12.0223 5.35058L12.0158 5.35622L12.6689 6.11345ZM13.8245 5.08398C13.7236 4.76561 13.5295 4.48488 13.2672 4.27813L12.029 5.84879C11.9768 5.8076 11.9381 5.75166 11.918 5.68824L13.8245 5.08398ZM13.2672 4.27813C13.0049 4.07137 12.6866 3.94813 12.3535 3.92435L12.2111 5.91927C12.1447 5.91453 12.0813 5.88998 12.029 5.84879L13.2672 4.27813ZM12.3633 3.9251L9.0017 3.65166L8.83955 5.64508L12.2012 5.91852L12.3633 3.9251ZM9.84488 4.26661L8.54988 1.13137L6.70136 1.8949L7.99636 5.03013L9.84488 4.26661ZM8.55044 1.13273C8.42404 0.825431 8.20917 0.562625 7.93312 0.377679L6.81993 2.03925C6.76666 2.00356 6.7252 1.95285 6.70081 1.89355L8.55044 1.13273ZM7.93312 0.377679C7.65706 0.192735 7.33228 0.0939941 7 0.0939941V2.09399C6.93588 2.09399 6.8732 2.07494 6.81993 2.03925L7.93312 0.377679ZM7 0.0939941C6.66772 0.0939941 6.34293 0.192735 6.06688 0.377679L7.18006 2.03925C7.12679 2.07494 7.06412 2.09399 7 2.09399V0.0939941ZM6.06688 0.377679C5.79083 0.562624 5.57596 0.825429 5.44956 1.13273L7.29919 1.89355C7.2748 1.95285 7.23334 2.00356 7.18006 2.03925L6.06688 0.377679ZM5.45011 1.13137L4.15511 4.26661L6.00363 5.03013L7.29863 1.8949L5.45011 1.13137ZM4.9983 3.65166L1.63666 3.9251L1.79881 5.91852L5.16045 5.64508L4.9983 3.65166ZM1.63312 3.9254C1.30332 3.9534 0.989129 4.07815 0.729947 4.28401L1.97383 5.85013C1.92462 5.88922 1.86496 5.91291 1.80234 5.91822L1.63312 3.9254ZM0.729947 4.28401C0.470763 4.48986 0.278124 4.76765 0.176186 5.08255L2.07897 5.69852C2.05961 5.75831 2.02304 5.81105 1.97383 5.85013L0.729947 4.28401ZM0.176186 5.08255C0.0742474 5.39745 0.0675483 5.73544 0.156927 6.05412L2.08263 5.51405C2.0996 5.57455 2.09832 5.63873 2.07897 5.69852L0.176186 5.08255ZM0.156927 6.05412C0.246307 6.37282 0.427787 6.65802 0.678609 6.87399L1.98358 5.35838C2.0312 5.39938 2.06566 5.45354 2.08263 5.51405L0.156927 6.05412ZM0.677948 6.87342L3.24006 9.08334L4.54635 7.56887L1.98424 5.35895L0.677948 6.87342ZM2.92018 8.09538L2.13706 11.398L4.0831 11.8594L4.86622 8.55683L2.92018 8.09538ZM2.14021 11.385C2.05885 11.7089 2.07613 12.0497 2.18984 12.3637L4.07033 11.6827C4.09236 11.7435 4.09571 11.8096 4.07994 11.8723L2.14021 11.385ZM2.18984 12.3637C2.30354 12.6777 2.50848 12.9505 2.77835 13.1472L3.9563 11.5309C4.00859 11.569 4.0483 11.6219 4.07033 11.6827L2.18984 12.3637ZM2.77835 13.1472C3.04822 13.3439 3.37071 13.4554 3.70442 13.4675L3.77687 11.4688C3.84153 11.4712 3.90402 11.4928 3.9563 11.5309L2.77835 13.1472ZM3.70442 13.4675C4.03814 13.4796 4.36786 13.3917 4.65126 13.2151L3.59342 11.5177C3.64833 11.4835 3.71222 11.4665 3.77687 11.4688L3.70442 13.4675ZM4.64619 13.2182L7.52384 11.4485L6.47615 9.74492L3.5985 11.5146L4.64619 13.2182ZM6.47615 11.4485L9.35381 13.2182L10.4015 11.5146L7.52384 9.74492L6.47615 11.4485ZM9.3436 13.2119C9.62719 13.391 9.95834 13.4802 10.2935 13.4677L10.2191 11.4691C10.2871 11.4666 10.3542 11.4846 10.4117 11.521L9.3436 13.2119ZM10.2935 13.4677C10.6287 13.4552 10.9523 13.3416 11.2218 13.1419L10.0308 11.5352C10.0855 11.4947 10.1511 11.4716 10.2191 11.4691L10.2935 13.4677ZM11.204 13.1548C11.4789 12.9603 11.6886 12.6872 11.8057 12.3715L9.93043 11.6762C9.95343 11.6141 9.99464 11.5605 10.0486 11.5223L11.204 13.1548ZM11.8057 12.3715C11.9228 12.0557 11.9417 11.7119 11.8601 11.3852L9.91974 11.87C9.9037 11.8058 9.90743 11.7382 9.93043 11.6762L11.8057 12.3715ZM11.863 11.397L11.0798 8.09275L9.13375 8.55399L9.91688 11.8582L11.863 11.397ZM10.7599 9.08061L13.322 6.87068L12.0158 5.35622L9.45365 7.56614L10.7599 9.08061ZM13.3155 6.87629C13.571 6.65976 13.7555 6.37152 13.8453 6.04889L11.9184 5.51286C11.936 5.44959 11.9722 5.39307 12.0223 5.35061L13.3155 6.87629ZM13.8453 6.04889C13.935 5.72626 13.9258 5.38412 13.8189 5.06677L11.9236 5.70544C11.9026 5.64321 11.9008 5.57612 11.9184 5.51286L13.8453 6.04889Z" fill="black" mask="url(#path-1-inside-1_89_10179)"/>
</g>
</g>
</svg>
