<svg width="61" height="61" viewBox="0 0 61 61" fill="none" xmlns="http://www.w3.org/2000/svg">
<circle cx="30.5" cy="30.5" r="30.5" fill="white"/>
<g clip-path="url(#clip0_64_3619)">
<path d="M30 47.416C39.665 47.416 47.5 39.6043 47.5 29.968C47.5 20.3318 39.665 12.52 30 12.52C20.335 12.52 12.5 20.3318 12.5 29.968C12.5 39.6043 20.335 47.416 30 47.416Z" fill="#FFC84D"/>
<path d="M28.483 34.231C29.936 34.358 31.015 34.728 31.697 35.04C31.99 35.174 32.279 34.849 32.114 34.573C31.58 33.685 30.519 32.47 28.652 32.308C26.785 32.146 25.528 33.157 24.848 33.94C24.637 34.183 24.865 34.553 25.177 34.472C25.904 34.283 27.031 34.104 28.483 34.231Z" fill="#FF6D00"/>
<path d="M23.927 20.834C25.121 20.938 25.786 21.271 26.35 21.58C26.675 21.758 26.958 21.519 26.82 21.149C26.521 20.349 25.626 19.439 24.062 19.302C22.498 19.166 21.457 19.907 21.024 20.643C20.823 20.984 21.06 21.268 21.411 21.149C22.02 20.943 22.734 20.73 23.927 20.834Z" fill="black"/>
<path d="M34.17 17.756C32.976 17.86 32.311 18.193 31.747 18.502C31.422 18.68 31.139 18.441 31.277 18.071C31.576 17.271 32.471 16.361 34.035 16.224C35.599 16.088 36.64 16.829 37.073 17.565C37.274 17.906 37.037 18.19 36.686 18.071C36.077 17.865 35.363 17.652 34.17 17.756Z" fill="black"/>
<path d="M24.34 27.426C25.571 27.426 26.569 26.4312 26.569 25.204C26.569 23.9768 25.571 22.982 24.34 22.982C23.1089 22.982 22.111 23.9768 22.111 25.204C22.111 26.4312 23.1089 27.426 24.34 27.426Z" fill="black"/>
<path d="M33.6211 27.427C34.8311 27.427 35.8121 26.2688 35.8121 24.84C35.8121 23.4112 34.8311 22.253 33.6211 22.253C32.411 22.253 31.4301 23.4112 31.4301 24.84C31.4301 26.2688 32.411 27.427 33.6211 27.427Z" fill="black"/>
<path d="M17.976 42.415C17.976 40.658 18.136 38.55 18.216 37.38C18.277 36.49 18.339 34.851 18.452 34.107C18.568 33.34 19.011 32.691 19.859 32.978C20.669 33.253 21.076 34.436 21.076 35.455C21.076 36.474 21.152 37.154 21.761 37.464C22.37 37.774 23.124 37.732 24.338 37.732C25.552 37.732 29.774 37.647 31.919 37.647C32.414 37.647 33.179 37.718 33.53 38.066C33.967 38.5 33.879 39.342 33.228 39.63C32.183 40.092 29.723 39.986 29.071 40.27C28.419 40.554 28.47 41.019 28.431 41.728C28.384 42.598 28.589 44.868 28.384 45.816C28.152 46.891 27.516 47.483 26.561 47.483H22.452C19.997 47.483 17.977 45.06 17.977 42.415H17.976Z" fill="#FF9210"/>
</g>
<defs>
<clipPath id="clip0_64_3619">
<rect width="40" height="40" fill="white" transform="translate(10 10)"/>
</clipPath>
</defs>
</svg>
