<svg width="20" height="21" viewBox="0 0 20 21" fill="none" xmlns="http://www.w3.org/2000/svg">
<g id="mdi-light:alert-circle">
<path id="Vector" d="M9.58329 3C11.6829 3 13.6966 3.83407 15.1812 5.31874C16.6659 6.8034 17.5 8.81704 17.5 10.9167C17.5 13.0163 16.6659 15.0299 15.1812 16.5146C13.6966 17.9993 11.6829 18.8333 9.58329 18.8333C7.48366 18.8333 5.47003 17.9993 3.98536 16.5146C2.5007 15.0299 1.66663 13.0163 1.66663 10.9167C1.66663 8.81704 2.5007 6.8034 3.98536 5.31874C5.47003 3.83407 7.48366 3 9.58329 3ZM9.58329 3.83333C7.70468 3.83333 5.903 4.57961 4.57462 5.90799C3.24624 7.23638 2.49996 9.03805 2.49996 10.9167C2.49996 12.7953 3.24624 14.597 4.57462 15.9253C5.903 17.2537 7.70468 18 9.58329 18C10.5135 18 11.4346 17.8168 12.294 17.4608C13.1534 17.1048 13.9342 16.5831 14.592 15.9253C15.2497 15.2676 15.7715 14.4867 16.1274 13.6273C16.4834 12.768 16.6666 11.8469 16.6666 10.9167C16.6666 9.03805 15.9203 7.23638 14.592 5.90799C13.2636 4.57961 11.4619 3.83333 9.58329 3.83333ZM9.58329 14.6667C9.35317 14.6667 9.16663 14.4801 9.16663 14.25V13.4167C9.16663 13.1865 9.35317 13 9.58329 13C9.81341 13 9.99996 13.1865 9.99996 13.4167V14.25C9.99996 14.4801 9.81341 14.6667 9.58329 14.6667ZM9.58329 11.3333C9.35317 11.3333 9.16663 11.1468 9.16663 10.9167V7.58333C9.16663 7.35321 9.35317 7.16667 9.58329 7.16667C9.81341 7.16667 9.99996 7.35321 9.99996 7.58333V10.9167C9.99996 11.1468 9.81341 11.3333 9.58329 11.3333Z" fill="black" stroke="black" stroke-width="0.25"/>
</g>
</svg>
