<svg width="61" height="61" viewBox="0 0 61 61" fill="none" xmlns="http://www.w3.org/2000/svg">
<circle cx="30.5" cy="30.5" r="30.5" fill="white"/>
<g clip-path="url(#clip0_236_3642)">
<path d="M47.232 32.872C47.232 29.473 45.298 26.374 42.242 24.886C37.409 22.533 30.406 19.131 27.553 17.783C25.886 16.996 23.91 17.363 22.631 18.69L15.093 26.513C14.321 27.314 13.89 28.382 13.89 29.494V35.927C13.89 39.486 16.775 42.372 20.335 42.372L38.362 42.341C43.263 42.333 47.232 38.357 47.232 33.456V32.872Z" fill="#FFC84D"/>
<path d="M29.523 31.32V27.719L23.098 34.144L29.523 31.32Z" fill="#F78700"/>
<path d="M41.562 14.4L39.907 12.744C39.529 12.366 38.916 12.366 38.538 12.744L11.858 39.424C11.736 39.546 11.649 39.697 11.604 39.864L10.785 42.921C10.687 43.286 11.021 43.619 11.385 43.521L14.442 42.702C14.608 42.657 14.76 42.57 14.882 42.448L16.304 41.026C16.055 40.702 15.857 40.332 15.739 39.92C15.281 38.316 16.087 36.621 17.621 35.963L23.764 33.567L41.562 15.769C41.94 15.391 41.94 14.778 41.562 14.4Z" fill="#4B596A"/>
<path d="M15.7401 39.92C15.8581 40.332 16.0551 40.702 16.3051 41.026C16.9651 41.884 18.0191 42.394 19.1521 42.318L33.1421 42.235L31.5561 30.527L23.7641 33.567L17.6211 35.963C16.0871 36.621 15.2831 38.315 15.7401 39.92Z" fill="#FFC84D"/>
</g>
<defs>
<clipPath id="clip0_236_3642">
<rect width="40" height="40" fill="white" transform="translate(10 10)"/>
</clipPath>
</defs>
</svg>
