<svg width="24" height="24" viewBox="0 0 24 24" fill="none" xmlns="http://www.w3.org/2000/svg">
<g id="stash:plus-light" clip-path="url(#clip0_1_1289)">
<circle id="Ellipse 12" cx="12" cy="12" r="11.5" stroke="black"/>
<path id="Vector" d="M12 5C12.1428 5 12.2798 5.05673 12.3808 5.15771C12.4817 5.25869 12.5385 5.39565 12.5385 5.53846V11.4615H18.4615C18.6043 11.4615 18.7413 11.5183 18.8423 11.6193C18.9433 11.7202 19 11.8572 19 12C19 12.1428 18.9433 12.2798 18.8423 12.3808C18.7413 12.4817 18.6043 12.5385 18.4615 12.5385H12.5385V18.4615C12.5385 18.6043 12.4817 18.7413 12.3808 18.8423C12.2798 18.9433 12.1428 19 12 19C11.8572 19 11.7202 18.9433 11.6193 18.8423C11.5183 18.7413 11.4615 18.6043 11.4615 18.4615V12.5385H5.53846C5.39565 12.5385 5.25869 12.4817 5.15771 12.3808C5.05673 12.2798 5 12.1428 5 12C5 11.8572 5.05673 11.7202 5.15771 11.6193C5.25869 11.5183 5.39565 11.4615 5.53846 11.4615H11.4615V5.53846C11.4615 5.39565 11.5183 5.25869 11.6193 5.15771C11.7202 5.05673 11.8572 5 12 5Z" fill="black"/>
</g>
<defs>
<clipPath id="clip0_1_1289">
<rect width="24" height="24" fill="white"/>
</clipPath>
</defs>
</svg>
